<?xml version="1.0" encoding="utf-8"?>
<svg viewBox="191.1054 103.6657 877.0759 846.9175" width="877.0759" height="846.9175" xmlns="http://www.w3.org/2000/svg">
  <path d="M 415.74 107.9 C 432.977 102.936 441.497 103.443 449.93 104.024 C 481.576 106.205 508.946 116.538 533.862 135.346 C 534.648 135.894 544.947 144.956 547.549 147.346 C 548.522 148.233 552.862 152.346 553.862 154.346 C 558.93 154.531 563.273 154.178 568.19 152.983 C 574.041 151.589 579.958 150.489 585.862 149.346 C 586.805 149.159 587.749 148.972 588.721 148.78 C 633.203 140.616 678.069 146.108 721.862 155.346 C 721.862 154.686 721.862 154.026 721.862 153.346 C 723.33 151.901 723.33 151.901 725.362 150.221 C 728.2 147.826 730.786 145.389 733.299 142.659 C 751.437 124.344 777.929 111.815 802.862 106.346 C 803.66 106.17 804.458 105.993 805.281 105.811 C 812.641 104.313 819.8 103.961 827.299 103.971 C 829.13 103.973 829.13 103.973 830.998 103.974 C 863.348 104.392 894.644 117.986 917.862 140.346 C 918.595 141.041 918.595 141.041 919.343 141.75 C 930.172 152.035 937.701 163.279 944.862 176.346 C 945.349 177.224 945.836 178.102 946.338 179.006 C 949.191 184.388 951.172 189.822 952.815 195.686 C 953.529 198.184 954.336 200.657 955.221 203.1 C 959.037 214.287 959.351 225.27 959.362 236.971 C 959.366 237.751 959.37 238.531 959.375 239.334 C 959.443 268.332 950.876 299.3 931.096 321.311 C 929.669 323.268 929.669 323.268 929.858 325.581 C 931.323 329.617 933.601 333.001 935.924 336.596 C 939.781 342.737 943.332 348.909 946.424 355.471 C 946.907 356.481 946.907 356.481 947.399 357.511 C 950.854 365.031 952.215 371.959 952.112 380.221 C 952.104 381.013 952.097 381.806 952.089 382.622 C 951.646 406.757 937.315 426.231 920.69 442.603 C 904.961 457.604 886.273 470.345 866.967 480.217 C 862.708 482.4 858.551 484.735 854.424 487.159 C 853.791 487.52 853.158 487.881 852.505 488.253 C 849.209 490.214 847.028 491.623 845.862 495.346 C 843.93 503.364 844.848 509.045 848.877 516.17 C 849.532 517.218 850.187 518.266 850.862 519.346 C 851.212 519.906 851.562 520.467 851.922 521.044 C 858.216 531.007 865.226 540.496 872.166 550.013 C 873.887 552.381 875.595 554.759 877.299 557.139 C 882.397 564.255 887.509 571.302 893.053 578.081 C 894.992 580.51 896.804 583.005 898.612 585.534 C 902.936 591.551 907.57 597.299 912.225 603.061 C 914.156 605.453 916.042 607.868 917.862 610.346 C 924.638 609.471 931.092 608.064 937.612 606.034 C 948.525 602.686 959.647 600.431 970.862 598.346 C 971.765 598.178 972.668 598.01 973.598 597.837 C 998.908 593.29 1025.498 591.922 1047.409 607.112 C 1049.39 608.755 1051.13 610.444 1052.862 612.346 C 1053.461 613 1054.061 613.653 1054.678 614.327 C 1063.704 625.029 1068.444 637.823 1068.17 651.725 C 1065.854 678.904 1048.358 699.783 1028.862 717.346 C 1025.923 719.765 1022.911 722.069 1019.862 724.346 C 1019.186 724.86 1018.511 725.373 1017.815 725.903 C 996.43 742.163 973.699 757.901 948.875 768.479 C 944.288 770.455 939.739 772.517 935.182 774.561 C 934.411 774.905 933.64 775.249 932.846 775.604 C 932.152 775.915 931.458 776.226 930.744 776.546 C 929.148 777.225 927.507 777.798 925.862 778.346 C 925.862 779.006 925.862 779.666 925.862 780.346 C 926.625 780.396 927.389 780.446 928.176 780.497 C 936.811 781.104 945.348 782.124 953.924 783.284 C 963.896 784.611 992.311 787.877 992.311 787.877 C 992.311 787.877 1012.905 787.18 1024.943 792.824 C 1038.035 798.962 1042.081 815.845 1034.171 817.772 C 1034.171 817.772 1015.145 806.777 1001.738 807.046 C 993.863 807.204 964.307 789.375 952.313 789.607 C 777.772 792.99 202.658 805.363 237.739 806.838 C 222.027 798.498 329.713 773.425 328.049 773.159 C 319.575 771.802 304.862 762.346 304.862 762.346 C 267.064 741.444 247.93 728.458 232.428 710.506 C 218.959 699.169 208.083 678.983 206.526 661.596 C 206.115 646.156 209.875 631.869 220.174 620.096 C 231.53 608.246 246.002 599.631 260.559 598.185 C 280.851 596.17 319.53 601.187 340.315 606.42 C 350.989 609.108 351.01 609.026 355.002 610.526 C 358.264 611.462 359.719 611.626 362.862 610.346 C 364.634 608.452 375.808 593.521 377.987 590.721 C 381.704 585.905 399.324 562.03 404.674 555.096 C 426.568 529.916 426.568 529.916 437.424 500.034 C 437.55 498.09 437.55 498.09 437.678 496.108 C 436.656 491.396 435.182 490.327 431.276 487.752 C 427.03 485.28 422.697 483.035 418.299 480.846 C 389.503 466.112 362.866 446.235 341.862 419.346 C 335.677 411.428 330.618 395.995 331.104 395.299 C 324.516 374.329 334.855 351.79 344.362 333.534 C 344.724 332.87 347.362 328.152 347.602 324.407 C 346.77 322.091 335.07 302.687 333.593 300.268 C 324.65 285.55 318.949 253.27 317.862 251.346 C 315.564 215.522 326.119 181.324 347.78 151.874 C 360.676 134.341 394.016 114.157 415.74 107.9 Z" fill="#0E222B" id="frog and pad silohuette" style=""/>
  <path d="M 518.112 143.787 C 542.478 161.669 542.478 161.669 549.299 173.517 C 550.868 176.022 577.38 163.674 607.497 162.635 C 639.83 161.52 685.405 156.819 714.799 172.912 C 714.181 173.283 722.698 174.315 723.194 173.782 C 734.086 162.135 734.086 162.135 738.799 157.912 C 739.459 157.912 750.501 148.154 751.249 147.602 C 767.646 135.641 785.015 126.66 804.799 121.912 C 805.934 121.635 805.934 121.635 807.091 121.352 C 836.661 114.735 867.043 123.935 892.096 139.818 C 900.84 145.697 910.868 153.423 915.799 162.912 C 927.062 180.637 925.29 179.87 934.163 200.006 C 938.638 211.095 941.346 221.959 941.799 233.912 C 941.832 234.624 941.864 235.335 941.898 236.068 C 943.238 268.554 932.015 296.585 910.799 320.912 C 907.408 324.59 920.501 341.48 920.862 342.287 C 922.375 345.342 924.248 348.021 926.237 350.787 C 929.234 355.015 931.81 359.123 933.799 363.912 C 934.098 364.624 934.397 365.335 934.706 366.068 C 938.084 375.454 938.661 388.546 934.799 397.912 C 934.38 398.933 933.961 399.954 933.53 401.006 C 928.081 412.991 920.012 422.658 909.799 430.912 C 909.057 431.655 908.314 432.397 907.549 433.162 C 899.287 441.424 879.828 455.599 878.837 456.299 C 872.309 460.817 838.275 478.343 837.574 478.714 C 834.165 481.015 832.301 484.143 830.799 487.912 C 830.428 489.971 830.074 492.034 829.737 494.1 C 828.571 499.415 828.571 499.415 825.264 501.545 C 823.172 502.343 821.06 503.09 818.932 503.787 C 814.071 505.533 805.399 513.15 804.678 513.787 C 796.263 521.677 788.847 533.163 788.299 544.975 C 788.684 553.205 793.144 559.754 797.432 566.553 C 798.817 568.943 804.358 575.826 806.237 578.537 C 809.465 583.087 823.553 601.075 826.549 604.725 C 832.225 611.643 835.555 615.804 836.389 616.842 C 837.932 619.106 838.872 621.341 839.799 623.912 C 833.883 622.47 828.967 620.239 825.299 615.537 C 794.612 576.207 779.371 574.374 783.799 580.912 C 784.253 581.531 780.385 582.412 780.852 583.049 C 769.591 577.584 788.895 600.928 788.633 610.346 C 788.468 616.274 789.423 643.145 788.94 646.193 C 785.295 669.005 778.481 689.42 767.799 709.912 C 767.006 711.451 753.379 732.938 752.647 733.982 C 751.934 734.99 722.442 764.404 719.799 767.912 C 718.057 768.982 673.882 787.672 672.799 788.912 C 658.298 792.661 627.63 793.844 626.438 793.774 C 616.399 793.15 583.716 782.6 581.67 781.959 C 570.519 777.893 557.03 771.501 548.799 762.912 C 546.083 760.603 522.274 736.303 519.799 733.912 C 516.799 730.245 507.132 714.725 506.788 714.113 C 499.197 700.587 489.358 668.174 488.889 666.33 C 483.3 641.918 483.981 607 497.612 584.912 C 498.334 583.922 499.056 582.932 499.799 581.912 C 499.139 581.582 498.479 581.252 497.799 580.912 C 497.799 581.572 478.076 598.077 472.112 603.037 C 470.702 604.203 469.292 605.368 467.881 606.533 C 465.864 608.201 463.848 609.871 461.84 611.549 C 449.276 622.012 449.276 622.012 440.799 623.912 C 440.799 624.572 440.799 625.232 440.799 625.912 C 439.809 625.912 438.819 625.912 437.799 625.912 C 439.521 621.917 442.177 618.667 444.862 615.287 C 445.595 614.358 445.595 614.358 446.343 613.41 C 449.986 608.833 453.822 604.475 457.791 600.178 C 460.283 597.366 462.468 594.395 464.608 591.31 C 465.198 590.618 465.198 590.618 465.799 589.912 C 466.459 589.912 467.119 589.912 467.799 589.912 C 468.171 589.108 468.171 589.108 468.549 588.287 C 470.106 585.33 471.834 582.615 473.799 579.912 C 474.459 579.912 475.119 579.912 475.799 579.912 C 476.033 579.215 476.266 578.517 476.506 577.799 C 478.044 574.366 480.151 571.634 482.487 568.725 C 483.391 567.573 484.293 566.421 485.194 565.267 C 485.637 564.701 486.08 564.134 486.536 563.55 C 489.446 559.777 492.15 555.871 494.799 551.912 C 495.245 551.277 495.691 550.641 496.151 549.986 C 497.993 547.16 498.79 545.033 499.049 541.662 C 496.123 532.884 489.147 525.942 482.952 519.26 C 480.986 517.116 479.145 514.909 477.299 512.662 C 471.295 505.766 462.795 500.557 453.799 498.912 C 453.569 498.043 453.338 497.174 453.1 496.279 C 450.109 485.6 450.109 485.6 442.256 478.357 C 439.478 476.829 436.674 475.37 433.842 473.945 C 429.951 471.977 426.096 469.941 422.237 467.912 C 421.416 467.48 420.595 467.049 419.749 466.604 C 403.376 457.967 388.221 448.708 374.799 435.912 C 373.369 434.654 371.932 433.403 370.487 432.162 C 367.099 429.208 363.863 426.205 360.799 422.912 C 360.799 422.252 360.799 421.592 360.799 420.912 C 359.809 420.582 358.819 420.252 357.799 419.912 C 347.39 407.702 342.706 394.795 343.799 378.912 C 344.907 369.095 346.731 356.274 353.975 349.03 C 354.408 349.834 379.697 334.31 363.733 318.92 C 344.467 298.089 333.107 268.03 333.299 240.037 C 333.302 238.984 335.505 218.326 338.799 207.912 C 340.382 202.906 348.619 169.18 373.924 148.1 C 383.522 140.105 393.365 132.985 404.799 127.912 C 405.956 127.38 405.956 127.38 407.135 126.838 C 409.66 125.748 412.202 124.816 414.799 123.912 C 415.394 123.696 415.988 123.48 416.6 123.258 C 451.361 110.943 489.106 123.154 518.112 143.787 Z" id="main body" style="fill: rgb(218, 41, 28);"/>
  <g id="eyes" transform="matrix(1, 0, 0, 1, -7.449118248360264, -30.127182455765933)">
    <path d="M 526.152 173.816 C 538.86 182.29 550.518 191.698 557.34 203.547 C 558.909 206.051 568.798 214.033 571.418 217.523 C 573.143 219.243 579.16 219.941 579.84 219.941 C 592.655 253.406 547.52 305.994 544.849 299.779 C 544.259 302.641 540.399 252.55 540.172 251.834 C 532.051 226.719 421.795 160.311 405.84 167.941 C 405.178 168.257 369.701 192.816 367.701 192.816 C 367.701 190.816 374.929 184.089 376.362 182.644 C 430.074 128.996 477.762 141.549 526.152 173.816 Z" id="eyebulge left " style="fill: rgb(195, 38, 27);"/>
    <path d="M 527.29 176.306 C 545.388 188.519 557.516 206.507 563.548 212.654 C 563.867 212.979 564.995 213.312 568.44 218.707 C 565.772 218.87 563.067 219.458 558.341 216.075 C 558.341 216.075 538.585 193.348 537.165 192.243 C 536.443 191.645 527.366 184.535 524.665 182.368 C 517.539 176.907 500.732 167.734 500.09 167.375 C 494.692 164.469 466.284 158.583 458.978 158.431 C 459.496 158.642 460.013 158.853 460.547 159.07 C 478.85 166.557 494.477 174.744 508.978 188.431 C 509.571 188.971 510.164 189.511 510.774 190.068 C 528.186 206.526 541.344 229.565 547.978 252.431 C 548.204 253.18 548.431 253.929 548.665 254.7 C 552.154 268.535 550.449 283.793 546.978 297.431 C 546.648 297.431 546.318 297.431 545.978 297.431 C 545.956 296.314 545.837 296.31 545.933 295.175 C 549.264 255.841 534.352 221.343 504.372 193.489 C 502.044 191.326 499.669 189.454 497.052 187.654 C 495.53 186.553 484.339 179.515 480.915 177.493 C 480.316 177.146 479.718 176.799 479.101 176.441 C 476.533 174.947 473.992 173.441 471.509 171.81 C 468.316 170.071 465.042 169.179 461.54 168.306 C 460.897 168.137 460.255 167.968 459.593 167.794 C 442.697 163.437 422.933 162.801 406.978 170.431 C 406.316 170.747 405.655 171.063 404.974 171.388 C 398.687 174.442 392.857 177.315 387.978 182.431 C 386.546 183.449 385.087 184.429 383.603 185.368 C 380.757 187.211 378.101 189.085 375.54 191.306 C 372.978 193.431 372.978 193.431 370.978 193.431 C 370.978 191.431 370.978 191.431 372.411 189.986 C 373.403 189.154 373.403 189.154 374.415 188.306 C 377.374 185.802 380.257 183.25 383.103 180.618 C 392.45 172.333 402.544 165.504 413.978 160.431 C 415.134 159.899 415.134 159.899 416.314 159.357 C 418.838 158.267 421.38 157.335 423.978 156.431 C 424.572 156.215 425.166 155.999 425.778 155.777 C 460.54 143.462 497.785 156.394 527.29 176.306 Z" id="left eye v hihglight" style="fill: rgb(209, 82, 73);"/>
    <ellipse style="stroke: rgb(0, 0, 0); fill: rgb(250, 250, 248);" cx="441.352" cy="280.355" rx="97.366" ry="105.396" id="eye white left"/>
    <path d="M 403.814 170.003 C 421.217 162.9 437.668 162.769 438.849 162.777 C 453.693 162.878 466.267 166.385 479.189 173.565 C 491.789 180.566 502.077 189.261 503.314 190.315 C 511.187 197.176 518.265 204.104 523.627 213.128 C 535.71 231.62 531.342 227.969 534.454 246.15 C 525.208 227.439 477.242 178.897 474.627 179.128 C 473.563 177.901 435.577 170.175 434.063 170.755 C 422.975 175.005 410.847 173.535 399.684 177.481 C 396.682 178.424 393.751 178.795 390.627 179.128 C 394.543 174.711 398.38 172.221 403.814 170.003 Z" id="eyebulge dark hl left" style="fill: rgb(174, 34, 25);"/>
    <path d="M 388.627 365.348 C 403.897 374.184 420.917 376.471 437.627 382.128 C 446.636 385.178 471.019 380.448 479.271 378.69 C 481.81 378.149 484.055 376.482 486.627 376.128 C 487.989 375.941 491.653 376.214 490.627 377.128 C 487.254 380.135 482.641 381.365 478.564 383.315 C 451.166 396.419 429.39 391.022 401.279 383.413 C 396.635 382.156 370.061 369.63 368.162 368.103 C 367.784 367.799 347.121 326.555 337.943 296.991 C 329.26 269.024 331.638 250.057 331.154 248.993 C 330.287 247.087 331.896 244.588 350.05 209.034 C 352.273 204.68 387.4 175.024 403.165 171.306 C 433.807 164.079 469.63 175.561 486.709 186.196 C 503.772 196.821 545.808 232.601 541.918 287.827 C 540.14 313.074 535.081 333.768 520.977 355.431 C 519.317 357.98 521.085 349.255 522.04 346.368 C 536.714 301.996 543.838 295.161 521.208 235.064 C 514.654 217.66 500.16 205.566 484.18 196.055 C 472.136 188.886 424.32 159.646 376.627 203.128 C 335.321 240.787 342.562 295.533 351.57 317.019 C 366.524 352.69 369.038 354.013 388.627 365.348 Z" id="left eyebrow shade blck" style="fill: rgb(14, 34, 43);"/>
    <ellipse style="paint-order: fill; stroke: rgb(0, 0, 0); stroke-width: 5px; fill: rgb(0, 45, 114);" cx="439.05" cy="292.863" rx="74.667" ry="73.987" id="eye left"/>
    <ellipse style="fill: rgb(24, 23, 45);" cx="437.137" cy="292.219" rx="52" ry="52" id="pupil left"/>
    <ellipse style="fill: rgb(251, 251, 249);" cx="422.813" cy="251.285" rx="20" ry="20" id="reflect eye left"/>
    <path d="M 762.446 174.044 C 749.175 182.433 736.977 191.783 729.744 203.678 C 728.083 206.19 717.736 214.124 714.974 217.618 C 713.164 219.334 706.929 219.95 706.226 219.94 C 692.475 253.633 738.387 307.566 741.243 301.313 C 741.898 304.264 750.102 257.097 750.416 254.849 C 755.581 217.853 870.599 161.944 886.991 169.911 C 887.672 170.241 921.823 193.715 923.893 193.746 C 923.922 191.72 923.922 191.72 922.461 190.235 C 867.691 135.099 812.981 142.1 762.446 174.044 Z" id="eyebulge rght" style="fill: rgb(195, 38, 27);"/>
    <path d="M 897.352 175.046 C 904.345 180.412 912.194 186.084 916.31 194.02 C 913.465 192.727 911.358 191.246 909.056 189.136 C 902.065 182.897 895.189 177.314 886.82 173.051 C 886.263 172.732 885.704 172.413 885.13 172.084 C 883.195 171.014 881.24 170.116 879.21 169.239 C 878.223 168.812 877.236 168.384 876.219 167.943 C 858.572 161.352 825.373 168.059 807.987 175.123 C 804.926 170.61 758.957 198.036 751.524 227.605 C 750.495 231.7 741.136 282.683 740.4 300.071 C 739.088 300.266 736.988 279.283 739.464 258.243 C 743.972 194.299 791.275 171.524 805.685 166.071 C 808.915 164.849 819.275 156.694 824.036 157.801 C 818.772 158.256 805.035 161.276 803.326 161.797 C 795.747 164.256 786.102 169.743 778.813 172.907 C 768.619 177.332 730.722 212.942 726.848 216.31 C 724.502 217.578 722.46 219.616 718.485 218.155 C 718.414 216.237 722.646 213.103 722.646 213.103 C 722.646 213.103 744.764 192.732 750.787 186.395 C 764.476 175.237 786.333 158.914 812.898 154.409 C 850.139 148.094 873.459 157.941 897.352 175.046 Z" id="right eye v hihglight" style="fill: rgb(209, 82, 73);"/>
    <ellipse style="stroke: rgb(0, 0, 0); fill: rgb(250, 250, 248);" cx="850.88" cy="283.371" rx="97.366" ry="105.396" id="eye white right"/>
    <path d="M 876.238 167.685 C 877.038 168.03 877.839 168.376 878.663 168.732 C 880.58 169.639 882.401 170.626 884.238 171.685 C 885.054 172.133 885.87 172.582 886.71 173.044 C 888.893 174.245 891.068 175.459 893.238 176.685 C 892.908 177.675 892.578 178.665 892.238 179.685 C 885.023 177.805 877.905 175.683 870.81 173.399 C 849.174 166.502 825.643 170.838 805.37 180.064 C 801.217 182.213 786.515 192.982 784.175 194.435 C 780.431 196.843 780.247 214.222 776.919 217.17 C 775.158 218.718 767.564 212.485 766.884 212.145 C 776.647 193.21 798.693 168.706 826.337 165.086 C 842.909 162.996 860.736 160.983 876.238 167.685 Z" id="eyebulge dark hl right" style="fill: rgb(174, 34, 25);"/>
    <path d="M 826.315 173.108 C 870.013 159.036 925.569 194.343 944.533 210.074 C 954.204 218.097 968.157 253.075 958.414 298.658 C 953.317 322.504 935.706 351.725 916.746 368.652 C 904.542 379.547 891.779 382.048 881.435 385.717 C 846.421 398.138 814.916 383.551 793.989 373.661 C 793.091 373.237 789.963 372.083 788.987 371.884 C 787.526 371.586 785.353 367.381 786.841 367.287 C 787.834 367.224 792.769 368.553 793.681 368.975 C 843.331 391.944 883.2 384.775 914.986 354.484 C 926.529 343.483 950.043 302.302 949.22 283.638 C 946.359 218.755 882.533 173.843 845.134 181.253 C 777.371 194.679 749.502 242.508 767.719 335.157 C 768.997 341.658 770.402 345.739 770.402 345.739 C 763.521 352.768 749.487 288.641 751.976 266.562 C 758.86 205.493 814.057 177.055 826.315 173.108 Z" fill="#12222E" style="" id="eye outline right"/>
    <ellipse style="paint-order: fill; stroke: rgb(0, 0, 0); stroke-width: 5px; fill: rgb(0, 45, 114);" cx="852.863" cy="293.116" rx="74.667" ry="73.987" id="eye right"/>
    <ellipse style="fill: rgb(24, 23, 45);" cx="859.054" cy="297.337" rx="52" ry="52" id="pupil right"/>
    <ellipse style="fill: rgb(251, 251, 249);" cx="844.73" cy="256.403" rx="20" ry="20" id="ref eye right"/>
  </g>
  <path d="M 694.759 403.988 C 698.603 405.157 712.789 409.136 715.987 410.162 C 737.179 416.864 759.743 422.445 760.769 422.67 C 775.611 425.684 807.399 426.221 808.352 426.218 C 838.549 426.105 869.231 420.619 895.987 405.76 C 897.799 404.912 918.717 392.901 925.799 393.912 C 928.392 395.374 931.605 397.694 933.927 399.589 C 927.413 423.848 879.501 455.831 878.832 456.304 C 872.306 460.82 838.275 478.344 837.574 478.715 C 834.165 481.015 832.301 484.143 830.799 487.912 C 829.933 491.949 828.998 501.543 826.392 500.869 C 824.3 501.668 805.749 512.84 804.678 513.787 C 796.263 521.678 788.847 533.164 788.299 544.975 C 788.684 553.205 793.144 559.755 797.432 566.553 C 798.817 568.944 835.554 615.804 836.389 616.842 C 837.931 619.107 838.872 621.341 839.799 623.912 C 833.883 622.471 829.952 619.267 825.299 615.537 C 824.51 614.915 784.884 581.813 788.391 585.987 C 826.339 655.131 774.828 694.502 766.197 713.022 C 750.274 747.188 723.77 793.213 628.799 793.912 C 570.172 794.344 487.112 723.289 488.889 666.33 C 489.744 638.935 491.204 587.239 499.799 581.912 C 499.139 581.582 498.479 581.252 497.799 580.912 C 497.799 581.572 440.799 625.232 440.799 625.912 C 439.809 625.912 438.819 625.912 437.799 625.912 C 439.521 621.917 495.691 550.641 496.151 549.987 C 497.993 547.16 498.79 545.034 499.049 541.662 C 496.123 532.884 462.795 500.558 453.799 498.912 C 453.626 498.028 451.234 485.319 442.256 478.358 C 410.396 462.999 389.451 452.309 357.799 419.912 C 356.045 417.768 350.281 411.121 347.05 402.411 C 350.154 399.61 353.925 396.985 358.11 396.638 C 362.123 396.936 364.018 396.735 368.256 399.615 C 369.378 400.377 426.206 424.577 441.799 424.912 C 443.408 424.947 472.352 427.944 485.518 425.467 C 488.487 424.965 491.433 424.64 494.429 424.361 C 502.741 423.557 520.449 419.595 522.069 419.208 C 527.12 417.96 554.562 409.168 556.243 408.674 C 558.006 408.149 572.799 403.592 572.799 402.912 C 616.009 391.047 652.042 390.647 694.759 403.988 Z" style="fill: rgb(4, 106, 56);" id="underside"/>
  <ellipse style="fill: rgb(255, 233, 0);" cx="634.935" cy="646.423" rx="100" ry="100" id="stomach patch"/>
  <path d="M 493.075 599.704 C 494.291 613.114 491.309 653.42 496.41 665.881 C 566.525 837.164 734.573 752.791 768.449 686.801 C 775.677 672.721 777.841 643.289 781.6 627.915 C 782.041 626.112 785.649 594.362 787.143 595.464 C 804.332 608.14 807.034 667.867 812.148 690.254 C 817.01 711.537 782.799 731.796 787.907 745.775 C 797.854 772.999 684.338 837.253 580.849 799.171 C 553.672 789.17 490.67 766.089 486.898 762.441 C 485.985 761.558 487.114 759.873 486.855 758.629 C 484.076 745.279 481.376 731.893 477.8 718.734 C 473.388 702.498 457.647 658.116 459.898 652.441 C 463.455 643.474 472.474 637.81 478.773 630.504 C 479.699 629.429 492.017 588.037 493.075 599.704 Z" style="fill: rgb(3, 91, 48);" id="stomach grading two"/>
  <path d="M 480.622 743.223 C 481.612 743.223 483.622 744.543 483.622 745.223 C 484.282 745.223 549.582 785.883 551.622 786.223 C 551.355 787.953 581.665 798.281 583.622 798.223 C 583.622 798.883 633.065 806.16 668.908 797.69 C 671.375 797.107 688.887 793.652 695.416 791.071 C 697.725 790.173 719.622 784.903 719.622 784.223 C 722.244 782.884 751.622 765.903 751.622 765.223 C 753.852 763.566 768.402 754.905 769.622 752.223 C 773.05 749.223 787.309 733.41 788.622 732.223 C 789.622 734.223 788.41 760.322 786.153 762.902 C 784.365 764.196 779.518 766.901 778.391 767.594 C 772.212 770.961 740.496 785.826 736.286 789.867 C 733.636 792.026 698.654 802.857 695.842 803.331 C 680.284 805.953 651.675 811.459 652.635 808.41 C 644.851 809.901 607.318 811.075 598.296 808.701 C 596.361 808.166 566.773 802.371 562.497 800.66 C 558.889 799.237 535.412 790.408 534.274 789.988 C 526.045 786.908 483.002 764.243 480.622 763.223 C 480.622 756.623 480.622 750.023 480.622 743.223 Z" id="stomach grading darkest" style="fill: rgb(0, 52, 26);"/>
  <path d="M 695.35 403.89 C 699.194 405.059 703.066 406.106 706.946 407.146 C 710.186 408.032 713.38 409.038 716.578 410.064 C 737.77 416.766 737.77 416.766 759.328 422.127 C 760.334 422.347 760.334 422.347 761.36 422.572 C 776.202 425.586 791.043 426.19 806.14 426.127 C 807.065 426.125 807.992 426.171 808.944 426.12 C 839.14 424.499 855.538 423.683 882.294 412.209 C 886.59 410.713 905.064 400.991 905.39 400.921 C 910.735 404.2 898.791 415.984 892.733 417.321 C 857.973 435.043 794.049 443.538 743.589 428.126 C 732.577 424.763 721.38 422.251 710.39 418.814 C 699.358 415.369 688.303 412.17 677.065 409.464 C 675.351 409.048 673.641 408.619 671.934 408.173 C 659.649 404.992 647.639 404.448 635.015 404.439 C 634.253 404.437 633.492 404.435 632.707 404.433 C 619.089 404.437 605.82 405.517 592.64 409.189 C 591.894 409.385 591.148 409.581 590.379 409.783 C 586.183 410.916 582.119 412.254 578.047 413.771 C 572.325 415.892 566.528 417.537 560.64 419.127 C 553.185 421.169 545.77 423.285 538.394 425.6 C 515.594 432.745 493.658 435.952 469.765 436.064 C 468.497 436.074 467.228 436.083 465.92 436.093 C 459.582 436.071 453.686 435.724 447.505 434.3 C 444.696 433.655 441.876 433.34 439.015 433.002 C 420.271 430.789 408.882 425.106 389.462 415.902 C 379.48 410.492 372.396 404.37 376.935 402.503 C 377.678 402.937 384.103 405.631 392.009 409.471 C 405.641 413.13 431.675 430.357 486.109 425.369 C 489.107 425.094 492.024 424.542 495.021 424.263 C 503.332 423.459 511.335 421.824 519.453 419.877 C 521.041 419.497 539.464 414.559 551.793 410.064 C 568.149 404.101 562.824 406.082 573.39 402.814 C 615.831 389.687 652.633 390.549 695.35 403.89 Z" id="lip highlight" style="fill: rgb(2, 124, 64);"/>
  <path d="M 698.903 416.538 C 706.463 418.942 755.378 432.265 756.363 432.503 C 798.877 442.449 841.042 437.235 882.091 423.741 C 883.165 423.39 897.779 417.837 903.803 414.698 C 914.904 409.017 914.904 409.017 918.809 409.706 C 919.377 409.903 919.944 410.1 920.528 410.303 C 905.732 418.881 872.076 433.177 870.813 433.628 C 836.645 445.567 795.967 447.744 760.528 440.303 C 759.862 440.164 719.094 429.62 709.653 426.303 C 694.412 420.968 678.396 417.253 662.528 414.303 C 661.622 414.121 633.908 411.995 633.202 411.997 C 622.944 412.042 613.496 412.735 603.528 415.303 C 601.844 415.687 600.159 416.066 598.473 416.44 C 589.829 418.397 581.355 420.62 572.904 423.298 C 565.022 425.794 557.089 428.11 549.153 430.428 C 546.944 431.075 544.736 431.722 542.527 432.37 C 541.108 432.785 539.689 433.2 538.27 433.614 C 534.569 434.695 530.885 435.818 527.208 436.975 C 521.892 438.575 516.498 439.518 511.028 440.428 C 509.576 440.682 509.576 440.682 508.094 440.94 C 496.835 442.86 485.89 443.508 474.466 443.491 C 473.779 443.491 473.092 443.49 472.385 443.49 C 461.968 443.471 451.814 443.084 441.528 441.303 C 439.637 440.977 439.637 440.977 437.708 440.643 C 424.199 438.105 411.231 434.554 398.528 429.303 C 397.429 428.854 397.429 428.854 396.307 428.396 C 388.346 425.138 380.455 421.876 372.841 417.866 C 368.276 415.497 364.658 414.501 359.528 414.303 C 359.198 413.313 358.868 412.323 358.528 411.303 C 366.425 411.442 372.744 412.296 379.798 415.952 C 382.576 417.327 385.401 418.427 388.312 419.491 C 390.645 420.346 392.961 421.239 395.278 422.136 C 413.455 429.05 431.914 433.628 451.239 436.286 C 458.059 437.224 471.764 437.489 472.465 437.488 C 500.52 437.404 525.601 431.442 552.36 423.27 C 556.953 421.869 561.553 420.493 566.153 419.116 C 567.756 418.636 569.359 418.155 570.962 417.675 C 571.723 417.446 572.485 417.218 573.27 416.983 C 575.494 416.314 577.716 415.639 579.938 414.964 C 587.091 412.805 594.261 410.797 601.528 409.053 C 602.198 408.89 602.868 408.727 603.558 408.559 C 634.951 401.253 668.763 406.932 698.903 416.538 Z" fill="#36260A" id="mouth black line"/>
  <g id="arm left" transform="matrix(1, 0, 0, 1, -0.9481141112464684, -81.71217467952033)">
    <path d="M 454.747 580.624 C 467.244 581.422 498.737 617.923 499.747 619.249 C 501.205 622.712 500.994 625.184 499.747 628.624 C 495.645 636.61 444.855 699.118 444.137 700.005 C 441.898 702.844 438.427 709.284 437.747 709.624 C 438.347 714.364 480.952 834.6 473.938 849.507 C 470.133 856.269 465.305 859.808 457.966 862.206 C 445.977 864.464 434.872 862.488 424.411 856.226 C 415.4 857.476 403.922 813.585 395.676 791.776 C 392.742 784.016 371.468 718.872 369.907 713.534 C 369.532 712.254 369.532 712.254 369.149 710.948 C 368.474 707.05 369.391 705.142 371.61 701.917 C 372.418 700.892 404.329 659.855 412.729 648.434 C 417.363 642.135 446.454 605.047 452.747 587.624 C 453.719 585.941 454.712 584.27 455.747 582.624 C 455.252 581.634 455.252 581.634 454.747 580.624 Z" style="fill: rgb(219, 47, 35);" id="arm left"/>
    <path d="M 449.738 602.801 C 450.398 602.801 450.927 602.932 451.607 602.932 C 452.178 608.529 451.116 610.127 447.757 614.344 C 446.31 616.108 382.177 703.311 379.714 705.739 C 377.275 707.887 377.275 707.887 376.476 711.016 C 377.136 711.016 403.713 791.778 405.381 796.748 C 406.148 799.038 415.162 827.38 426.703 849.332 C 428.476 852.016 435.745 857.088 436.914 857.641 C 444.008 860.219 451.787 860.277 458.906 857.844 C 464.203 855.331 468.319 853.103 471.476 848.016 C 473.527 835.994 469.984 824.401 466.476 813.016 C 466.203 812.109 458.92 789.08 454.445 778.817 C 453.476 776.016 458.4 772.015 459.063 773.309 C 459.434 774.028 467.796 797.016 468.476 797.016 C 482.383 837.625 482.383 837.625 475.667 851.899 C 471.862 858.661 467.034 862.2 459.695 864.598 C 447.706 866.856 436.601 864.88 426.14 858.617 C 415.785 851.81 404.434 814.233 397.406 794.168 C 394.664 786.338 371.136 714.219 370.879 713.34 C 370.203 709.442 371.12 707.533 373.339 704.309 C 374.148 703.284 374.956 702.259 375.789 701.203 C 376.232 700.638 446.836 608.242 449.738 602.801 Z" id="frnt left arm hhgligh lrg" style="fill: rgb(228, 84, 74);"/>
    <path d="M 450.02 602.452 C 450.68 602.452 451.446 602.346 452.126 602.346 C 452.697 607.943 451.766 609.824 448.407 614.041 C 446.959 615.805 382.826 702.008 380.364 704.435 C 377.924 706.584 377.924 706.584 377.126 709.713 C 377.786 709.713 379.466 732.693 379.126 733.713 C 370.83 714.562 370.83 714.562 371.251 707.662 C 372.569 704.724 447.118 607.893 450.02 602.452 Z" id="arm shadee" style="fill: rgb(228, 90, 81);"/>
    <path d="M 454.648 580.569 C 472.194 579.202 499.052 618.265 499.648 619.194 C 501.106 622.657 500.895 625.128 499.648 628.569 C 495.546 636.555 489.686 643.595 484.18 650.642 C 481.901 653.566 476.562 658.869 475.882 660.569 C 475.552 659.579 480.683 653.153 482.148 645.381 C 481.616 642.617 475.299 621.259 469.945 614.393 C 468.412 612.237 457.258 599.138 454.21 597.444 C 451.648 595.569 451.648 595.569 451.023 592.756 C 451.817 588.706 453.539 586.106 455.648 582.569 C 455.318 581.909 454.988 581.249 454.648 580.569 Z" id="frnt left arm shadow" style="fill: rgb(196, 45, 34);"/>
  </g>
  <g id="arm right" transform="matrix(1, 0, 0, 1, -0.9481141112464684, -81.71217467952033)">
    <path d="M 828.179 580.143 C 829.38 580.507 905.424 694.105 906.746 698.436 C 911.008 712.396 878.422 817.817 855.498 852.835 C 854.144 854.903 844.464 857.201 842.179 858.143 C 833.522 861.712 832.373 864.822 815.984 859.78 C 810.689 858.151 804.176 853.558 804.242 848.018 C 804.515 825.085 811.785 802.744 816.929 780.393 C 822.12 757.837 834.981 737.157 839.617 714.268 C 843.059 697.271 837.802 699.432 825.39 683.659 C 810.12 664.253 786.817 646.248 789.179 620.143 C 790.656 603.819 818.02 577.066 828.179 580.143 Z" style="fill: rgb(214, 47, 35);" id="arm right"/>
    <path d="M 828.825 579.561 C 829.095 580.408 838.893 595.041 839.956 596.998 C 835.214 599.998 811.953 629.175 807.293 634.561 C 794.916 645.66 822.512 671.125 843.878 694.598 C 844.626 696.912 839.587 700.481 840.201 702.833 C 836.063 699.05 798.674 652.525 798.247 651.816 C 789.16 636.514 787.34 628.235 788.838 618.561 C 789.024 615.025 793.508 606.957 794.148 606.131 C 800.15 595.29 814.924 579.561 828.825 579.561 Z" style="fill: rgb(196, 45, 34);" id="frnt right arm shadow"/>
    <path d="M 838.261 607.718 C 835.546 603.813 841.57 599.028 842.602 600.633 C 845.131 604.567 907.37 696.675 908.692 701.006 C 912.81 714.493 879.175 812.676 856.48 851.114 C 855.681 852.467 850.463 855.815 849.693 857.014 C 848.198 859.342 845.24 854.277 845.74 853.835 C 846.001 853.605 851.943 850.769 852.928 848.53 C 862.822 826.033 905.411 712.048 903.126 705.713 C 901.666 701.666 868.026 650.517 838.261 607.718 Z" id="fr right arm highligh outer" style="fill: rgb(228, 81, 71);"/>
    <path d="M 842.126 717.713 C 842.824 716.734 848.15 717.224 847.74 719.942 C 846.287 729.585 824.513 780.063 815.431 808.493 C 812.534 817.562 811.54 828.863 810.77 838.595 C 808.745 864.202 840.542 857.255 846.383 853.153 C 847.225 852.562 850.795 856.932 850.126 857.713 C 845.734 862.842 826.901 864.493 824.598 864.041 C 800.448 859.297 802.715 835.723 806.813 817.693 C 811.111 798.783 839.326 721.641 842.126 717.713 Z" id="frnt right arm inner shade" style="fill: rgb(228, 81, 71);"/>
  </g>
  <g id="legs" transform="matrix(1, 0, 0, 1, -0.9481141112464684, -81.71217467952033)">
    <g id="right leg">
      <path d="M 923.724 705.57 C 927.68 704.602 954.909 698.818 955.206 699.115 C 955.951 699.86 1045.279 749.645 1044.338 753.309 C 1038.705 775.237 1016.879 790.521 999.963 802.901 C 977.443 819.381 959.648 829.064 928.338 845.526 C 914.351 852.88 895.396 868.116 887.503 868.594 C 886.837 868.634 866.178 870.481 868.162 867.946 C 871.134 864.149 874.475 843.814 876.401 839.393 C 880.591 829.774 882.851 819.422 886.338 809.526 C 886.867 808.026 887.164 806.194 888.437 805.24 C 890.908 803.387 894.21 803.006 896.947 801.573 C 912.378 793.495 927.807 785.411 943.338 777.526 C 961.265 768.424 992.512 769.115 996.725 749.456 C 1000.213 733.181 948.468 764.824 947.476 768.016 C 946.62 770.77 943.485 772.355 940.906 773.645 C 931.935 778.131 922.77 782.244 913.476 786.016 C 910.838 787.087 894.756 795.432 895.476 792.016 C 900.212 769.548 911.004 748.79 918.101 726.953 C 919.679 722.098 922.873 705.778 923.724 705.57 Z" id="right leg 1" style="fill: rgb(164, 31, 22);"/>
      <path d="M 1005.09 690.792 C 1017.052 693.656 1030.852 693.334 1040.596 700.841 C 1060.973 716.541 1051.485 742.052 1040.596 757.716 C 1037.011 762.873 1030.696 765.476 1025.408 768.864 C 1012.097 777.392 998.862 786.041 985.408 794.341 C 973.602 801.624 938.449 826.417 939.069 823.491 C 943.443 802.846 943.338 778.056 945.87 776.644 C 955.007 771.547 999.268 747.533 988.47 751.363 C 968.715 758.37 967.113 762.403 945.675 770.982 C 944.886 771.298 930.195 705.818 935.846 703.521 C 958.52 694.305 991.665 687.577 1005.09 690.792 Z" style="fill: rgb(208, 39, 27);" id="thigh right"/>
    </g>
    <g id="left leg">
      <path d="M 290.353 749.827 C 290.703 750.796 263.597 740.954 263.959 741.953 C 265.758 746.232 270.349 763.259 273.298 766.807 C 274.724 768.725 293.075 771.516 296.927 772.939 C 298.268 773.591 322.02 774.345 320.645 771.845 C 328.096 772.907 339.775 779.867 346.338 783.526 C 346.338 784.186 387.487 806.652 390.338 807.526 C 395.998 813.658 409.338 853.315 409.338 858.526 C 408.067 858.906 408.069 871.771 399.304 869.696 C 398.314 869.366 392.066 867.979 384.711 868.95 C 373.228 871.914 367.297 870.116 361.674 868.901 C 360.851 868.723 364.127 857.382 363.278 857.212 C 358.559 856.212 354.579 854.925 350.338 852.526 C 350.338 851.866 285.871 816.909 282.951 814.647 C 281.216 813.329 256.055 794.792 253.776 792.714 C 253.016 792.021 233.812 772.371 233.026 771.776 C 226.392 766.222 223.425 756.891 222.338 748.526 C 222.272 745.89 222.242 743.285 222.276 740.651 C 222.28 739.963 222.285 739.274 222.289 738.565 C 222.299 737.105 337.707 709.092 338.047 707.392 C 337.057 707.062 346.901 705.518 347.921 705.178 C 348.63 705.846 351.093 705.719 352.3 706.402 C 356.647 707.991 357.969 707.801 359.975 712.082 C 360.789 714.331 364.078 726.287 364.324 727.071 C 365.315 730.231 385.558 787.154 385.812 787.909 C 386.449 789.931 386.985 791.954 387.476 794.016 C 381.825 793.388 354.812 780.327 352.226 778.703 C 347.771 776.085 318.824 765.12 311.617 761.273 C 303.55 756.613 298.901 756.916 297.659 752.255 C 295.083 751.133 290.915 749.833 290.353 749.827 Z" style="fill: rgb(167, 38, 29);" id="left leg in shadow"/>
      <path d="M 324.546 698.462 C 328.605 699.682 332.696 700.784 336.783 701.903 C 344.362 703.992 344.362 703.992 347.846 705.153 C 347.516 706.803 347.186 708.453 346.846 710.153 C 346.186 710.153 345.526 710.153 344.846 710.153 C 344.465 725.735 345.023 739.751 349.096 754.841 C 349.835 758.105 349.834 759.989 348.846 763.153 C 339.74 762.356 330.707 761.087 321.682 759.649 C 312.793 758.276 290.095 756.486 289.167 756.419 C 286.846 756.153 286.846 756.153 283.846 755.153 C 283.846 755.813 283.846 756.473 283.846 757.153 C 292.466 757.976 306.971 764.023 307.529 764.313 C 322.564 772.137 326.499 772.682 329.846 778.153 C 329.846 778.813 353.258 828.265 355.846 833.153 C 351.198 832.535 319.346 816.403 314.846 814.153 C 314.846 813.493 245.014 773.646 240.846 770.153 C 240.846 769.493 226.246 759.524 224.846 748.153 C 221.987 739.578 223.12 728.31 226.846 720.153 C 233.152 708.47 242.72 697.843 255.51 693.751 C 277.091 687.78 303.453 692.01 324.546 698.462 Z" style="fill: rgb(223, 43, 29);" id="thigh left"/>
      <path d="M 325.826 701.022 C 329.884 702.241 345.641 706.551 349.125 707.713 C 349.125 708.373 348.671 710.849 348.671 711.529 C 337.362 708.825 336.762 709.621 321.027 706.296 C 305.593 703.035 302.367 702.675 281.991 701.224 C 257.629 699.489 238.074 719.347 237.125 734.713 C 234.524 735.006 226.92 734.748 226.125 734.713 C 225.126 727.385 228.244 721.794 232.125 715.713 C 254.656 686.727 293.811 691.229 325.826 701.022 Z" id="left back leg higlight" style="fill: rgb(234, 64, 52);"/>
    </g>
  </g>
  <path d="M 716.178 174.001 C 716.178 174.331 716.178 174.661 716.178 175.001 C 708.882 175.252 708.882 175.252 705.492 174.042 C 698.999 172.002 692.064 171.886 685.303 171.376 C 684.453 171.311 683.603 171.246 682.727 171.179 C 666.22 169.958 649.726 169.671 633.178 169.626 C 632.011 169.618 630.844 169.61 629.643 169.602 C 609.372 169.496 589.422 170.774 569.718 175.816 C 563.547 177.355 563.547 177.355 560.178 176.001 C 560.178 175.341 560.178 174.681 560.178 174.001 C 575.381 169.629 590.409 165.611 606.178 164.001 C 607.513 163.864 607.513 163.864 608.875 163.724 C 641.098 160.84 686.783 157.907 716.178 174.001 Z" id="head ref" style="fill: rgb(216, 96, 87);"/>
  <g id="nose" transform="matrix(1, 0, 0, 1, -387.6571407863072, -115.39317493726571)">
    <path d="M 976.238 445.66 C 980.11 447.01 982.717 448.954 985.175 452.285 C 988.248 456.739 988.321 460.38 987.522 467.162 C 981.71 485.084 967.767 474.197 966.144 469.004 C 963.431 464.121 961.957 459.282 962.238 453.66 C 964.843 446.497 968.813 444.57 976.238 445.66 Z" id="left nose" style="fill: rgb(208, 96, 88);"/>
    <path d="M 968.238 452.66 C 972.935 452.121 975.131 451.977 979.175 454.473 C 982.188 457.668 982.539 466.307 982.566 467.187 C 984.381 473.529 975.153 475.183 971.538 471.105 C 967.551 466.452 966.137 463.926 966.007 457.633 C 966.238 455.66 966.238 455.66 968.238 452.66 Z" fill="#1A2C34" id="right nostril"/>
    <path d="M 1083.488 447.473 C 1086.208 449.637 1087.902 451.236 1088.714 454.684 C 1089.247 463.12 1085.192 469.143 1080.238 475.661 C 1077.717 477.387 1057.077 482.642 1061.812 460.454 C 1062.681 454.754 1066.064 450.484 1070.238 446.661 C 1074.979 444.862 1079.071 445.01 1083.488 447.473 Z" id="right nose color" style="fill: rgb(208, 96, 88);"/>
    <path d="M 1080.238 452.66 C 1080.898 452.99 1081.558 453.32 1082.238 453.66 C 1083.074 461.191 1080.591 465.593 1076.238 471.66 C 1074.238 473.66 1074.238 473.66 1071.3 474.035 C 1068.238 473.66 1068.238 473.66 1066.363 472.16 C 1064.775 468.632 1064.571 465.42 1065.238 461.66 C 1067.05 458.348 1067.05 458.348 1069.238 455.66 C 1069.65 455.041 1070.063 454.423 1070.488 453.785 C 1073.554 451.814 1076.669 452.434 1080.238 452.66 Z" fill="#142620" id="left nostril"/>
  </g>
  <path d="M 846.311 778.513 C 846.636 778.513 855.377 768.359 855.844 768.823 C 857.585 770.553 866.255 765.434 867.951 768.125 C 876.572 762.234 864.934 785.064 868.222 787.124 C 870.433 788.509 894.294 785.139 904.654 776.674 C 912.904 778.467 964.669 788.899 961.105 789.291 C 961.105 788.961 1020.089 802.794 1017.643 804.166 C 1028.819 802.168 1039.579 830.45 1040.676 830.457 C 1037.296 828.905 1037.404 829.743 1036.031 827.953 C 1018.033 804.493 1047.935 820.896 1056.657 828.077 C 1068.271 837.639 1063.376 858.287 1059.031 868.953 C 1057.949 871.609 1054.85 873.429 1052.031 873.953 C 1042.283 875.765 1031.986 878.08 1022.343 875.774 C 1002.173 870.951 1008.937 863.815 1001.031 853.953 C 1000.317 853.062 998.805 853.428 997.718 853.078 C 990.353 850.706 983.119 847.916 975.679 845.789 C 967.139 843.348 958.393 841.687 949.814 839.385 C 945.769 838.3 941.826 836.861 937.823 835.631 C 935.732 834.988 933.641 834.343 931.531 833.766 C 930.376 833.45 927.206 832.084 928.031 832.953 C 933.422 838.631 942.889 842.613 949.031 846.953 C 959.365 854.254 964.66 858.479 977.937 863.903 C 998.57 872.331 1010.837 864.849 1005.363 894.565 C 1001.93 913.201 969.014 910.289 962.138 910.202 C 955.25 910.115 946.422 886.282 940.386 878.995 C 925.066 860.499 890.737 857.887 882.459 862.334 C 879.602 863.869 884.782 875.31 888.023 877.694 C 931.12 909.4 923.985 924.345 915.938 933.521 C 907.165 943.525 877.602 953.806 854.538 927.502 C 849.716 922.003 856.929 877.663 812.79 872.183 C 812.474 872.592 807.112 887.549 806.748 889.539 C 805.186 898.07 810.169 905.551 814.628 917.934 C 824.271 944.713 767.291 949.512 754.988 934.878 C 744.515 922.421 753.512 908.159 754.876 902.445 C 755.095 901.528 770.218 889.918 770.218 886.9 C 770.218 879.584 768.188 861.048 764.576 854.686 C 762.627 851.254 732.914 859.426 730.994 860.327 C 730.297 860.654 714.35 882.839 707.833 885.864 C 696.081 891.318 693.854 891.627 680.066 887.352 C 663.666 882.267 660.258 841.165 685.499 843.062 C 689.908 842.794 699.767 839.011 699.767 839.011 C 706.86 835.252 710.899 827.905 717.031 823.01 C 722.587 818.575 734.632 810.967 734.632 810.967 L 741.6 791.383 C 714.015 805.605 712.981 803.599 703.329 805.321 C 681.733 809.174 631.054 825.345 548.243 803.191 C 534.74 799.579 532.427 802.739 528.182 803.432 C 524.596 804.017 534.294 811.589 536.468 814.5 C 539.283 818.269 568.088 835.131 578.866 840.492 C 584.38 843.235 591.516 841.031 595.615 845.124 C 603.882 853.379 609.275 868.015 605.007 878.89 C 601.717 887.273 586.109 892.461 581.997 893.045 C 566.125 895.299 558.518 891.495 549.594 883.701 C 543.26 878.17 546.824 862.592 540.612 858.662 C 532.164 853.317 512.418 862.879 501.031 863.953 C 489.743 865.018 501.081 886.664 500.031 897.953 C 499.738 901.102 504.051 907.551 504.271 912.642 C 504.55 919.095 502.934 925.073 500.525 931.654 C 499.316 934.959 491.476 939.373 485.896 940.639 C 476.753 942.714 466.458 943.006 457.98 937.544 C 442.032 927.27 441.957 915.661 450.551 894.979 C 454.095 886.451 447.802 875.189 443.325 875.187 C 439.256 875.185 429.589 877.584 422.133 890.573 C 417.941 897.875 406.898 904.312 405.692 915.632 C 404.307 928.638 395.386 943.735 392.432 946.021 C 371.476 962.242 344.197 929.632 348.834 934.292 C 349.304 934.765 342.326 924.065 342.214 923.017 C 341.255 914.068 343.501 906.105 346.351 897.568 C 348.343 891.601 367.893 888.675 369.832 886.201 C 371.85 883.627 380.577 866.493 377.775 864.806 C 367.426 858.574 346.453 867.779 324.114 877.632 C 323.409 877.943 312.622 898.732 306.523 904.699 C 303.391 907.763 281.541 911.085 281.541 911.085 C 281.541 911.085 259.35 906.85 256.211 891.076 C 251.479 867.298 284.104 864.524 293.008 857.223 C 300.92 850.736 339.401 831.858 333.126 829.179 C 328.12 827.042 280.026 840.032 271.719 842.709 C 257.024 847.445 243.686 866.139 226.124 867.797 C 198.74 870.383 192.185 852.721 191.663 850.58 C 188.416 837.252 200.178 829.24 205.573 828.109 C 208.241 827.827 239.463 819.192 239.463 819.192 C 230.754 823.372 228.61 808.121 234.771 804.024 C 241.771 799.369 241.438 804.28 250.424 799.432 C 283.982 781.326 340.828 784.814 339.894 784.849 C 336.207 784.724 394.973 784.454 399.631 785.659 C 399.631 786.319 405.961 773.184 405.286 770.177 C 403.1 763.212 400.639 756.371 397.815 749.559 C 397.476 748.713 395.403 741.909 395.573 740.62 C 395.179 739.197 394.825 737.766 394.523 736.326 C 394.319 735.353 400.122 734.513 400.802 734.513 C 408.327 748.502 413.05 765.558 421.11 773.991 C 423.856 776.864 420.106 782.874 419.998 782.95 C 416.613 785.341 490.533 785.852 482.978 782.846 C 478.149 780.925 476.62 778.064 472.905 774.43 C 471.044 772.609 479.357 765.707 478.969 751.019 C 478.38 728.748 437.137 630.959 436.169 627.481 C 436.095 627.215 438.106 624.892 437.547 625.427 C 436.26 626.658 499.11 579.754 499.031 580.953 C 498.875 583.34 497.692 585.554 496.781 587.766 C 490.417 603.217 493.206 617.434 477.031 633.953 C 471.379 639.725 462.373 643.757 460.414 651.594 C 456.326 667.947 482.396 735.579 482.98 737.957 C 485.131 746.721 483.768 756.017 485.031 764.953 C 485.118 765.57 522.268 782.421 525.099 784.003 C 537.189 790.759 558.572 797.159 563.355 797.918 C 606.682 804.797 637.782 810.339 673.317 802.47 C 677.527 801.538 754.229 774.164 774.031 753.953 C 778.909 748.975 799.152 722.797 804.907 683.759 C 809.281 654.091 805.372 648.523 792.091 629.432 C 782.053 615.004 784.984 579.168 784.984 579.168 C 784.984 579.168 835.93 619.153 837.72 623.021 C 838.521 624.752 839.059 633.643 838.484 635.461 C 835.879 643.701 833.329 651.962 830.492 660.125 C 822.092 684.3 810.877 707.614 804.777 732.469 C 801.957 743.959 804.249 756.124 804.031 767.953 C 804 769.619 805.458 772.092 804.031 772.953 C 790.649 781.022 867.735 802.611 852.311 786.513 C 851.362 785.605 850.413 784.698 849.436 783.763 C 847.311 781.513 847.311 781.513 846.311 778.513 Z M 851.793 782.622 C 851.798 782.63 851.813 782.644 851.839 782.663 C 851.824 782.649 851.808 782.636 851.793 782.622 Z" fill="#161E19" id="ft outlin"/>
  <g id="front left ft" transform="matrix(1, 0, 0, 1, -1.8812859338713679, -82.30160645099886)">
    <path d="M 423.419 856.257 C 427.477 859.943 459.398 877.417 476.127 851.053 C 482.29 855.635 479.217 858.013 484.451 860.105 C 487.861 861.555 497.018 865.752 500.854 867.472 C 510.139 871.635 525.563 887.456 525.747 889.624 C 533.066 898.73 538.871 906.817 550.157 913.37 C 552.977 915.068 563.554 923.115 565.04 924.321 C 570.072 928.163 573.881 929.321 580.219 929.448 C 585.636 929.826 589.566 932.352 593.184 936.249 C 596.462 941.231 596.316 945.762 595.747 951.624 C 593.828 955.723 591.164 957.102 587.184 958.937 C 579.208 961.822 571.738 961.294 563.719 958.866 C 560.393 958.211 557.645 950.497 557.497 943.249 C 557.482 942.512 555.977 937.689 556.054 935.891 C 555.157 935.61 549.844 932.685 547.247 931.249 C 541 928.069 525.658 924.044 524.583 923.745 C 513.156 920.868 501.472 920.886 489.747 920.624 C 487.68 928.661 486.821 936.793 485.942 945.025 C 485.686 947.421 485.423 949.816 485.159 952.212 C 484.233 960.674 483.391 969.135 482.747 977.624 C 491.996 983.296 494.674 982.578 497.747 993.624 C 498.678 1010.116 487.344 1014.294 480.77 1014.897 C 471.77 1015.148 466.816 1014.168 460.165 1008.206 C 456.886 1004.548 456.214 1001.069 456.278 996.284 C 457.219 990.943 466.067 979.624 466.747 979.624 C 465.408 973.114 460.888 958.87 460.575 957.966 C 458.606 952.495 451.747 941.624 451.747 939.624 C 441.684 940.423 433.639 947.403 425.127 952.878 C 418.017 955.504 399.424 968.004 396.508 983.905 C 396.444 986.416 396.434 988.924 396.434 991.437 C 396.223 999.315 395.661 1005.811 389.747 1011.624 C 382.503 1016.754 374.41 1017.424 365.747 1016.624 C 360.343 1015.02 356.867 1012.368 353.747 1007.624 C 351.586 1003.303 352.387 998.038 353.809 993.562 C 356.834 986.471 361.906 982.863 368.747 979.687 C 385.051 971.951 390.771 952.401 396.747 936.624 C 376.836 932.11 355.238 935.921 336.747 943.624 C 334.497 944.438 332.247 945.251 329.997 946.062 C 322.514 948.948 315.064 952.589 310.747 959.624 C 310.102 961.22 309.479 962.826 308.872 964.437 C 306.146 971.472 303.15 976.91 296.059 980.124 C 289.728 982.234 283.419 983.241 277.157 980.483 C 272.544 977.642 269.378 974.952 267.747 969.624 C 266.974 964.989 267.606 962.309 270.184 958.499 C 273.699 954.287 277.469 951.278 282.747 949.624 C 285.571 949.64 285.571 949.64 288.559 949.874 C 296.594 950.251 300.86 945.525 306.747 940.624 C 308.453 939.464 321.125 931.456 325.684 928.499 C 326.396 928.038 345.981 915.315 347.714 914.187 C 351.981 911.412 356.256 908.654 360.559 905.937 C 372.442 898.38 383.81 890.503 394.747 881.624 C 395.818 880.761 418.032 861.45 419.048 860.62 C 421.747 858.624 423.419 856.937 423.419 856.257 Z" id="ft left" style="fill: rgb(254, 223, 0);"/>
    <path d="M 386.937 912.711 C 371.559 924.933 342.492 933.11 322.854 943.163 C 309.438 950.031 299.568 971.4 282.476 967.016 C 280.265 966.449 277.948 962.795 279.296 960.953 C 281.554 957.867 286.587 958.537 289.976 956.766 C 303.323 949.79 315.062 938.88 327.789 930.641 C 330.05 929.177 358.762 909.668 362.938 907.025 C 374.821 899.468 386.189 891.592 397.126 882.713 C 398.197 881.849 413.126 869.393 413.126 868.713 C 414.886 867.132 424.786 859.053 425.126 858.713 C 425.786 858.713 425.215 858.882 424.126 867.713 C 420.415 883.864 408.949 896.081 396.126 905.713 C 395.294 906.343 388.725 911.29 386.937 912.711 Z" fill="#FCE674" id="left foot reflection"/>
    <path d="M 425.126 925.713 C 425.621 926.703 425.621 926.703 426.126 927.713 C 425.165 929.99 421.094 937.806 420.126 940.713 C 419.466 940.713 410.055 957.057 408.126 961.713 C 408.786 961.713 409.446 961.713 410.126 961.713 C 410.786 961.053 416.621 956.558 416.876 955.963 C 421.051 948.448 429.997 945.18 437.376 941.463 C 438.435 940.917 444.773 937.713 448.126 937.713 C 450.136 937.97 450.879 938.961 451.126 939.713 C 450.326 939.92 449.527 940.128 448.704 940.342 C 441.243 942.434 432.418 947.669 432.418 948.349 C 431.019 949.724 422.727 954.088 420.751 955.713 C 406.054 967.898 406.054 967.898 398.887 984.993 C 398.823 987.505 398.813 990.013 398.813 992.525 C 398.602 1000.404 398.04 1006.9 392.126 1012.713 C 384.882 1017.843 376.789 1018.512 368.126 1017.713 C 362.721 1016.109 359.246 1013.456 356.126 1008.713 C 354.217 1004.895 354.658 1000.476 355.727 996.443 C 357.695 990.928 357.695 990.928 360.126 989.713 C 362.105 989.85 364.084 989.997 366.063 990.15 C 374.056 990.194 378.543 987.232 384.126 981.713 C 387.414 977.798 390.009 973.559 392.649 969.193 C 397.155 961.862 402.362 955.35 407.829 948.728 C 410.851 945.066 423.151 928.731 425.126 925.713 Z" id="flft shade 1" style="fill: rgb(200, 175, 0);"/>
    <path d="M 432.126 874.713 C 433.446 874.713 434.766 874.713 436.126 874.713 C 436.126 875.373 436.126 876.033 436.126 876.713 C 437.116 876.713 438.106 876.713 439.126 876.713 C 439.621 878.693 439.621 878.693 440.126 880.713 C 440.786 880.713 441.446 880.713 442.126 880.713 C 442.584 888.472 442.448 893.229 438.126 899.713 C 437.796 900.868 430.656 916.588 429.439 919 C 424.416 928.835 417.964 937.074 410.95 945.553 C 409.841 946.897 406.528 950.921 405.963 951.608 C 400.509 958.322 395.793 965.44 391.126 972.713 C 381.572 987.182 381.572 987.182 373.126 990.713 C 368.74 991.186 364.517 991.079 360.126 990.713 C 362.59 985.215 365.421 983.441 370.876 981.025 C 383.444 974.839 389.353 962.519 394.251 949.9 C 398.291 939.522 403.95 930.084 409.536 920.48 C 418.018 905.714 425.55 890.421 432.126 874.713 Z" id="flft shade 2" style="fill: rgb(255, 235, 91);"/>
    <path d="M 337.331 932.917 C 354.615 926.333 383.132 917.574 378.394 918.167 C 378.394 918.827 378.394 919.487 378.394 920.167 C 375.424 921.157 372.454 922.147 369.394 923.167 C 369.394 923.827 369.394 924.487 369.394 925.167 C 368.404 925.167 367.414 925.167 366.394 925.167 C 366.394 925.827 366.394 926.487 366.394 927.167 C 364.03 927.927 362.703 928.249 360.269 927.604 C 359.65 927.46 359.031 927.315 358.394 927.167 C 357.734 927.827 357.074 928.487 356.394 929.167 C 355.156 929.6 355.156 929.6 353.894 930.042 C 350.904 931.387 350.765 932.332 349.394 935.167 C 347.269 935.917 347.269 935.917 345.394 936.167 C 350.687 936.333 355.404 935.715 360.581 934.667 C 370.353 932.82 379.552 932.653 389.394 934.167 C 389.394 934.497 389.394 934.827 389.394 935.167 C 388.75 935.181 388.107 935.196 387.444 935.211 C 369.18 935.672 353.416 937.076 336.394 944.167 C 334.144 944.981 331.894 945.793 329.644 946.604 C 322.161 949.49 314.711 953.132 310.394 960.167 C 309.749 961.763 309.126 963.368 308.519 964.979 C 305.793 972.015 302.797 977.453 295.706 980.667 C 289.375 982.777 283.066 983.784 276.804 981.026 C 272.191 978.185 269.025 975.495 267.394 970.167 C 266.621 965.532 267.253 962.851 269.831 959.042 C 273.836 954.21 278.594 950.729 284.901 949.796 C 287.161 949.734 289.177 949.722 291.394 950.167 C 292.054 950.827 292.714 951.487 293.394 952.167 C 289.374 956.048 285.128 957.476 279.917 959.139 C 277.4 960.164 276.127 961.113 274.394 963.167 C 279.977 964.374 285.712 964.834 291.394 964.167 C 294.421 962.351 301.945 954.349 303.894 952.417 C 304.806 951.496 309.394 947.847 309.394 947.167 C 317.804 940.709 327.481 936.615 337.331 932.917 Z" fill="#E3721E" id="flft shade 3" style="visibility: hidden;"/>
    <path d="M 464.126 912.713 C 465.133 916.339 465.409 919.847 465.649 923.592 C 466.226 926.161 467.059 927.119 469.126 928.713 C 469.786 928.713 470.446 928.713 471.126 928.713 C 471.126 925.743 471.126 922.773 471.126 919.713 C 471.786 919.383 472.446 919.053 473.126 918.713 C 473.151 919.378 473.176 920.043 473.202 920.729 C 473.318 923.765 473.441 926.801 473.563 929.838 C 473.602 930.884 473.642 931.931 473.682 933.01 C 473.745 934.537 473.745 934.537 473.809 936.095 C 473.846 937.028 473.883 937.96 473.92 938.92 C 474.085 941.751 474.085 941.751 474.626 944.672 C 475.141 947.803 475.332 950.816 475.442 953.986 C 475.505 955.717 475.505 955.717 475.569 957.482 C 475.608 958.672 475.648 959.862 475.688 961.088 C 475.731 962.301 475.774 963.514 475.819 964.763 C 475.925 967.746 476.027 970.729 476.126 973.713 C 476.786 974.043 477.446 974.373 478.126 974.713 C 478.151 974.086 478.177 973.46 478.204 972.814 C 478.26 971.997 478.317 971.18 478.376 970.338 C 478.445 969.12 478.445 969.12 478.516 967.877 C 479.126 965.713 479.126 965.713 481.173 964.424 C 481.817 964.189 482.462 963.954 483.126 963.713 C 483.186 964.772 483.247 965.832 483.309 966.924 C 483.394 968.312 483.478 969.7 483.563 971.088 C 483.602 971.786 483.642 972.485 483.682 973.205 C 483.868 977.086 483.868 977.086 485.126 980.713 C 484.188 983.338 484.188 983.338 483.126 985.713 C 483.786 985.713 484.446 985.713 485.126 985.713 C 487.298 988.46 488.88 990.819 489.813 994.213 C 488.677 998.345 485.714 1000.544 482.126 1002.713 C 478.876 1003.338 478.876 1003.338 476.126 1002.713 C 474.188 1001.275 474.188 1001.275 473.126 998.713 C 473.189 995.66 473.593 992.716 474.126 989.713 C 473.053 990.022 471.981 990.331 470.876 990.65 C 467.126 991.713 467.126 991.713 464.751 992.15 C 464.214 992.336 463.678 992.521 463.126 992.713 C 462.796 993.703 462.466 994.693 462.126 995.713 C 462.857 990.346 463.455 987.119 467.673 983.568 C 470.707 980.036 470.821 977.53 470.626 973.088 C 470.608 972.343 470.59 971.599 470.572 970.832 C 470.278 962.921 469.007 955.189 467.61 947.409 C 466.878 943.334 466.177 939.254 465.484 935.172 C 465.128 933.079 464.766 930.987 464.396 928.896 C 463.516 923.768 462.806 918.919 463.126 913.713 C 463.456 913.383 463.786 913.053 464.126 912.713 Z" fill="#F99127" id="flft shading" style="visibility: hidden;"/>
    <path d="M 543.126 909.713 C 550.389 912.414 556.743 916.782 562.79 921.584 C 571.668 928.725 571.668 928.725 582.688 930.631 C 586.732 930.767 589.87 932.394 593.126 934.713 C 597.866 939.817 598.503 943.195 598.387 950.017 C 598.126 952.713 598.126 952.713 596.751 955.65 C 589.677 961.208 581.961 962.756 573.126 961.713 C 568.225 960.806 565.208 959.967 561.887 956.119 C 559.713 951.915 559.658 948.97 559.876 944.338 C 559.894 943.602 559.912 942.866 559.93 942.107 C 559.977 940.308 560.049 938.51 560.126 936.713 C 558.714 936.252 558.714 936.252 557.274 935.783 C 554.732 934.919 552.925 931.041 550.571 929.773 C 550.571 929.113 551.017 929.077 551.017 928.397 C 556.767 930.272 555.876 932.588 558.126 933.713 C 558.786 931.733 559.446 929.753 560.126 927.713 C 559.105 927.372 559.105 927.372 558.063 927.025 C 554.329 925.357 551.404 923.155 548.126 920.713 C 548.456 919.723 548.786 918.733 549.126 917.713 C 549.786 917.383 550.446 917.053 551.126 916.713 C 550.548 916.375 549.971 916.037 549.376 915.689 C 548.262 915.02 548.262 915.02 547.126 914.338 C 546.383 913.897 545.641 913.456 544.876 913.002 C 544.298 912.576 543.721 912.151 543.126 911.713 C 543.126 911.053 543.126 910.393 543.126 909.713 Z" fill="#E3701F" id="flft toe shade -1" style="visibility: hidden;"/>
  </g>
  <g id="front right ft" transform="matrix(1, 0, 0, 1, -1.8812859338713679, -82.30160645099886)">
    <path d="M 805.872 848.261 C 814.994 869.594 837.283 866.359 853.235 854.515 C 853.73 855.196 853.466 865.095 856.45 867.632 C 858.012 868.987 880.7 887.885 881.494 888.45 C 891.749 895.747 927.126 919.55 933.184 923.937 C 938.365 927.686 943.655 931.233 948.997 934.749 C 963.3 944.177 963.3 944.177 968.747 949.624 C 970.762 949.95 972.785 950.234 974.809 950.499 C 983.278 951.768 989.457 953.641 995.747 959.624 C 997.872 963.874 997.103 968.534 995.684 972.874 C 994.474 982.773 967.477 988.136 960.919 974.546 C 958.529 970.896 956.569 967.743 955.684 963.437 C 954.049 956.786 950.477 953.855 944.934 950.249 C 935.191 944.831 924.386 941.785 913.747 938.624 C 912.944 938.38 912.142 938.135 911.315 937.883 C 897.619 933.83 883.924 934.196 869.747 934.624 C 870.205 936.366 877.61 956.498 878.055 957.464 C 885.463 973.091 900.099 983.826 900.809 984.062 C 905.289 985.563 907.088 987.757 909.747 991.624 C 911.405 996.6 911.835 1001.187 909.653 1006.073 C 906.102 1011.787 902.401 1015.208 895.86 1017.198 C 887.891 1018.804 880.664 1017.939 873.747 1013.624 C 869.117 1010.466 868.316 1011.867 866.539 1003.103 C 865.952 981.497 866.683 982.211 858.747 966.624 C 858.247 965.866 843.367 950.425 842.657 949.808 C 835.319 943.664 825.932 938.219 816.026 938.989 C 807.656 939.812 797.316 969.277 801.747 982.624 C 813.076 994.819 807.647 998.751 806.098 1003.694 C 803.633 1008.563 800.506 1010.414 795.747 1012.624 C 789.826 1014.467 783.194 1014.485 777.372 1012.437 C 773.304 1009.628 769.27 1006.47 767.747 1001.624 C 766.93 994.744 768.49 990.104 772.747 984.624 C 780.094 977.624 778.49 980.512 784.747 977.624 C 784.735 948.949 784.735 948.949 775.747 922.624 C 764.267 916.884 745.736 924.731 734.54 928.334 C 730.854 929.584 727.292 931.022 723.747 932.624 C 723.062 932.881 722.378 933.137 721.673 933.401 C 719.705 934.194 719.705 934.194 717.747 936.624 C 717.231 939.668 717.059 942.564 717.048 945.651 C 716.614 949.933 714.632 952.476 712.059 955.812 C 705.908 960.633 697.194 960.265 689.747 959.624 C 685.641 958.771 682.549 957.266 679.247 954.624 C 676.939 950.008 677.01 945.682 677.747 940.624 C 680.202 935.622 683.744 932.126 688.747 929.624 C 690.809 929.546 692.871 929.486 694.934 929.437 C 701.462 928.99 704.508 927.451 708.747 922.624 C 712.272 918.766 716.339 916.002 720.622 913.062 C 726.375 909.047 732.07 904.977 737.622 900.687 C 738.198 900.251 738.774 899.815 739.367 899.366 C 742.687 896.768 744.821 894.364 746.747 890.624 C 753.118 878.615 760.57 873.712 773.098 869.03 C 777.022 867.518 780.678 865.717 784.403 863.78 C 786.912 862.543 789.452 861.511 792.059 860.499 C 796.495 858.772 802.469 851.664 805.872 848.261 Z" id="ft right" style="fill: rgb(254, 223, 0);"/>
    <path d="M 801.126 860.713 C 800.606 861.417 800.087 862.12 799.551 862.845 C 789.858 876.571 786.322 891.156 785.126 907.713 C 784.136 908.043 783.146 908.373 782.126 908.713 C 780.26 904.009 778.757 899.765 778.126 894.713 C 773.792 895.273 771.037 896.845 767.438 899.275 C 762.327 902.713 739.076 919.871 738.309 920.435 C 735.905 921.842 733.869 922.322 731.126 922.713 C 731.977 918.324 734.6 912.261 738.126 910.713 C 743.497 906.713 753.106 900.393 754.126 899.713 C 756.824 897.233 755.766 894.484 756.126 893.713 C 754.772 892.735 749.972 896.365 748.126 897.713 C 746.605 898.029 746.472 895.665 747.462 894.517 C 748.77 893 749.476 891.053 750.415 889.283 C 756.312 878.489 764.292 874.299 775.477 870.119 C 778.584 868.921 781.485 867.615 784.438 866.088 C 797.942 859.121 797.942 859.121 801.126 860.713 Z" id="frft shadee 8" style="fill: rgb(202, 177, 0);"/>
    <path d="M 843.173 876.752 C 848.052 876.377 855.794 901.712 858.126 906.713 C 863.523 918.286 868.617 929.017 873.563 941.088 C 875.541 945.914 877.216 950.859 879.126 955.713 C 883.242 966.176 897.899 981.096 900.438 984.275 C 901.426 985.512 903.709 988.718 902.126 988.713 C 896.721 988.694 890.446 989.003 886.2 985.658 C 878.711 979.758 874.511 970.58 869.126 962.713 C 868.749 962.163 862.127 952.637 859.751 948.525 C 858.548 946.443 846.27 924.163 844.929 921.051 C 842.641 915.744 837.436 905.303 837.126 904.713 C 835.11 900.87 832.77 885.465 833.126 882.713 C 833.254 881.721 835.229 883.154 836.126 882.713 C 838.887 881.355 840.695 876.943 843.173 876.752 Z" id="fr ft ref 2" style="fill: rgb(255, 240, 130);"/>
    <path d="M 869.126 930.713 C 870.116 931.208 870.116 931.208 871.126 931.713 C 871.126 932.373 871.126 933.033 871.126 933.713 C 872.201 933.384 873.276 933.055 874.383 932.717 C 879.909 931.334 885.34 931.532 891.001 931.65 C 893.06 931.685 895.12 931.715 897.18 931.74 C 898.534 931.767 898.534 931.767 899.914 931.794 C 902.168 931.864 902.168 931.864 904.126 930.713 C 910.27 930.201 913.195 930.679 918.126 934.713 C 919.007 935.718 919.007 935.718 919.907 936.744 C 922.65 939.178 924.814 939.688 928.376 940.463 C 929.453 940.705 930.531 940.947 931.641 941.197 C 932.871 941.452 932.871 941.452 934.126 941.713 C 934.126 942.373 934.126 943.033 934.126 943.713 C 935.136 943.981 936.147 944.249 937.188 944.525 C 944.841 946.78 949.356 949.485 955.11 955.068 C 957.079 957.029 957.079 957.029 960.126 956.713 C 960.524 957.995 960.524 957.995 960.93 959.303 C 961.284 960.407 961.637 961.512 962.001 962.65 C 962.349 963.752 962.697 964.854 963.055 965.99 C 963.826 968.841 963.826 968.841 966.126 969.713 C 966.786 969.383 967.446 969.053 968.126 968.713 C 968.72 965.877 969.189 963.565 969.126 960.713 C 967.813 958.983 967.813 958.983 966.126 957.713 C 965.438 955.025 962.193 954.9 961.881 952.588 C 962.541 952.918 964.2 954.871 964.88 955.211 C 964.88 955.871 967.126 956.406 967.126 957.086 C 969.102 957.584 966.281 959.755 970.252 958.959 C 970.252 960.609 971.126 960.013 971.126 961.713 C 971.765 962.022 972.404 962.331 973.063 962.65 C 975.126 963.713 975.126 963.713 976.126 964.713 C 977.769 964.811 979.417 964.842 981.063 964.838 C 981.959 964.84 982.855 964.843 983.778 964.845 C 986.147 964.867 986.147 964.867 988.126 963.713 C 988.778 961.688 988.778 961.688 989.126 959.713 C 988.156 959.61 987.187 959.506 986.188 959.4 C 983.134 958.95 980.213 958.272 977.251 957.4 C 976.49 957.177 975.73 956.954 974.946 956.724 C 973.126 955.713 973.126 955.713 972.368 953.607 C 972.248 952.669 972.248 952.669 972.126 951.713 C 980.43 951.243 988.695 952.27 995.251 957.775 C 998.34 960.68 999.083 962.069 999.376 966.463 C 999.294 970.578 998.543 973.282 996.126 976.713 C 990.624 980.784 985.548 981.899 978.813 982.025 C 976.87 982.081 976.87 982.081 974.887 982.138 C 969.674 981.548 966.73 979.536 963.298 975.635 C 960.908 971.985 958.948 968.832 958.063 964.525 C 956.428 957.875 952.856 954.943 947.313 951.338 C 937.569 945.919 926.765 942.879 916.126 939.713 C 915.329 939.468 914.531 939.224 913.71 938.972 C 899.716 934.794 885.612 935.293 871.126 935.713 C 870.466 934.063 869.806 932.413 869.126 930.713 Z" fill="#E36D26" id="frft shade 3" style="visibility: hidden;"/>
    <path d="M 755.126 892.713 C 756.116 893.703 756.116 893.703 757.126 894.713 C 756.466 895.373 755.806 896.033 755.126 896.713 C 754.981 897.393 754.837 898.074 754.688 898.775 C 754.41 899.734 754.41 899.734 754.126 900.713 C 753.136 901.043 751.126 903.033 751.126 903.713 C 749.476 904.043 746.126 906.033 746.126 906.713 C 744.649 907.834 744.649 907.834 742.501 909.15 C 738.161 911.936 734.148 914.997 730.126 918.213 C 715.671 929.713 715.671 929.713 712.126 929.713 C 712.373 930.62 712.621 931.528 712.876 932.463 C 713.126 935.713 713.126 935.713 711.501 937.775 C 710.325 938.734 710.325 938.734 709.126 939.713 C 708.28 940.579 707.434 941.445 706.563 942.338 C 703.453 945.368 701.422 946.932 697.114 947.127 C 695.978 947.185 695.978 947.185 694.819 947.244 C 694.033 947.275 693.248 947.306 692.438 947.338 C 691.242 947.396 691.242 947.396 690.022 947.455 C 688.057 947.549 686.091 947.632 684.126 947.713 C 683.438 950.066 683.438 950.066 683.126 952.713 C 685.363 956.069 686.059 956.293 689.751 957.4 C 690.568 957.652 691.385 957.903 692.227 958.162 C 692.854 958.344 693.48 958.525 694.126 958.713 C 694.126 959.043 694.126 959.373 694.126 959.713 C 688.83 960.217 686.259 959 682.126 955.713 C 679.146 951.243 679.517 946.953 680.126 941.713 C 682.581 936.71 686.123 933.214 691.126 930.713 C 693.188 930.635 695.25 930.575 697.313 930.525 C 703.841 930.078 706.887 928.54 711.126 923.713 C 714.667 919.836 718.762 917.046 723.063 914.088 C 728.526 910.296 733.859 906.414 739.063 902.275 C 744.132 898.311 749.215 895.248 755.126 892.713 Z" fill="#E88D27" id="frft shadee" style="visibility: hidden;"/>
    <path d="M 849.126 860.713 C 853.334 860.938 855.6 866.112 858.958 868.658 C 889.5 891.816 920.785 913.042 951.376 935.838 C 959.109 941.601 967.007 947.207 974.126 953.713 C 974.676 954.216 978.211 957.425 978.211 957.425 C 978.211 957.425 985.009 957.036 989.126 959.713 C 990.551 960.639 989.669 964.001 988.126 964.713 C 984.482 966.395 979.946 966.946 976.126 965.713 C 972.695 964.605 972.4 960.66 969.876 958.086 C 969.138 957.333 965.757 954.301 964.88 953.716 C 961.397 951.394 961.989 950.296 960.126 947.713 C 958.115 944.924 953.918 944.753 950.813 943.275 C 932.27 934.452 915.151 928.182 899.126 918.713 C 888.053 912.17 872.738 906.474 864.126 895.713 C 857.255 887.128 846.567 860.576 849.126 860.713 Z" fill="#FCDB6C" id="fr ft ref 1" style=""/>
  </g>
  <g id="back right ft" transform="matrix(1, 0, 0, 1, -1.8812859338713679, -82.30160645099886)">
    <path d="M 904.276 863.776 C 905.47 863.909 924.099 866.581 932.151 868.542 C 939.138 870.239 978.55 878.234 980.764 878.443 C 988.288 879.141 995.785 879.673 1003.339 879.901 C 1010.147 880.222 1014.429 881.617 1019.339 886.526 C 1025.352 890.833 1025.131 896.799 1018.816 898.311 C 1012.449 899.952 1008.363 898.349 1004.339 894.526 C 1001.674 894.089 999.026 893.804 996.339 893.526 C 996.339 892.866 974.38 890.425 963.339 890.526 C 965.52 892.708 970.012 892.656 973.026 893.214 C 980.386 894.623 987.573 896.339 994.776 898.401 C 1004.774 901.261 1014.866 903.371 1025.09 905.258 C 1035.534 907.278 1046.426 909.645 1053.182 918.487 C 1055.068 921.813 1055.136 923.804 1054.339 927.526 C 1051.951 933.288 1048.902 936.364 1043.206 938.835 C 1036.463 941.331 1029.654 941.257 1022.651 939.714 C 1016.448 935.617 1012.381 929.265 1007.979 923.362 C 1000.08 914.879 984.406 912.697 973.472 910.045 C 971.673 909.607 920.561 900.25 918.533 900.009 C 899.657 897.769 901.09 895.977 892.983 890.143 C 889.88 887.91 871.379 871.501 869.339 869.526 C 871.057 865.675 871.057 865.675 873.589 864.339 C 883.725 861.344 893.938 862.621 904.276 863.776 Z" id="bck right ft" style="fill: rgb(254, 223, 0);"/>
    <path d="M 957.789 893.704 C 971.734 893.841 985.291 897.857 998.609 901.661 C 1007.71 904.206 1016.938 906.034 1026.228 907.748 C 1036.672 909.769 1047.564 912.135 1054.32 920.977 C 1056.206 924.303 1056.274 926.295 1055.477 930.016 C 1053.089 935.779 1050.04 938.854 1044.344 941.325 C 1037.601 943.822 1030.792 943.747 1023.789 942.204 C 1017.586 938.108 1013.519 931.755 1009.117 925.852 C 1001.218 917.369 985.544 915.187 974.61 912.535 C 972.811 912.098 971.016 911.641 969.223 911.18 C 951.623 906.822 927.995 901.511 910.071 898.893 C 909.741 897.243 914.817 898.716 914.477 897.016 C 918.652 896.026 922.645 895.834 926.93 895.735 C 927.631 895.717 928.331 895.698 929.053 895.679 C 932.037 895.601 935.02 895.533 938.004 895.464 C 940.188 895.413 942.371 895.355 944.555 895.298 C 946.51 895.252 946.51 895.252 948.505 895.206 C 951.948 894.986 954.077 893.794 957.789 893.704 Z" id="bck right shade" style="fill: rgb(190, 167, 2);"/>
    <path d="M 956.067 892.615 C 957.859 892.632 957.859 892.632 959.688 892.65 C 961.484 892.663 961.484 892.663 963.317 892.677 C 964.243 892.689 965.17 892.7 966.125 892.712 C 966.125 893.042 966.125 893.372 966.125 893.712 C 963.485 894.042 960.845 894.372 958.125 894.712 C 958.936 894.877 958.936 894.877 959.764 895.044 C 1003.042 903.968 1003.042 903.968 1016.125 914.712 C 1016.62 916.197 1016.62 916.197 1017.125 917.712 C 1013.165 918.207 1013.165 918.207 1009.125 918.712 C 1009.125 919.372 1009.125 920.032 1009.125 920.712 C 1009.745 920.964 1010.365 921.215 1011.004 921.474 C 1013.504 922.934 1013.971 923.893 1015.063 926.525 C 1017.678 932.12 1021.139 935.952 1027.047 938.212 C 1033.686 939.81 1042.851 939.635 1049.125 936.712 C 1050.358 934.799 1050.358 934.799 1051.125 932.712 C 1051.455 932.052 1051.785 931.392 1052.125 930.712 C 1052.196 928.505 1052.209 926.296 1052.188 924.087 C 1052.179 922.899 1052.17 921.71 1052.16 920.486 C 1052.149 919.571 1052.137 918.655 1052.125 917.712 C 1056.055 921.306 1056.055 921.306 1056.688 924.962 C 1055.961 929.808 1054.424 933.082 1051.125 936.712 C 1043.872 941.623 1036.703 942.26 1028.125 941.712 C 1019.39 939.788 1014.829 931.338 1009.766 924.548 C 1001.867 916.065 986.193 913.883 975.258 911.231 C 973.459 910.794 971.665 910.337 969.871 909.876 C 952.272 905.518 929.004 901.288 911.079 898.67 C 910.749 897.02 915.465 897.412 915.125 895.712 C 919.301 894.722 923.293 894.53 927.578 894.431 C 928.279 894.413 928.98 894.394 929.702 894.375 C 932.685 894.297 935.669 894.229 938.652 894.16 C 940.836 894.109 943.02 894.051 945.203 893.994 C 947.159 893.948 947.159 893.948 949.153 893.902 C 952.539 893.686 952.685 892.727 956.067 892.615 Z" id="rght bck ft shade" style="fill: rgb(216, 189, 0);"/>
  </g>
  <g id="back left ft" transform="matrix(1, 0, 0, 1, -1.8812859338713679, -82.30160645099886)">
    <path d="M 242.716 896.648 C 237.836 886.899 243.565 883.869 251.772 883.059 C 269.137 881.346 314.361 870.379 311.641 871.059 C 312.923 870.705 358.259 862.863 362.446 863.725 C 388.068 869.002 390.558 858.891 402.025 866.81 C 397.882 875.756 370.338 893.846 370.338 894.526 C 360.371 903.254 351.898 904.721 339.026 903.964 C 336.072 903.839 333.117 903.739 330.162 903.647 C 329.437 903.622 328.712 903.596 327.964 903.57 C 305.807 902.99 274.266 908.942 256.338 922.526 C 253.109 925.684 250.202 929.037 247.338 932.526 C 242.625 937.947 237.589 941.017 230.404 941.878 C 224.07 942.055 217.999 941.573 212.338 938.526 C 205.288 937.242 203.529 921.659 208.029 917.315 C 213.907 909.675 219.162 910.57 224.838 908.901 C 225.542 908.687 295.067 889.21 306.338 886.589 C 307.227 886.377 308.131 886.221 309.031 885.948 C 311.159 885.303 275.923 884.036 257.988 896.894 C 248.864 903.435 242.716 896.648 242.716 896.648 Z" id="lft back ft shade" style="fill: rgb(254, 223, 0);"/>
    <path d="M 326.126 885.713 C 326.126 886.703 326.126 887.693 326.126 888.713 C 325.119 888.932 324.112 889.151 323.075 889.377 C 312.785 891.674 302.788 894.542 292.778 897.845 C 289.919 898.78 287.052 899.688 284.184 900.595 C 272.06 904.476 260.392 908.75 249.126 914.713 C 248.504 915.041 247.883 915.368 247.242 915.706 C 243.795 917.592 241.02 919.498 238.376 922.4 C 235.196 925.869 233.261 926.636 228.438 926.963 C 223.3 926.896 218.347 925.618 214.395 922.228 C 213.126 920.713 213.126 920.713 213.126 918.775 C 215.106 914.691 218.56 912.939 222.657 911.299 C 223.975 910.881 225.299 910.478 226.626 910.088 C 227.329 909.873 228.032 909.659 228.757 909.438 C 234.162 907.85 239.53 906.967 245.114 906.232 C 249.082 905.548 252.622 904.228 256.364 902.771 C 260.832 901.059 265.402 899.712 269.987 898.35 C 271.557 897.882 273.126 897.41 274.694 896.934 C 285.766 893.582 296.855 890.396 308.126 887.775 C 309.014 887.564 309.903 887.353 310.819 887.135 C 316.046 885.96 320.769 885.508 326.126 885.713 Z" id="backft shadee" style="fill: rgb(255, 240, 132);"/>
  </g>
</svg>