<?xml version="1.0" encoding="utf-8"?>
<svg viewBox="192.9864 185.9437 875.0799 846.9415" width="875.0799" height="846.9415" xmlns="http://www.w3.org/2000/svg">
  <path d="M 415.625 190.178 C 432.862 185.214 441.382 185.721 449.815 186.302 C 481.461 188.483 508.831 198.816 533.747 217.624 C 534.533 218.172 544.832 227.234 547.434 229.624 C 548.407 230.511 552.747 234.624 553.747 236.624 C 558.815 236.809 563.158 236.456 568.075 235.261 C 573.926 233.867 579.843 232.767 585.747 231.624 C 586.69 231.437 587.634 231.25 588.606 231.058 C 633.088 222.894 677.954 228.386 721.747 237.624 C 721.747 236.964 721.747 236.304 721.747 235.624 C 723.215 234.179 723.215 234.179 725.247 232.499 C 728.085 230.104 730.671 227.667 733.184 224.937 C 751.322 206.622 777.814 194.093 802.747 188.624 C 803.545 188.448 804.343 188.271 805.166 188.089 C 812.526 186.591 819.685 186.239 827.184 186.249 C 829.015 186.251 829.015 186.251 830.883 186.252 C 863.233 186.67 894.529 200.264 917.747 222.624 C 918.48 223.319 918.48 223.319 919.228 224.028 C 930.057 234.313 937.586 245.557 944.747 258.624 C 945.234 259.502 945.721 260.38 946.223 261.284 C 949.076 266.666 951.057 272.1 952.7 277.964 C 953.414 280.462 954.221 282.935 955.106 285.378 C 958.922 296.565 959.236 307.548 959.247 319.249 C 959.251 320.029 959.255 320.809 959.26 321.612 C 959.328 350.61 950.761 381.578 930.981 403.589 C 929.554 405.546 929.554 405.546 929.743 407.859 C 931.208 411.895 933.486 415.279 935.809 418.874 C 939.666 425.015 943.217 431.187 946.309 437.749 C 946.792 438.759 946.792 438.759 947.284 439.789 C 950.739 447.309 952.1 454.237 951.997 462.499 C 951.989 463.291 951.982 464.084 951.974 464.9 C 951.531 489.035 937.2 508.509 920.575 524.881 C 904.846 539.882 886.158 552.623 866.852 562.495 C 862.593 564.678 858.436 567.013 854.309 569.437 C 853.676 569.798 853.043 570.159 852.39 570.531 C 849.094 572.492 846.913 573.901 845.747 577.624 C 843.815 585.642 844.733 591.323 848.762 598.448 C 849.417 599.496 850.072 600.544 850.747 601.624 C 851.097 602.184 851.447 602.745 851.807 603.322 C 858.101 613.285 865.111 622.774 872.051 632.291 C 873.772 634.659 875.48 637.037 877.184 639.417 C 882.282 646.533 887.394 653.58 892.938 660.359 C 894.877 662.788 896.689 665.283 898.497 667.812 C 902.821 673.829 907.455 679.577 912.11 685.339 C 914.041 687.731 915.927 690.146 917.747 692.624 C 924.523 691.749 930.977 690.342 937.497 688.312 C 948.41 684.964 959.532 682.709 970.747 680.624 C 971.65 680.456 972.553 680.288 973.483 680.115 C 998.793 675.568 1025.383 674.2 1047.294 689.39 C 1049.275 691.033 1051.015 692.722 1052.747 694.624 C 1053.346 695.278 1053.946 695.931 1054.563 696.605 C 1063.589 707.307 1068.329 720.101 1068.055 734.003 C 1065.739 761.182 1048.243 782.061 1028.747 799.624 C 1025.808 802.043 1022.796 804.347 1019.747 806.624 C 1019.071 807.138 1018.396 807.651 1017.7 808.181 C 996.315 824.441 973.584 840.179 948.76 850.757 C 944.173 852.733 939.624 854.795 935.067 856.839 C 934.296 857.183 933.525 857.527 932.731 857.882 C 932.037 858.193 931.343 858.504 930.629 858.824 C 929.033 859.503 927.392 860.076 925.747 860.624 C 925.747 861.284 925.747 861.944 925.747 862.624 C 926.51 862.674 927.274 862.724 928.061 862.775 C 936.696 863.382 945.233 864.402 953.809 865.562 C 963.781 866.889 992.196 870.155 992.196 870.155 C 992.196 870.155 1012.79 869.458 1024.828 875.102 C 1037.92 881.24 1041.966 898.123 1034.056 900.05 C 1034.056 900.05 1015.03 889.055 1001.623 889.324 C 993.748 889.482 964.192 871.653 952.198 871.885 C 777.657 875.268 202.543 887.641 237.624 889.116 C 221.912 880.776 329.598 855.703 327.934 855.437 C 319.46 854.08 304.747 844.624 304.747 844.624 C 266.949 823.722 247.815 810.736 232.313 792.784 C 218.844 781.447 207.968 761.261 206.411 743.874 C 206 728.434 209.76 714.147 220.059 702.374 C 231.415 690.524 245.887 681.909 260.444 680.463 C 280.736 678.448 319.415 683.465 340.2 688.698 C 350.874 691.386 350.895 691.304 354.887 692.804 C 358.149 693.74 359.604 693.904 362.747 692.624 C 364.519 690.73 375.693 675.799 377.872 672.999 C 381.589 668.183 399.209 644.308 404.559 637.374 C 426.453 612.194 426.453 612.194 437.309 582.312 C 437.435 580.368 437.435 580.368 437.563 578.386 C 436.541 573.674 435.067 572.605 431.161 570.03 C 426.915 567.558 422.582 565.313 418.184 563.124 C 389.388 548.39 362.751 528.513 341.747 501.624 C 335.562 493.706 330.503 478.273 330.989 477.577 C 324.401 456.607 334.74 434.068 344.247 415.812 C 344.609 415.148 347.247 410.43 347.487 406.685 C 346.655 404.369 334.955 384.965 333.478 382.546 C 324.535 367.828 318.834 335.548 317.747 333.624 C 315.449 297.8 326.004 263.602 347.665 234.152 C 360.561 216.619 393.901 196.435 415.625 190.178 Z" fill="#0E222B" id="frog and pad silohuette" style="" transform="matrix(1, 0, 0, 1, -2.2737367544323206e-13, 0)"/>
  <path d="M 519.06 225.499 C 543.426 243.381 543.426 243.381 550.247 255.229 C 551.816 257.734 578.328 245.386 608.445 244.347 C 640.778 243.232 686.353 238.531 715.747 254.624 C 715.129 254.995 723.646 256.027 724.142 255.494 C 735.034 243.847 735.034 243.847 739.747 239.624 C 740.407 239.624 751.449 229.866 752.197 229.314 C 768.594 217.353 785.963 208.372 805.747 203.624 C 806.882 203.347 806.882 203.347 808.039 203.064 C 837.609 196.447 867.991 205.647 893.044 221.53 C 901.788 227.409 911.816 235.135 916.747 244.624 C 928.01 262.349 926.238 261.582 935.111 281.718 C 939.586 292.807 942.294 303.671 942.747 315.624 C 942.78 316.336 942.812 317.047 942.846 317.78 C 944.186 350.266 932.963 378.297 911.747 402.624 C 908.356 406.302 921.449 423.192 921.81 423.999 C 923.323 427.054 925.196 429.733 927.185 432.499 C 930.182 436.727 932.758 440.835 934.747 445.624 C 935.046 446.336 935.345 447.047 935.654 447.78 C 939.032 457.166 939.609 470.258 935.747 479.624 C 935.328 480.645 934.909 481.666 934.478 482.718 C 929.029 494.703 920.96 504.37 910.747 512.624 C 910.005 513.367 909.262 514.109 908.497 514.874 C 900.235 523.136 880.776 537.311 879.785 538.011 C 873.257 542.529 839.223 560.055 838.522 560.426 C 835.113 562.727 833.249 565.855 831.747 569.624 C 831.376 571.683 831.022 573.746 830.685 575.812 C 829.519 581.127 829.519 581.127 826.212 583.257 C 824.12 584.055 822.008 584.802 819.88 585.499 C 815.019 587.245 806.347 594.862 805.626 595.499 C 797.211 603.389 789.795 614.875 789.247 626.687 C 789.632 634.917 794.092 641.466 798.38 648.265 C 799.765 650.655 805.306 657.538 807.185 660.249 C 810.413 664.799 824.501 682.787 827.497 686.437 C 833.173 693.355 836.503 697.516 837.337 698.554 C 838.88 700.818 839.82 703.053 840.747 705.624 C 834.831 704.182 829.915 701.951 826.247 697.249 C 795.56 657.919 780.319 656.086 784.747 662.624 C 785.201 663.243 781.333 664.124 781.8 664.761 C 770.539 659.296 789.843 682.64 789.581 692.058 C 789.416 697.986 790.371 724.857 789.888 727.905 C 786.243 750.717 779.429 771.132 768.747 791.624 C 767.954 793.163 754.327 814.65 753.595 815.694 C 752.882 816.702 723.39 846.116 720.747 849.624 C 719.005 850.694 674.83 869.384 673.747 870.624 C 659.246 874.373 628.578 875.556 627.386 875.486 C 617.347 874.862 584.664 864.312 582.618 863.671 C 571.467 859.605 557.978 853.213 549.747 844.624 C 547.031 842.315 523.222 818.015 520.747 815.624 C 517.747 811.957 508.08 796.437 507.736 795.825 C 500.145 782.299 490.306 749.886 489.837 748.042 C 484.248 723.63 484.929 688.712 498.56 666.624 C 499.282 665.634 500.004 664.644 500.747 663.624 C 500.087 663.294 499.427 662.964 498.747 662.624 C 498.747 663.284 479.024 679.789 473.06 684.749 C 471.65 685.915 470.24 687.08 468.829 688.245 C 466.812 689.913 464.796 691.583 462.788 693.261 C 450.224 703.724 450.224 703.724 441.747 705.624 C 441.747 706.284 441.747 706.944 441.747 707.624 C 440.757 707.624 439.767 707.624 438.747 707.624 C 440.469 703.629 443.125 700.379 445.81 696.999 C 446.543 696.07 446.543 696.07 447.291 695.122 C 450.934 690.545 454.77 686.187 458.739 681.89 C 461.231 679.078 463.416 676.107 465.556 673.022 C 466.146 672.33 466.146 672.33 466.747 671.624 C 467.407 671.624 468.067 671.624 468.747 671.624 C 469.119 670.82 469.119 670.82 469.497 669.999 C 471.054 667.042 472.782 664.327 474.747 661.624 C 475.407 661.624 476.067 661.624 476.747 661.624 C 476.981 660.927 477.214 660.229 477.454 659.511 C 478.992 656.078 481.099 653.346 483.435 650.437 C 484.339 649.285 485.241 648.133 486.142 646.979 C 486.585 646.413 487.028 645.846 487.484 645.262 C 490.394 641.489 493.098 637.583 495.747 633.624 C 496.193 632.989 496.639 632.353 497.099 631.698 C 498.941 628.872 499.738 626.745 499.997 623.374 C 497.071 614.596 490.095 607.654 483.9 600.972 C 481.934 598.828 480.093 596.621 478.247 594.374 C 472.243 587.478 463.743 582.269 454.747 580.624 C 454.517 579.755 454.286 578.886 454.048 577.991 C 451.057 567.312 451.057 567.312 443.204 560.069 C 440.426 558.541 437.622 557.082 434.79 555.657 C 430.899 553.689 427.044 551.653 423.185 549.624 C 422.364 549.192 421.543 548.761 420.697 548.316 C 404.324 539.679 389.169 530.42 375.747 517.624 C 374.317 516.366 372.88 515.115 371.435 513.874 C 368.047 510.92 364.811 507.917 361.747 504.624 C 361.747 503.964 361.747 503.304 361.747 502.624 C 360.757 502.294 359.767 501.964 358.747 501.624 C 348.338 489.414 343.654 476.507 344.747 460.624 C 345.855 450.807 347.679 437.986 354.923 430.742 C 355.356 431.546 380.645 416.022 364.681 400.632 C 345.415 379.801 334.055 349.742 334.247 321.749 C 334.25 320.696 336.453 300.038 339.747 289.624 C 341.33 284.618 349.567 250.892 374.872 229.812 C 384.47 221.817 394.313 214.697 405.747 209.624 C 406.904 209.092 406.904 209.092 408.083 208.55 C 410.608 207.46 413.15 206.528 415.747 205.624 C 416.342 205.408 416.936 205.192 417.548 204.97 C 452.309 192.655 490.054 204.866 519.06 225.499 Z" id="main body" style="fill: rgb(4, 52, 150);" transform="matrix(1, 0, 0, 1, -2.2737367544323206e-13, 0)"/>
  <g id="eyes" transform="matrix(1, 0, 0, 1, -6.500589944431113, 51.58520584680447)">
    <path d="M 526.152 173.816 C 538.86 182.29 550.518 191.698 557.34 203.547 C 558.909 206.051 568.798 214.033 571.418 217.523 C 573.143 219.243 579.16 219.941 579.84 219.941 C 592.655 253.406 547.52 305.994 544.849 299.779 C 544.259 302.641 540.399 252.55 540.172 251.834 C 532.051 226.719 421.795 160.311 405.84 167.941 C 405.178 168.257 369.701 192.816 367.701 192.816 C 367.701 190.816 374.929 184.089 376.362 182.644 C 430.074 128.996 477.762 141.549 526.152 173.816 Z" id="eyebulge left " style="fill: rgb(0, 39, 118);"/>
    <path d="M 527.29 176.306 C 545.388 188.519 557.516 206.507 563.548 212.654 C 563.867 212.979 564.995 213.312 568.44 218.707 C 565.772 218.87 563.067 219.458 558.341 216.075 C 558.341 216.075 538.585 193.348 537.165 192.243 C 536.443 191.645 527.366 184.535 524.665 182.368 C 517.539 176.907 500.732 167.734 500.09 167.375 C 494.692 164.469 466.284 158.583 458.978 158.431 C 459.496 158.642 460.013 158.853 460.547 159.07 C 478.85 166.557 494.477 174.744 508.978 188.431 C 509.571 188.971 510.164 189.511 510.774 190.068 C 528.186 206.526 541.344 229.565 547.978 252.431 C 548.204 253.18 548.431 253.929 548.665 254.7 C 552.154 268.535 550.449 283.793 546.978 297.431 C 546.648 297.431 546.318 297.431 545.978 297.431 C 545.956 296.314 545.837 296.31 545.933 295.175 C 549.264 255.841 534.352 221.343 504.372 193.489 C 502.044 191.326 499.669 189.454 497.052 187.654 C 495.53 186.553 484.339 179.515 480.915 177.493 C 480.316 177.146 479.718 176.799 479.101 176.441 C 476.533 174.947 473.992 173.441 471.509 171.81 C 468.316 170.071 465.042 169.179 461.54 168.306 C 460.897 168.137 460.255 167.968 459.593 167.794 C 442.697 163.437 422.933 162.801 406.978 170.431 C 406.316 170.747 405.655 171.063 404.974 171.388 C 398.687 174.442 392.857 177.315 387.978 182.431 C 386.546 183.449 385.087 184.429 383.603 185.368 C 380.757 187.211 378.101 189.085 375.54 191.306 C 372.978 193.431 372.978 193.431 370.978 193.431 C 370.978 191.431 370.978 191.431 372.411 189.986 C 373.403 189.154 373.403 189.154 374.415 188.306 C 377.374 185.802 380.257 183.25 383.103 180.618 C 392.45 172.333 402.544 165.504 413.978 160.431 C 415.134 159.899 415.134 159.899 416.314 159.357 C 418.838 158.267 421.38 157.335 423.978 156.431 C 424.572 156.215 425.166 155.999 425.778 155.777 C 460.54 143.462 497.785 156.394 527.29 176.306 Z" id="left eye v hihglight" style="fill: rgb(31, 87, 202);"/>
    <ellipse style="stroke: rgb(0, 0, 0); fill: rgb(250, 250, 248);" cx="441.352" cy="280.355" rx="97.366" ry="105.396" id="eye white left"/>
    <path d="M 403.814 170.003 C 421.217 162.9 437.668 162.769 438.849 162.777 C 453.693 162.878 466.267 166.385 479.189 173.565 C 491.789 180.566 502.077 189.261 503.314 190.315 C 511.187 197.176 518.265 204.104 523.627 213.128 C 535.71 231.62 531.342 227.969 534.454 246.15 C 525.208 227.439 477.242 178.897 474.627 179.128 C 473.563 177.901 435.577 170.175 434.063 170.755 C 422.975 175.005 410.847 173.535 399.684 177.481 C 396.682 178.424 393.751 178.795 390.627 179.128 C 394.543 174.711 398.38 172.221 403.814 170.003 Z" id="eyebulge dark hl left" style="fill: rgb(2, 39, 115);"/>
    <path d="M 388.627 365.348 C 403.897 374.184 420.917 376.471 437.627 382.128 C 446.636 385.178 471.019 380.448 479.271 378.69 C 481.81 378.149 484.055 376.482 486.627 376.128 C 487.989 375.941 491.653 376.214 490.627 377.128 C 487.254 380.135 482.641 381.365 478.564 383.315 C 451.166 396.419 429.39 391.022 401.279 383.413 C 396.635 382.156 370.061 369.63 368.162 368.103 C 367.784 367.799 347.121 326.555 337.943 296.991 C 329.26 269.024 331.638 250.057 331.154 248.993 C 330.287 247.087 331.896 244.588 350.05 209.034 C 352.273 204.68 387.4 175.024 403.165 171.306 C 433.807 164.079 469.63 175.561 486.709 186.196 C 503.772 196.821 545.808 232.601 541.918 287.827 C 540.14 313.074 535.081 333.768 520.977 355.431 C 519.317 357.98 521.085 349.255 522.04 346.368 C 536.714 301.996 543.838 295.161 521.208 235.064 C 514.654 217.66 500.16 205.566 484.18 196.055 C 472.136 188.886 424.32 159.646 376.627 203.128 C 335.321 240.787 342.562 295.533 351.57 317.019 C 366.524 352.69 369.038 354.013 388.627 365.348 Z" id="left eyebrow shade blck" style="fill: rgb(14, 34, 43);"/>
    <ellipse style="paint-order: fill; stroke: rgb(0, 0, 0); stroke-width: 5px; fill: rgb(0, 155, 58);" cx="439.05" cy="292.863" rx="74.667" ry="73.987" id="eye left"/>
    <ellipse style="fill: rgb(24, 23, 45);" cx="437.137" cy="292.219" rx="52" ry="52" id="pupil left"/>
    <ellipse style="fill: rgb(251, 251, 249);" cx="422.813" cy="251.285" rx="20" ry="20" id="reflect eye left"/>
    <path d="M 762.446 174.044 C 749.175 182.433 736.977 191.783 729.744 203.678 C 728.083 206.19 717.736 214.124 714.974 217.618 C 713.164 219.334 706.929 219.95 706.226 219.94 C 692.475 253.633 738.387 307.566 741.243 301.313 C 741.898 304.264 750.102 257.097 750.416 254.849 C 755.581 217.853 870.599 161.944 886.991 169.911 C 887.672 170.241 921.823 193.715 923.893 193.746 C 923.922 191.72 923.922 191.72 922.461 190.235 C 867.691 135.099 812.981 142.1 762.446 174.044 Z" id="eyebulge rght" style="fill: rgb(0, 39, 118);"/>
    <path d="M 897.352 175.046 C 904.345 180.412 912.194 186.084 916.31 194.02 C 913.465 192.727 911.358 191.246 909.056 189.136 C 902.065 182.897 895.189 177.314 886.82 173.051 C 886.263 172.732 885.704 172.413 885.13 172.084 C 883.195 171.014 881.24 170.116 879.21 169.239 C 878.223 168.812 877.236 168.384 876.219 167.943 C 858.572 161.352 825.373 168.059 807.987 175.123 C 804.926 170.61 758.957 198.036 751.524 227.605 C 750.495 231.7 741.136 282.683 740.4 300.071 C 739.088 300.266 736.988 279.283 739.464 258.243 C 743.972 194.299 791.275 171.524 805.685 166.071 C 808.915 164.849 819.275 156.694 824.036 157.801 C 818.772 158.256 805.035 161.276 803.326 161.797 C 795.747 164.256 786.102 169.743 778.813 172.907 C 768.619 177.332 730.722 212.942 726.848 216.31 C 724.502 217.578 722.46 219.616 718.485 218.155 C 718.414 216.237 722.646 213.103 722.646 213.103 C 722.646 213.103 744.764 192.732 750.787 186.395 C 764.476 175.237 786.333 158.914 812.898 154.409 C 850.139 148.094 873.459 157.941 897.352 175.046 Z" id="right eye v hihglight" style="fill: rgb(31, 87, 202);"/>
    <ellipse style="stroke: rgb(0, 0, 0); fill: rgb(250, 250, 248);" cx="850.88" cy="283.371" rx="97.366" ry="105.396" id="eye white right"/>
    <path d="M 876.238 167.685 C 877.038 168.03 877.839 168.376 878.663 168.732 C 880.58 169.639 882.401 170.626 884.238 171.685 C 885.054 172.133 885.87 172.582 886.71 173.044 C 888.893 174.245 891.068 175.459 893.238 176.685 C 892.908 177.675 892.578 178.665 892.238 179.685 C 885.023 177.805 877.905 175.683 870.81 173.399 C 849.174 166.502 825.643 170.838 805.37 180.064 C 801.217 182.213 786.515 192.982 784.175 194.435 C 780.431 196.843 780.247 214.222 776.919 217.17 C 775.158 218.718 767.564 212.485 766.884 212.145 C 776.647 193.21 798.693 168.706 826.337 165.086 C 842.909 162.996 860.736 160.983 876.238 167.685 Z" id="eyebulge dark hl right" style="fill: rgb(3, 39, 112);"/>
    <path d="M 826.315 173.108 C 870.013 159.036 925.569 194.343 944.533 210.074 C 954.204 218.097 968.157 253.075 958.414 298.658 C 953.317 322.504 935.706 351.725 916.746 368.652 C 904.542 379.547 891.779 382.048 881.435 385.717 C 846.421 398.138 814.916 383.551 793.989 373.661 C 793.091 373.237 789.963 372.083 788.987 371.884 C 787.526 371.586 785.353 367.381 786.841 367.287 C 787.834 367.224 792.769 368.553 793.681 368.975 C 843.331 391.944 883.2 384.775 914.986 354.484 C 926.529 343.483 950.043 302.302 949.22 283.638 C 946.359 218.755 882.533 173.843 845.134 181.253 C 777.371 194.679 749.502 242.508 767.719 335.157 C 768.997 341.658 770.402 345.739 770.402 345.739 C 763.521 352.768 749.487 288.641 751.976 266.562 C 758.86 205.493 814.057 177.055 826.315 173.108 Z" fill="#12222E" style="" id="eye outline right"/>
    <ellipse style="paint-order: fill; stroke: rgb(0, 0, 0); stroke-width: 5px; fill: rgb(0, 155, 58);" cx="852.863" cy="293.116" rx="74.667" ry="73.987" id="eye right"/>
    <ellipse style="fill: rgb(24, 23, 45);" cx="859.054" cy="297.337" rx="52" ry="52" id="pupil right"/>
    <ellipse style="fill: rgb(251, 251, 249);" cx="844.73" cy="256.403" rx="20" ry="20" id="ref eye right"/>
  </g>
  <path d="M 695.707 485.7 C 699.551 486.869 713.737 490.848 716.935 491.874 C 738.127 498.576 760.691 504.157 761.717 504.382 C 776.559 507.396 808.347 507.933 809.3 507.93 C 839.497 507.817 870.179 502.331 896.935 487.472 C 898.747 486.624 919.665 474.613 926.747 475.624 C 929.34 477.086 932.553 479.406 934.875 481.301 C 928.361 505.56 880.449 537.543 879.78 538.016 C 873.254 542.532 839.223 560.056 838.522 560.427 C 835.113 562.727 833.249 565.855 831.747 569.624 C 830.881 573.661 829.946 583.255 827.34 582.581 C 825.248 583.38 806.697 594.552 805.626 595.499 C 797.211 603.39 789.795 614.876 789.247 626.687 C 789.632 634.917 794.092 641.467 798.38 648.265 C 799.765 650.656 836.502 697.516 837.337 698.554 C 838.879 700.819 839.82 703.053 840.747 705.624 C 834.831 704.183 830.9 700.979 826.247 697.249 C 825.458 696.627 785.832 663.525 789.339 667.699 C 827.287 736.843 775.776 776.214 767.145 794.734 C 751.222 828.9 724.718 874.925 629.747 875.624 C 571.12 876.056 488.06 805.001 489.837 748.042 C 490.692 720.647 492.152 668.951 500.747 663.624 C 500.087 663.294 499.427 662.964 498.747 662.624 C 498.747 663.284 441.747 706.944 441.747 707.624 C 440.757 707.624 439.767 707.624 438.747 707.624 C 440.469 703.629 496.639 632.353 497.099 631.699 C 498.941 628.872 499.738 626.746 499.997 623.374 C 497.071 614.596 463.743 582.27 454.747 580.624 C 454.574 579.74 452.182 567.031 443.204 560.07 C 411.344 544.711 390.399 534.021 358.747 501.624 C 356.993 499.48 351.229 492.833 347.998 484.123 C 351.102 481.322 354.873 478.697 359.058 478.35 C 363.071 478.648 364.966 478.447 369.204 481.327 C 370.326 482.089 427.154 506.289 442.747 506.624 C 444.356 506.659 473.3 509.656 486.466 507.179 C 489.435 506.677 492.381 506.352 495.377 506.073 C 503.689 505.269 521.397 501.307 523.017 500.92 C 528.068 499.672 555.51 490.88 557.191 490.386 C 558.954 489.861 573.747 485.304 573.747 484.624 C 616.957 472.759 652.99 472.359 695.707 485.7 Z" style="fill: rgb(254, 223, 0);" id="underside" transform="matrix(1, 0, 0, 1, -2.2737367544323206e-13, 0)"/>
  <ellipse style="fill: rgb(254, 246, 232);" cx="635.883" cy="728.135" rx="100" ry="100" id="stomach patch" transform="matrix(1, 0, 0, 1, -2.2737367544323206e-13, 0)"/>
  <path d="M 494.023 681.416 C 495.239 694.826 492.257 735.132 497.358 747.593 C 567.473 918.876 735.521 834.503 769.397 768.513 C 776.625 754.433 778.789 725.001 782.548 709.627 C 782.989 707.824 786.597 676.074 788.091 677.176 C 805.28 689.852 807.982 749.579 813.096 771.966 C 817.958 793.249 783.747 813.508 788.855 827.487 C 798.802 854.711 685.286 918.965 581.797 880.883 C 554.62 870.882 491.618 847.801 487.846 844.153 C 486.933 843.27 488.062 841.585 487.803 840.341 C 485.024 826.991 482.324 813.605 478.748 800.446 C 474.336 784.21 458.595 739.828 460.846 734.153 C 464.403 725.186 473.422 719.522 479.721 712.216 C 480.647 711.141 492.965 669.749 494.023 681.416 Z" fill="#875327" style="" id="stomach grading two" transform="matrix(1, 0, 0, 1, -2.2737367544323206e-13, 0)"/>
  <path d="M 481.57 824.935 C 482.56 824.935 484.57 826.255 484.57 826.935 C 485.23 826.935 550.53 867.595 552.57 867.935 C 552.303 869.665 582.613 879.993 584.57 879.935 C 584.57 880.595 634.013 887.872 669.856 879.402 C 672.323 878.819 689.835 875.364 696.364 872.783 C 698.673 871.885 720.57 866.615 720.57 865.935 C 723.192 864.596 752.57 847.615 752.57 846.935 C 754.8 845.278 769.35 836.617 770.57 833.935 C 773.998 830.935 788.257 815.122 789.57 813.935 C 790.57 815.935 789.358 842.034 787.101 844.614 C 785.313 845.908 780.466 848.613 779.339 849.306 C 773.16 852.673 741.444 867.538 737.234 871.579 C 734.584 873.738 699.602 884.569 696.79 885.043 C 681.232 887.665 652.623 893.171 653.583 890.122 C 645.799 891.613 608.266 892.787 599.244 890.413 C 597.309 889.878 567.721 884.083 563.445 882.372 C 559.837 880.949 536.36 872.12 535.222 871.7 C 526.993 868.62 483.95 845.955 481.57 844.935 C 481.57 838.335 481.57 831.735 481.57 824.935 Z" fill="#4F3527" id="stomach grading darkest" transform="matrix(1, 0, 0, 1, -2.2737367544323206e-13, 0)"/>
  <path d="M 696.298 485.602 C 700.142 486.771 704.014 487.818 707.894 488.858 C 711.134 489.744 714.328 490.75 717.526 491.776 C 738.718 498.478 738.718 498.478 760.276 503.839 C 761.282 504.059 761.282 504.059 762.308 504.284 C 777.15 507.298 791.991 507.902 807.088 507.839 C 808.013 507.837 808.94 507.883 809.892 507.832 C 840.088 506.211 856.486 505.395 883.242 493.921 C 887.538 492.425 906.012 482.703 906.338 482.633 C 911.683 485.912 899.739 497.696 893.681 499.033 C 858.921 516.755 794.997 525.25 744.537 509.838 C 733.525 506.475 722.328 503.963 711.338 500.526 C 700.306 497.081 689.251 493.882 678.013 491.176 C 676.299 490.76 674.589 490.331 672.882 489.885 C 660.597 486.704 648.587 486.16 635.963 486.151 C 635.201 486.149 634.44 486.147 633.655 486.145 C 620.037 486.149 606.768 487.229 593.588 490.901 C 592.842 491.097 592.096 491.293 591.327 491.495 C 587.131 492.628 583.067 493.966 578.995 495.483 C 573.273 497.604 567.476 499.249 561.588 500.839 C 554.133 502.881 546.718 504.997 539.342 507.312 C 516.542 514.457 494.606 517.664 470.713 517.776 C 469.445 517.786 468.176 517.795 466.868 517.805 C 460.53 517.783 454.634 517.436 448.453 516.012 C 445.644 515.367 442.824 515.052 439.963 514.714 C 421.219 512.501 409.83 506.818 390.41 497.614 C 380.428 492.204 373.344 486.082 377.883 484.215 C 378.626 484.649 385.051 487.343 392.957 491.183 C 406.589 494.842 432.623 512.069 487.057 507.081 C 490.055 506.806 492.972 506.254 495.969 505.975 C 504.28 505.171 512.283 503.536 520.401 501.589 C 521.989 501.209 540.412 496.271 552.741 491.776 C 569.097 485.813 563.772 487.794 574.338 484.526 C 616.779 471.399 653.581 472.261 696.298 485.602 Z" fill="#EECC56" id="lip highlight" transform="matrix(1, 0, 0, 1, -2.2737367544323206e-13, 0)"/>
  <path d="M 699.851 498.25 C 707.411 500.654 756.326 513.977 757.311 514.215 C 799.825 524.161 841.99 518.947 883.039 505.453 C 884.113 505.102 898.727 499.549 904.751 496.41 C 915.852 490.729 915.852 490.729 919.757 491.418 C 920.325 491.615 920.892 491.812 921.476 492.015 C 906.68 500.593 873.024 514.889 871.761 515.34 C 837.593 527.279 796.915 529.456 761.476 522.015 C 760.81 521.876 720.042 511.332 710.601 508.015 C 695.36 502.68 679.344 498.965 663.476 496.015 C 662.57 495.833 634.856 493.707 634.15 493.709 C 623.892 493.754 614.444 494.447 604.476 497.015 C 602.792 497.399 601.107 497.778 599.421 498.152 C 590.777 500.109 582.303 502.332 573.852 505.01 C 565.97 507.506 558.037 509.822 550.101 512.14 C 547.892 512.787 545.684 513.434 543.475 514.082 C 542.056 514.497 540.637 514.912 539.218 515.326 C 535.517 516.407 531.833 517.53 528.156 518.687 C 522.84 520.287 517.446 521.23 511.976 522.14 C 510.524 522.394 510.524 522.394 509.042 522.652 C 497.783 524.572 486.838 525.22 475.414 525.203 C 474.727 525.203 474.04 525.202 473.333 525.202 C 462.916 525.183 452.762 524.796 442.476 523.015 C 440.585 522.689 440.585 522.689 438.656 522.355 C 425.147 519.817 412.179 516.266 399.476 511.015 C 398.377 510.566 398.377 510.566 397.255 510.108 C 389.294 506.85 381.403 503.588 373.789 499.578 C 369.224 497.209 365.606 496.213 360.476 496.015 C 360.146 495.025 359.816 494.035 359.476 493.015 C 367.373 493.154 373.692 494.008 380.746 497.664 C 383.524 499.039 386.349 500.139 389.26 501.203 C 391.593 502.058 393.909 502.951 396.226 503.848 C 414.403 510.762 432.862 515.34 452.187 517.998 C 459.007 518.936 472.712 519.201 473.413 519.2 C 501.468 519.116 526.549 513.154 553.308 504.982 C 557.901 503.581 562.501 502.205 567.101 500.828 C 568.704 500.348 570.307 499.867 571.91 499.387 C 572.671 499.158 573.433 498.93 574.218 498.695 C 576.442 498.026 578.664 497.351 580.886 496.676 C 588.039 494.517 595.209 492.509 602.476 490.765 C 603.146 490.602 603.816 490.439 604.506 490.271 C 635.899 482.965 669.711 488.644 699.851 498.25 Z" fill="#36260A" id="mouth black line" transform="matrix(1, 0, 0, 1, -2.2737367544323206e-13, 0)"/>
  <g id="arm left" transform="matrix(1, 0, 0, 1, -2.2737367544323206e-13, 0)">
    <path d="M 454.747 580.624 C 467.244 581.422 498.737 617.923 499.747 619.249 C 501.205 622.712 500.994 625.184 499.747 628.624 C 495.645 636.61 444.855 699.118 444.137 700.005 C 441.898 702.844 438.427 709.284 437.747 709.624 C 438.347 714.364 480.952 834.6 473.938 849.507 C 470.133 856.269 465.305 859.808 457.966 862.206 C 445.977 864.464 434.872 862.488 424.411 856.226 C 415.4 857.476 403.922 813.585 395.676 791.776 C 392.742 784.016 371.468 718.872 369.907 713.534 C 369.532 712.254 369.532 712.254 369.149 710.948 C 368.474 707.05 369.391 705.142 371.61 701.917 C 372.418 700.892 404.329 659.855 412.729 648.434 C 417.363 642.135 446.454 605.047 452.747 587.624 C 453.719 585.941 454.712 584.27 455.747 582.624 C 455.252 581.634 455.252 581.634 454.747 580.624 Z" style="fill: rgb(2, 50, 149);" id="arm left"/>
    <path d="M 449.738 602.801 C 450.398 602.801 450.927 602.932 451.607 602.932 C 452.178 608.529 451.116 610.127 447.757 614.344 C 446.31 616.108 382.177 703.311 379.714 705.739 C 377.275 707.887 377.275 707.887 376.476 711.016 C 377.136 711.016 403.713 791.778 405.381 796.748 C 406.148 799.038 415.162 827.38 426.703 849.332 C 428.476 852.016 435.745 857.088 436.914 857.641 C 444.008 860.219 451.787 860.277 458.906 857.844 C 464.203 855.331 468.319 853.103 471.476 848.016 C 473.527 835.994 469.984 824.401 466.476 813.016 C 466.203 812.109 458.92 789.08 454.445 778.817 C 453.476 776.016 458.4 772.015 459.063 773.309 C 459.434 774.028 467.796 797.016 468.476 797.016 C 482.383 837.625 482.383 837.625 475.667 851.899 C 471.862 858.661 467.034 862.2 459.695 864.598 C 447.706 866.856 436.601 864.88 426.14 858.617 C 415.785 851.81 404.434 814.233 397.406 794.168 C 394.664 786.338 371.136 714.219 370.879 713.34 C 370.203 709.442 371.12 707.533 373.339 704.309 C 374.148 703.284 374.956 702.259 375.789 701.203 C 376.232 700.638 446.836 608.242 449.738 602.801 Z" id="frnt left arm hhgligh lrg" style="fill: rgb(4, 64, 186);"/>
    <path d="M 450.02 602.452 C 450.68 602.452 451.446 602.346 452.126 602.346 C 452.697 607.943 451.766 609.824 448.407 614.041 C 446.959 615.805 382.826 702.008 380.364 704.435 C 377.924 706.584 377.924 706.584 377.126 709.713 C 377.786 709.713 379.466 732.693 379.126 733.713 C 370.83 714.562 370.83 714.562 371.251 707.662 C 372.569 704.724 447.118 607.893 450.02 602.452 Z" id="arm shadee" style="fill: rgb(0, 64, 194);"/>
    <path d="M 454.648 580.569 C 472.194 579.202 499.052 618.265 499.648 619.194 C 501.106 622.657 500.895 625.128 499.648 628.569 C 495.546 636.555 489.686 643.595 484.18 650.642 C 481.901 653.566 476.562 658.869 475.882 660.569 C 475.552 659.579 480.683 653.153 482.148 645.381 C 481.616 642.617 475.299 621.259 469.945 614.393 C 468.412 612.237 457.258 599.138 454.21 597.444 C 451.648 595.569 451.648 595.569 451.023 592.756 C 451.817 588.706 453.539 586.106 455.648 582.569 C 455.318 581.909 454.988 581.249 454.648 580.569 Z" id="frnt left arm shadow" style="fill: rgb(0, 39, 118);"/>
  </g>
  <g id="arm right" style="" transform="matrix(1, 0, 0, 1, -2.2737367544323206e-13, 0)">
    <path d="M 828.179 580.143 C 829.38 580.507 905.424 694.105 906.746 698.436 C 911.008 712.396 878.422 817.817 855.498 852.835 C 854.144 854.903 844.464 857.201 842.179 858.143 C 833.522 861.712 832.373 864.822 815.984 859.78 C 810.689 858.151 804.176 853.558 804.242 848.018 C 804.515 825.085 811.785 802.744 816.929 780.393 C 822.12 757.837 834.981 737.157 839.617 714.268 C 843.059 697.271 837.802 699.432 825.39 683.659 C 810.12 664.253 786.817 646.248 789.179 620.143 C 790.656 603.819 818.02 577.066 828.179 580.143 Z" style="fill: rgb(4, 52, 150);" id="arm right"/>
    <path d="M 828.825 578.561 C 829.095 579.408 838.205 594.041 839.268 595.998 C 834.526 598.998 811.953 628.175 807.293 633.561 C 794.916 644.66 822.512 670.125 843.878 693.598 C 844.626 695.912 839.587 699.481 840.201 701.833 C 836.063 698.05 798.674 651.525 798.247 650.816 C 789.16 635.514 787.34 628.235 788.838 618.561 C 789.844 615.025 793.737 606.957 794.148 606.131 C 800.15 595.29 814.924 578.561 828.825 578.561 Z" style="fill: rgb(0, 39, 118);" id="frnt right arm shadow"/>
    <path d="M 838.261 607.718 C 835.546 603.813 841.57 599.028 842.602 600.633 C 845.131 604.567 907.37 696.675 908.692 701.006 C 912.955 714.968 876.76 819.695 854.126 854.945 C 852.631 857.273 849.7 852.774 850.2 852.332 C 853.078 849.788 905.638 712.678 903.126 705.713 C 901.666 701.666 868.026 650.517 838.261 607.718 Z" id="fr right arm highligh outer" style="fill: rgb(4, 64, 186);"/>
    <path d="M 842.126 717.713 C 842.822 716.733 848.154 718.562 847.622 721.259 C 845.703 730.995 813.728 819.506 813.728 819.506 C 803.595 840.693 833.155 869.432 845.801 851.101 L 854.071 845.63 C 854.071 845.63 855.044 851.935 854.235 853.211 C 850.961 858.376 829.823 865.094 824.598 862.004 C 800.264 847.613 801.352 833.007 806.813 817.693 C 817.196 788.576 839.334 721.646 842.126 717.713 Z" id="frnt right arm inner shade" style="fill: rgb(4, 64, 186);"/>
  </g>
  <g id="legs" transform="matrix(1, 0, 0, 1, -2.2737367544323206e-13, 0)">
    <g id="right leg">
      <path d="M 923.724 705.57 C 927.68 704.602 954.909 698.818 955.206 699.115 C 955.951 699.86 1045.279 749.645 1044.338 753.309 C 1038.705 775.237 1016.879 790.521 999.963 802.901 C 977.443 819.381 959.648 829.064 928.338 845.526 C 914.351 852.88 895.396 868.116 887.503 868.594 C 886.837 868.634 866.178 870.481 868.162 867.946 C 871.134 864.149 874.475 843.814 876.401 839.393 C 880.591 829.774 882.851 819.422 886.338 809.526 C 886.867 808.026 887.164 806.194 888.437 805.24 C 890.908 803.387 894.21 803.006 896.947 801.573 C 912.378 793.495 927.807 785.411 943.338 777.526 C 961.265 768.424 992.512 769.115 996.725 749.456 C 1000.213 733.181 948.468 764.824 947.476 768.016 C 946.62 770.77 943.485 772.355 940.906 773.645 C 931.935 778.131 922.77 782.244 913.476 786.016 C 910.838 787.087 894.756 795.432 895.476 792.016 C 900.212 769.548 911.004 748.79 918.101 726.953 C 919.679 722.098 922.873 705.778 923.724 705.57 Z" id="right leg 1" style="fill: rgb(0, 39, 118);"/>
      <path d="M 1005.09 690.792 C 1017.052 693.656 1030.852 693.334 1040.596 700.841 C 1060.973 716.541 1051.485 742.052 1040.596 757.716 C 1037.011 762.873 1030.696 765.476 1025.408 768.864 C 1012.097 777.392 998.862 786.041 985.408 794.341 C 973.602 801.624 938.449 826.417 939.069 823.491 C 943.443 802.846 943.338 778.056 945.87 776.644 C 955.007 771.547 999.268 747.533 988.47 751.363 C 968.715 758.37 967.113 762.403 945.675 770.982 C 944.886 771.298 930.195 705.818 935.846 703.521 C 958.52 694.305 991.665 687.577 1005.09 690.792 Z" style="fill: rgb(3, 50, 146);" id="thigh right"/>
    </g>
    <g id="left leg">
      <path d="M 290.353 749.827 C 290.703 750.796 263.597 740.954 263.959 741.953 C 265.758 746.232 270.349 763.259 273.298 766.807 C 274.724 768.725 293.075 771.516 296.927 772.939 C 298.268 773.591 322.02 774.345 320.645 771.845 C 328.096 772.907 339.775 779.867 346.338 783.526 C 346.338 784.186 387.487 806.652 390.338 807.526 C 395.998 813.658 409.338 853.315 409.338 858.526 C 408.067 858.906 408.069 871.771 399.304 869.696 C 398.314 869.366 392.066 867.979 384.711 868.95 C 373.228 871.914 367.297 870.116 361.674 868.901 C 360.851 868.723 364.127 857.382 363.278 857.212 C 358.559 856.212 354.579 854.925 350.338 852.526 C 350.338 851.866 285.871 816.909 282.951 814.647 C 281.216 813.329 256.055 794.792 253.776 792.714 C 253.016 792.021 233.812 772.371 233.026 771.776 C 226.392 766.222 223.425 756.891 222.338 748.526 C 222.272 745.89 222.242 743.285 222.276 740.651 C 222.28 739.963 222.285 739.274 222.289 738.565 C 222.299 737.105 337.707 709.092 338.047 707.392 C 337.057 707.062 346.901 705.518 347.921 705.178 C 348.63 705.846 351.093 705.719 352.3 706.402 C 356.647 707.991 357.969 707.801 359.975 712.082 C 360.789 714.331 364.078 726.287 364.324 727.071 C 365.315 730.231 385.558 787.154 385.812 787.909 C 386.449 789.931 386.985 791.954 387.476 794.016 C 381.825 793.388 354.812 780.327 352.226 778.703 C 347.771 776.085 318.824 765.12 311.617 761.273 C 303.55 756.613 298.901 756.916 297.659 752.255 C 295.083 751.133 290.915 749.833 290.353 749.827 Z" style="fill: rgb(0, 39, 118);" id="left leg in shadow"/>
      <path d="M 324.546 698.462 C 328.605 699.682 332.696 700.784 336.783 701.903 C 344.362 703.992 344.362 703.992 347.846 705.153 C 347.516 706.803 347.186 708.453 346.846 710.153 C 346.186 710.153 345.526 710.153 344.846 710.153 C 344.465 725.735 345.023 739.751 349.096 754.841 C 349.835 758.105 349.834 759.989 348.846 763.153 C 339.74 762.356 330.707 761.087 321.682 759.649 C 312.793 758.276 290.095 756.486 289.167 756.419 C 286.846 756.153 286.846 756.153 283.846 755.153 C 283.846 755.813 283.846 756.473 283.846 757.153 C 292.466 757.976 306.971 764.023 307.529 764.313 C 322.564 772.137 326.499 772.682 329.846 778.153 C 329.846 778.813 353.258 828.265 355.846 833.153 C 351.198 832.535 319.346 816.403 314.846 814.153 C 314.846 813.493 245.014 773.646 240.846 770.153 C 240.846 769.493 226.246 759.524 224.846 748.153 C 221.987 739.578 223.12 728.31 226.846 720.153 C 233.152 708.47 242.72 697.843 255.51 693.751 C 277.091 687.78 303.453 692.01 324.546 698.462 Z" style="fill: rgb(4, 52, 150);" id="thigh left"/>
      <path d="M 325.826 701.022 C 329.884 702.241 345.641 706.551 349.125 707.713 C 349.125 708.373 348.671 710.849 348.671 711.529 C 337.362 708.825 336.762 709.621 321.027 706.296 C 305.593 703.035 302.367 702.675 281.991 701.224 C 257.629 699.489 238.074 719.347 237.125 734.713 C 234.524 735.006 226.92 734.748 226.125 734.713 C 225.126 727.385 228.244 721.794 232.125 715.713 C 254.656 686.727 293.811 691.229 325.826 701.022 Z" id="left back leg higlight" style="fill: rgb(4, 64, 186);"/>
    </g>
  </g>
  <path d="M 848.192 860.815 C 848.517 860.815 857.258 850.661 857.725 851.125 C 859.466 852.855 868.136 847.736 869.832 850.427 C 878.453 844.536 866.815 867.366 870.103 869.426 C 872.314 870.811 896.175 867.441 906.535 858.976 C 914.785 860.769 966.55 871.201 962.986 871.593 C 962.986 871.263 1021.97 885.096 1019.524 886.468 C 1030.7 884.47 1041.46 912.752 1042.557 912.759 C 1039.177 911.207 1039.285 912.045 1037.912 910.255 C 1019.914 886.795 1049.816 903.198 1058.538 910.379 C 1070.152 919.941 1065.257 940.589 1060.912 951.255 C 1059.83 953.911 1056.731 955.731 1053.912 956.255 C 1044.164 958.067 1033.867 960.382 1024.224 958.076 C 1004.054 953.253 1010.818 946.117 1002.912 936.255 C 1002.198 935.364 1000.686 935.73 999.599 935.38 C 992.234 933.008 985 930.218 977.56 928.091 C 969.02 925.65 960.274 923.989 951.695 921.687 C 947.65 920.602 943.707 919.163 939.704 917.933 C 937.613 917.29 935.522 916.645 933.412 916.068 C 932.257 915.752 929.087 914.386 929.912 915.255 C 935.303 920.933 944.77 924.915 950.912 929.255 C 961.246 936.556 966.541 940.781 979.818 946.205 C 1000.451 954.633 1012.718 947.151 1007.244 976.867 C 1003.811 995.503 970.895 992.591 964.019 992.504 C 957.131 992.417 948.303 968.584 942.267 961.297 C 926.947 942.801 892.618 940.189 884.34 944.636 C 881.483 946.171 886.663 957.612 889.904 959.996 C 933.001 991.702 925.866 1006.647 917.819 1015.823 C 909.046 1025.827 879.483 1036.108 856.419 1009.804 C 851.597 1004.305 858.81 959.965 814.671 954.485 C 814.355 954.894 808.993 969.851 808.629 971.841 C 807.067 980.372 812.05 987.853 816.509 1000.236 C 826.152 1027.015 769.172 1031.814 756.869 1017.18 C 746.396 1004.723 755.393 990.461 756.757 984.747 C 756.976 983.83 772.099 972.22 772.099 969.202 C 772.099 961.886 770.069 943.35 766.457 936.988 C 764.508 933.556 734.795 941.728 732.875 942.629 C 732.178 942.956 716.231 965.141 709.714 968.166 C 697.962 973.62 695.735 973.929 681.947 969.654 C 665.547 964.569 662.139 923.467 687.38 925.364 C 691.789 925.096 701.648 921.313 701.648 921.313 C 708.741 917.554 712.78 910.207 718.912 905.312 C 724.468 900.877 736.513 893.269 736.513 893.269 L 743.481 873.685 C 715.896 887.907 714.862 885.901 705.21 887.623 C 683.614 891.476 632.935 907.647 550.124 885.493 C 536.621 881.881 534.308 885.041 530.063 885.734 C 526.477 886.319 536.175 893.891 538.349 896.802 C 541.164 900.571 569.969 917.433 580.747 922.794 C 586.261 925.537 593.397 923.333 597.496 927.426 C 605.763 935.681 611.156 950.317 606.888 961.192 C 603.598 969.575 587.99 974.763 583.878 975.347 C 568.006 977.601 560.399 973.797 551.475 966.003 C 545.141 960.472 548.705 944.894 542.493 940.964 C 534.045 935.619 514.299 945.181 502.912 946.255 C 491.624 947.32 502.962 968.966 501.912 980.255 C 501.619 983.404 505.932 989.853 506.152 994.944 C 506.431 1001.397 504.815 1007.375 502.406 1013.956 C 501.197 1017.261 493.357 1021.675 487.777 1022.941 C 478.634 1025.016 468.339 1025.308 459.861 1019.846 C 443.913 1009.572 443.838 997.963 452.432 977.281 C 455.976 968.753 449.683 957.491 445.206 957.489 C 441.137 957.487 431.47 959.886 424.014 972.875 C 419.822 980.177 408.779 986.614 407.573 997.934 C 406.188 1010.94 397.267 1026.037 394.313 1028.323 C 373.357 1044.544 346.078 1011.934 350.715 1016.594 C 351.185 1017.067 344.207 1006.367 344.095 1005.319 C 343.136 996.37 345.382 988.407 348.232 979.87 C 350.224 973.903 369.774 970.977 371.713 968.503 C 373.731 965.929 382.458 948.795 379.656 947.108 C 369.307 940.876 348.334 950.081 325.995 959.934 C 325.29 960.245 314.503 981.034 308.404 987.001 C 305.272 990.065 283.422 993.387 283.422 993.387 C 283.422 993.387 261.231 989.152 258.092 973.378 C 253.36 949.6 285.985 946.826 294.889 939.525 C 302.801 933.038 341.282 914.16 335.007 911.481 C 330.001 909.344 281.907 922.334 273.6 925.011 C 258.905 929.747 245.567 948.441 228.005 950.099 C 200.621 952.685 194.066 935.023 193.544 932.882 C 190.297 919.554 202.059 911.542 207.454 910.411 C 210.122 910.129 241.344 901.494 241.344 901.494 C 232.635 905.674 230.491 890.423 236.652 886.326 C 243.652 881.671 243.319 886.582 252.305 881.734 C 285.863 863.628 342.709 867.116 341.775 867.151 C 338.088 867.026 396.854 866.756 401.512 867.961 C 401.512 868.621 407.842 855.486 407.167 852.479 C 404.981 845.514 402.52 838.673 399.696 831.861 C 399.357 831.015 397.284 824.211 397.454 822.922 C 397.06 821.499 396.706 820.068 396.404 818.628 C 396.2 817.655 402.003 816.815 402.683 816.815 C 410.208 830.804 414.931 847.86 422.991 856.293 C 425.737 859.166 421.987 865.176 421.879 865.252 C 418.494 867.643 492.414 868.154 484.859 865.148 C 480.03 863.227 478.501 860.366 474.786 856.732 C 472.925 854.911 481.238 848.009 480.85 833.321 C 480.261 811.05 439.018 713.261 438.05 709.783 C 437.976 709.517 439.987 707.194 439.428 707.729 C 438.141 708.96 500.991 662.056 500.912 663.255 C 500.756 665.642 499.573 667.856 498.662 670.068 C 492.298 685.519 495.087 699.736 478.912 716.255 C 473.26 722.027 464.254 726.059 462.295 733.896 C 458.207 750.249 484.277 817.881 484.861 820.259 C 487.012 829.023 485.649 838.319 486.912 847.255 C 486.999 847.872 524.149 864.723 526.98 866.305 C 539.07 873.061 560.453 879.461 565.236 880.22 C 608.563 887.099 639.663 892.641 675.198 884.772 C 679.408 883.84 756.11 856.466 775.912 836.255 C 780.79 831.277 801.033 805.099 806.788 766.061 C 811.162 736.393 807.253 730.825 793.972 711.734 C 783.934 697.306 786.865 661.47 786.865 661.47 C 786.865 661.47 837.811 701.455 839.601 705.323 C 840.402 707.054 840.94 715.945 840.365 717.763 C 837.76 726.003 835.21 734.264 832.373 742.427 C 823.973 766.602 812.758 789.916 806.658 814.771 C 803.838 826.261 806.13 838.426 805.912 850.255 C 805.881 851.921 807.339 854.394 805.912 855.255 C 792.53 863.324 869.616 884.913 854.192 868.815 C 853.243 867.907 852.294 867 851.317 866.065 C 849.192 863.815 849.192 863.815 848.192 860.815 Z M 853.674 864.924 C 853.679 864.932 853.694 864.946 853.72 864.965 C 853.705 864.951 853.689 864.938 853.674 864.924 Z" fill="#161E19" id="ft outlin" transform="matrix(1, 0, 0, 1, -2.2737367544323206e-13, 0)"/>
  <g id="front left ft" transform="matrix(1, 0, 0, 1, -2.2737367544323206e-13, 0)">
    <path d="M 423.419 856.257 C 427.477 859.943 459.398 877.417 476.127 851.053 C 482.29 855.635 479.217 858.013 484.451 860.105 C 487.861 861.555 497.018 865.752 500.854 867.472 C 510.139 871.635 525.563 887.456 525.747 889.624 C 533.066 898.73 538.871 906.817 550.157 913.37 C 552.977 915.068 563.554 923.115 565.04 924.321 C 570.072 928.163 573.881 929.321 580.219 929.448 C 585.636 929.826 589.566 932.352 593.184 936.249 C 596.462 941.231 596.316 945.762 595.747 951.624 C 593.828 955.723 591.164 957.102 587.184 958.937 C 579.208 961.822 571.738 961.294 563.719 958.866 C 560.393 958.211 557.645 950.497 557.497 943.249 C 557.482 942.512 555.977 937.689 556.054 935.891 C 555.157 935.61 549.844 932.685 547.247 931.249 C 541 928.069 525.658 924.044 524.583 923.745 C 513.156 920.868 501.472 920.886 489.747 920.624 C 487.68 928.661 486.821 936.793 485.942 945.025 C 485.686 947.421 485.423 949.816 485.159 952.212 C 484.233 960.674 483.391 969.135 482.747 977.624 C 491.996 983.296 494.674 982.578 497.747 993.624 C 498.678 1010.116 487.344 1014.294 480.77 1014.897 C 471.77 1015.148 466.816 1014.168 460.165 1008.206 C 456.886 1004.548 456.214 1001.069 456.278 996.284 C 457.219 990.943 466.067 979.624 466.747 979.624 C 465.408 973.114 460.888 958.87 460.575 957.966 C 458.606 952.495 451.747 941.624 451.747 939.624 C 441.684 940.423 433.639 947.403 425.127 952.878 C 418.017 955.504 399.424 968.004 396.508 983.905 C 396.444 986.416 396.434 988.924 396.434 991.437 C 396.223 999.315 395.661 1005.811 389.747 1011.624 C 382.503 1016.754 374.41 1017.424 365.747 1016.624 C 360.343 1015.02 356.867 1012.368 353.747 1007.624 C 351.586 1003.303 352.387 998.038 353.809 993.562 C 356.834 986.471 361.906 982.863 368.747 979.687 C 385.051 971.951 390.771 952.401 396.747 936.624 C 376.836 932.11 355.238 935.921 336.747 943.624 C 334.497 944.438 332.247 945.251 329.997 946.062 C 322.514 948.948 315.064 952.589 310.747 959.624 C 310.102 961.22 309.479 962.826 308.872 964.437 C 306.146 971.472 303.15 976.91 296.059 980.124 C 289.728 982.234 283.419 983.241 277.157 980.483 C 272.544 977.642 269.378 974.952 267.747 969.624 C 266.974 964.989 267.606 962.309 270.184 958.499 C 273.699 954.287 277.469 951.278 282.747 949.624 C 285.571 949.64 285.571 949.64 288.559 949.874 C 296.594 950.251 300.86 945.525 306.747 940.624 C 308.453 939.464 321.125 931.456 325.684 928.499 C 326.396 928.038 345.981 915.315 347.714 914.187 C 351.981 911.412 356.256 908.654 360.559 905.937 C 372.442 898.38 383.81 890.503 394.747 881.624 C 395.818 880.761 418.032 861.45 419.048 860.62 C 421.747 858.624 423.419 856.937 423.419 856.257 Z" id="ft left" style="fill: rgb(254, 223, 0);"/>
    <path d="M 386.937 912.711 C 371.559 924.933 342.492 933.11 322.854 943.163 C 309.438 950.031 299.568 971.4 282.476 967.016 C 280.265 966.449 277.948 962.795 279.296 960.953 C 281.554 957.867 286.587 958.537 289.976 956.766 C 303.323 949.79 315.062 938.88 327.789 930.641 C 330.05 929.177 358.762 909.668 362.938 907.025 C 374.821 899.468 386.189 891.592 397.126 882.713 C 398.197 881.849 413.126 869.393 413.126 868.713 C 414.886 867.132 424.786 859.053 425.126 858.713 C 425.786 858.713 425.215 858.882 424.126 867.713 C 420.415 883.864 408.949 896.081 396.126 905.713 C 395.294 906.343 388.725 911.29 386.937 912.711 Z" fill="#FCE674" id="left foot reflection"/>
    <path d="M 425.126 925.713 C 425.621 926.703 425.621 926.703 426.126 927.713 C 425.165 929.99 421.094 937.806 420.126 940.713 C 419.466 940.713 410.055 957.057 408.126 961.713 C 408.786 961.713 409.446 961.713 410.126 961.713 C 410.786 961.053 416.621 956.558 416.876 955.963 C 421.051 948.448 429.997 945.18 437.376 941.463 C 438.435 940.917 444.773 937.713 448.126 937.713 C 450.136 937.97 450.879 938.961 451.126 939.713 C 450.326 939.92 449.527 940.128 448.704 940.342 C 441.243 942.434 432.418 947.669 432.418 948.349 C 431.019 949.724 422.727 954.088 420.751 955.713 C 406.054 967.898 406.054 967.898 398.887 984.993 C 398.823 987.505 398.813 990.013 398.813 992.525 C 398.602 1000.404 398.04 1006.9 392.126 1012.713 C 384.882 1017.843 376.789 1018.512 368.126 1017.713 C 362.721 1016.109 359.246 1013.456 356.126 1008.713 C 354.217 1004.895 354.658 1000.476 355.727 996.443 C 357.695 990.928 357.695 990.928 360.126 989.713 C 362.105 989.85 364.084 989.997 366.063 990.15 C 374.056 990.194 378.543 987.232 384.126 981.713 C 387.414 977.798 390.009 973.559 392.649 969.193 C 397.155 961.862 402.362 955.35 407.829 948.728 C 410.851 945.066 423.151 928.731 425.126 925.713 Z" id="flft shade 1" style="fill: rgb(200, 175, 0);"/>
    <path d="M 432.126 874.713 C 433.446 874.713 434.766 874.713 436.126 874.713 C 436.126 875.373 436.126 876.033 436.126 876.713 C 437.116 876.713 438.106 876.713 439.126 876.713 C 439.621 878.693 439.621 878.693 440.126 880.713 C 440.786 880.713 441.446 880.713 442.126 880.713 C 442.584 888.472 442.448 893.229 438.126 899.713 C 437.796 900.868 430.656 916.588 429.439 919 C 424.416 928.835 417.964 937.074 410.95 945.553 C 409.841 946.897 406.528 950.921 405.963 951.608 C 400.509 958.322 395.793 965.44 391.126 972.713 C 381.572 987.182 381.572 987.182 373.126 990.713 C 368.74 991.186 364.517 991.079 360.126 990.713 C 362.59 985.215 365.421 983.441 370.876 981.025 C 383.444 974.839 389.353 962.519 394.251 949.9 C 398.291 939.522 403.95 930.084 409.536 920.48 C 418.018 905.714 425.55 890.421 432.126 874.713 Z" id="flft shade 2" style="fill: rgb(255, 235, 91);"/>
    <path d="M 337.331 932.917 C 354.615 926.333 383.132 917.574 378.394 918.167 C 378.394 918.827 378.394 919.487 378.394 920.167 C 375.424 921.157 372.454 922.147 369.394 923.167 C 369.394 923.827 369.394 924.487 369.394 925.167 C 368.404 925.167 367.414 925.167 366.394 925.167 C 366.394 925.827 366.394 926.487 366.394 927.167 C 364.03 927.927 362.703 928.249 360.269 927.604 C 359.65 927.46 359.031 927.315 358.394 927.167 C 357.734 927.827 357.074 928.487 356.394 929.167 C 355.156 929.6 355.156 929.6 353.894 930.042 C 350.904 931.387 350.765 932.332 349.394 935.167 C 347.269 935.917 347.269 935.917 345.394 936.167 C 350.687 936.333 355.404 935.715 360.581 934.667 C 370.353 932.82 379.552 932.653 389.394 934.167 C 389.394 934.497 389.394 934.827 389.394 935.167 C 388.75 935.181 388.107 935.196 387.444 935.211 C 369.18 935.672 353.416 937.076 336.394 944.167 C 334.144 944.981 331.894 945.793 329.644 946.604 C 322.161 949.49 314.711 953.132 310.394 960.167 C 309.749 961.763 309.126 963.368 308.519 964.979 C 305.793 972.015 302.797 977.453 295.706 980.667 C 289.375 982.777 283.066 983.784 276.804 981.026 C 272.191 978.185 269.025 975.495 267.394 970.167 C 266.621 965.532 267.253 962.851 269.831 959.042 C 273.836 954.21 278.594 950.729 284.901 949.796 C 287.161 949.734 289.177 949.722 291.394 950.167 C 292.054 950.827 292.714 951.487 293.394 952.167 C 289.374 956.048 285.128 957.476 279.917 959.139 C 277.4 960.164 276.127 961.113 274.394 963.167 C 279.977 964.374 285.712 964.834 291.394 964.167 C 294.421 962.351 301.945 954.349 303.894 952.417 C 304.806 951.496 309.394 947.847 309.394 947.167 C 317.804 940.709 327.481 936.615 337.331 932.917 Z" fill="#E3721E" id="flft shade 3" style="visibility: hidden;"/>
    <path d="M 464.126 912.713 C 465.133 916.339 465.409 919.847 465.649 923.592 C 466.226 926.161 467.059 927.119 469.126 928.713 C 469.786 928.713 470.446 928.713 471.126 928.713 C 471.126 925.743 471.126 922.773 471.126 919.713 C 471.786 919.383 472.446 919.053 473.126 918.713 C 473.151 919.378 473.176 920.043 473.202 920.729 C 473.318 923.765 473.441 926.801 473.563 929.838 C 473.602 930.884 473.642 931.931 473.682 933.01 C 473.745 934.537 473.745 934.537 473.809 936.095 C 473.846 937.028 473.883 937.96 473.92 938.92 C 474.085 941.751 474.085 941.751 474.626 944.672 C 475.141 947.803 475.332 950.816 475.442 953.986 C 475.505 955.717 475.505 955.717 475.569 957.482 C 475.608 958.672 475.648 959.862 475.688 961.088 C 475.731 962.301 475.774 963.514 475.819 964.763 C 475.925 967.746 476.027 970.729 476.126 973.713 C 476.786 974.043 477.446 974.373 478.126 974.713 C 478.151 974.086 478.177 973.46 478.204 972.814 C 478.26 971.997 478.317 971.18 478.376 970.338 C 478.445 969.12 478.445 969.12 478.516 967.877 C 479.126 965.713 479.126 965.713 481.173 964.424 C 481.817 964.189 482.462 963.954 483.126 963.713 C 483.186 964.772 483.247 965.832 483.309 966.924 C 483.394 968.312 483.478 969.7 483.563 971.088 C 483.602 971.786 483.642 972.485 483.682 973.205 C 483.868 977.086 483.868 977.086 485.126 980.713 C 484.188 983.338 484.188 983.338 483.126 985.713 C 483.786 985.713 484.446 985.713 485.126 985.713 C 487.298 988.46 488.88 990.819 489.813 994.213 C 488.677 998.345 485.714 1000.544 482.126 1002.713 C 478.876 1003.338 478.876 1003.338 476.126 1002.713 C 474.188 1001.275 474.188 1001.275 473.126 998.713 C 473.189 995.66 473.593 992.716 474.126 989.713 C 473.053 990.022 471.981 990.331 470.876 990.65 C 467.126 991.713 467.126 991.713 464.751 992.15 C 464.214 992.336 463.678 992.521 463.126 992.713 C 462.796 993.703 462.466 994.693 462.126 995.713 C 462.857 990.346 463.455 987.119 467.673 983.568 C 470.707 980.036 470.821 977.53 470.626 973.088 C 470.608 972.343 470.59 971.599 470.572 970.832 C 470.278 962.921 469.007 955.189 467.61 947.409 C 466.878 943.334 466.177 939.254 465.484 935.172 C 465.128 933.079 464.766 930.987 464.396 928.896 C 463.516 923.768 462.806 918.919 463.126 913.713 C 463.456 913.383 463.786 913.053 464.126 912.713 Z" fill="#F99127" id="flft shading" style="visibility: hidden;"/>
    <path d="M 543.126 909.713 C 550.389 912.414 556.743 916.782 562.79 921.584 C 571.668 928.725 571.668 928.725 582.688 930.631 C 586.732 930.767 589.87 932.394 593.126 934.713 C 597.866 939.817 598.503 943.195 598.387 950.017 C 598.126 952.713 598.126 952.713 596.751 955.65 C 589.677 961.208 581.961 962.756 573.126 961.713 C 568.225 960.806 565.208 959.967 561.887 956.119 C 559.713 951.915 559.658 948.97 559.876 944.338 C 559.894 943.602 559.912 942.866 559.93 942.107 C 559.977 940.308 560.049 938.51 560.126 936.713 C 558.714 936.252 558.714 936.252 557.274 935.783 C 554.732 934.919 552.925 931.041 550.571 929.773 C 550.571 929.113 551.017 929.077 551.017 928.397 C 556.767 930.272 555.876 932.588 558.126 933.713 C 558.786 931.733 559.446 929.753 560.126 927.713 C 559.105 927.372 559.105 927.372 558.063 927.025 C 554.329 925.357 551.404 923.155 548.126 920.713 C 548.456 919.723 548.786 918.733 549.126 917.713 C 549.786 917.383 550.446 917.053 551.126 916.713 C 550.548 916.375 549.971 916.037 549.376 915.689 C 548.262 915.02 548.262 915.02 547.126 914.338 C 546.383 913.897 545.641 913.456 544.876 913.002 C 544.298 912.576 543.721 912.151 543.126 911.713 C 543.126 911.053 543.126 910.393 543.126 909.713 Z" fill="#E3701F" id="flft toe shade -1" style="visibility: hidden;"/>
  </g>
  <g id="front right ft" transform="matrix(1, 0, 0, 1, -2.2737367544323206e-13, 0)">
    <path d="M 805.872 848.261 C 814.994 869.594 837.283 866.359 853.235 854.515 C 853.73 855.196 853.466 865.095 856.45 867.632 C 858.012 868.987 880.7 887.885 881.494 888.45 C 891.749 895.747 927.126 919.55 933.184 923.937 C 938.365 927.686 943.655 931.233 948.997 934.749 C 963.3 944.177 963.3 944.177 968.747 949.624 C 970.762 949.95 972.785 950.234 974.809 950.499 C 983.278 951.768 989.457 953.641 995.747 959.624 C 997.872 963.874 997.103 968.534 995.684 972.874 C 994.474 982.773 967.477 988.136 960.919 974.546 C 958.529 970.896 956.569 967.743 955.684 963.437 C 954.049 956.786 950.477 953.855 944.934 950.249 C 935.191 944.831 924.386 941.785 913.747 938.624 C 912.944 938.38 912.142 938.135 911.315 937.883 C 897.619 933.83 883.924 934.196 869.747 934.624 C 870.205 936.366 877.61 956.498 878.055 957.464 C 885.463 973.091 900.099 983.826 900.809 984.062 C 905.289 985.563 907.088 987.757 909.747 991.624 C 911.405 996.6 911.835 1001.187 909.653 1006.073 C 906.102 1011.787 902.401 1015.208 895.86 1017.198 C 887.891 1018.804 880.664 1017.939 873.747 1013.624 C 869.117 1010.466 868.316 1011.867 866.539 1003.103 C 865.952 981.497 866.683 982.211 858.747 966.624 C 858.247 965.866 843.367 950.425 842.657 949.808 C 835.319 943.664 825.932 938.219 816.026 938.989 C 807.656 939.812 797.316 969.277 801.747 982.624 C 813.076 994.819 807.647 998.751 806.098 1003.694 C 803.633 1008.563 800.506 1010.414 795.747 1012.624 C 789.826 1014.467 783.194 1014.485 777.372 1012.437 C 773.304 1009.628 769.27 1006.47 767.747 1001.624 C 766.93 994.744 768.49 990.104 772.747 984.624 C 780.094 977.624 778.49 980.512 784.747 977.624 C 784.735 948.949 784.735 948.949 775.747 922.624 C 764.267 916.884 745.736 924.731 734.54 928.334 C 730.854 929.584 727.292 931.022 723.747 932.624 C 723.062 932.881 722.378 933.137 721.673 933.401 C 719.705 934.194 719.705 934.194 717.747 936.624 C 717.231 939.668 717.059 942.564 717.048 945.651 C 716.614 949.933 714.632 952.476 712.059 955.812 C 705.908 960.633 697.194 960.265 689.747 959.624 C 685.641 958.771 682.549 957.266 679.247 954.624 C 676.939 950.008 677.01 945.682 677.747 940.624 C 680.202 935.622 683.744 932.126 688.747 929.624 C 690.809 929.546 692.871 929.486 694.934 929.437 C 701.462 928.99 704.508 927.451 708.747 922.624 C 712.272 918.766 716.339 916.002 720.622 913.062 C 726.375 909.047 732.07 904.977 737.622 900.687 C 738.198 900.251 738.774 899.815 739.367 899.366 C 742.687 896.768 744.821 894.364 746.747 890.624 C 753.118 878.615 760.57 873.712 773.098 869.03 C 777.022 867.518 780.678 865.717 784.403 863.78 C 786.912 862.543 789.452 861.511 792.059 860.499 C 796.495 858.772 802.469 851.664 805.872 848.261 Z" id="ft right" style="fill: rgb(254, 223, 0);"/>
    <path d="M 801.126 860.713 C 800.606 861.417 800.087 862.12 799.551 862.845 C 789.858 876.571 786.322 891.156 785.126 907.713 C 784.136 908.043 783.146 908.373 782.126 908.713 C 780.26 904.009 778.757 899.765 778.126 894.713 C 773.792 895.273 771.037 896.845 767.438 899.275 C 762.327 902.713 739.076 919.871 738.309 920.435 C 735.905 921.842 733.869 922.322 731.126 922.713 C 731.977 918.324 734.6 912.261 738.126 910.713 C 743.497 906.713 753.106 900.393 754.126 899.713 C 756.824 897.233 755.766 894.484 756.126 893.713 C 754.772 892.735 749.972 896.365 748.126 897.713 C 746.605 898.029 746.472 895.665 747.462 894.517 C 748.77 893 749.476 891.053 750.415 889.283 C 756.312 878.489 764.292 874.299 775.477 870.119 C 778.584 868.921 781.485 867.615 784.438 866.088 C 797.942 859.121 797.942 859.121 801.126 860.713 Z" id="frft shadee 8" style="fill: rgb(202, 177, 0);"/>
    <path d="M 843.173 876.752 C 848.052 876.377 855.794 901.712 858.126 906.713 C 863.523 918.286 868.617 929.017 873.563 941.088 C 875.541 945.914 877.216 950.859 879.126 955.713 C 883.242 966.176 897.899 981.096 900.438 984.275 C 901.426 985.512 903.709 988.718 902.126 988.713 C 896.721 988.694 890.446 989.003 886.2 985.658 C 878.711 979.758 874.511 970.58 869.126 962.713 C 868.749 962.163 862.127 952.637 859.751 948.525 C 858.548 946.443 846.27 924.163 844.929 921.051 C 842.641 915.744 837.436 905.303 837.126 904.713 C 835.11 900.87 832.77 885.465 833.126 882.713 C 833.254 881.721 835.229 883.154 836.126 882.713 C 838.887 881.355 840.695 876.943 843.173 876.752 Z" id="fr ft ref 2" style="fill: rgb(255, 240, 130);"/>
    <path d="M 869.126 930.713 C 870.116 931.208 870.116 931.208 871.126 931.713 C 871.126 932.373 871.126 933.033 871.126 933.713 C 872.201 933.384 873.276 933.055 874.383 932.717 C 879.909 931.334 885.34 931.532 891.001 931.65 C 893.06 931.685 895.12 931.715 897.18 931.74 C 898.534 931.767 898.534 931.767 899.914 931.794 C 902.168 931.864 902.168 931.864 904.126 930.713 C 910.27 930.201 913.195 930.679 918.126 934.713 C 919.007 935.718 919.007 935.718 919.907 936.744 C 922.65 939.178 924.814 939.688 928.376 940.463 C 929.453 940.705 930.531 940.947 931.641 941.197 C 932.871 941.452 932.871 941.452 934.126 941.713 C 934.126 942.373 934.126 943.033 934.126 943.713 C 935.136 943.981 936.147 944.249 937.188 944.525 C 944.841 946.78 949.356 949.485 955.11 955.068 C 957.079 957.029 957.079 957.029 960.126 956.713 C 960.524 957.995 960.524 957.995 960.93 959.303 C 961.284 960.407 961.637 961.512 962.001 962.65 C 962.349 963.752 962.697 964.854 963.055 965.99 C 963.826 968.841 963.826 968.841 966.126 969.713 C 966.786 969.383 967.446 969.053 968.126 968.713 C 968.72 965.877 969.189 963.565 969.126 960.713 C 967.813 958.983 967.813 958.983 966.126 957.713 C 965.438 955.025 962.193 954.9 961.881 952.588 C 962.541 952.918 964.2 954.871 964.88 955.211 C 964.88 955.871 967.126 956.406 967.126 957.086 C 969.102 957.584 966.281 959.755 970.252 958.959 C 970.252 960.609 971.126 960.013 971.126 961.713 C 971.765 962.022 972.404 962.331 973.063 962.65 C 975.126 963.713 975.126 963.713 976.126 964.713 C 977.769 964.811 979.417 964.842 981.063 964.838 C 981.959 964.84 982.855 964.843 983.778 964.845 C 986.147 964.867 986.147 964.867 988.126 963.713 C 988.778 961.688 988.778 961.688 989.126 959.713 C 988.156 959.61 987.187 959.506 986.188 959.4 C 983.134 958.95 980.213 958.272 977.251 957.4 C 976.49 957.177 975.73 956.954 974.946 956.724 C 973.126 955.713 973.126 955.713 972.368 953.607 C 972.248 952.669 972.248 952.669 972.126 951.713 C 980.43 951.243 988.695 952.27 995.251 957.775 C 998.34 960.68 999.083 962.069 999.376 966.463 C 999.294 970.578 998.543 973.282 996.126 976.713 C 990.624 980.784 985.548 981.899 978.813 982.025 C 976.87 982.081 976.87 982.081 974.887 982.138 C 969.674 981.548 966.73 979.536 963.298 975.635 C 960.908 971.985 958.948 968.832 958.063 964.525 C 956.428 957.875 952.856 954.943 947.313 951.338 C 937.569 945.919 926.765 942.879 916.126 939.713 C 915.329 939.468 914.531 939.224 913.71 938.972 C 899.716 934.794 885.612 935.293 871.126 935.713 C 870.466 934.063 869.806 932.413 869.126 930.713 Z" fill="#E36D26" id="frft shade 3" style="visibility: hidden;"/>
    <path d="M 755.126 892.713 C 756.116 893.703 756.116 893.703 757.126 894.713 C 756.466 895.373 755.806 896.033 755.126 896.713 C 754.981 897.393 754.837 898.074 754.688 898.775 C 754.41 899.734 754.41 899.734 754.126 900.713 C 753.136 901.043 751.126 903.033 751.126 903.713 C 749.476 904.043 746.126 906.033 746.126 906.713 C 744.649 907.834 744.649 907.834 742.501 909.15 C 738.161 911.936 734.148 914.997 730.126 918.213 C 715.671 929.713 715.671 929.713 712.126 929.713 C 712.373 930.62 712.621 931.528 712.876 932.463 C 713.126 935.713 713.126 935.713 711.501 937.775 C 710.325 938.734 710.325 938.734 709.126 939.713 C 708.28 940.579 707.434 941.445 706.563 942.338 C 703.453 945.368 701.422 946.932 697.114 947.127 C 695.978 947.185 695.978 947.185 694.819 947.244 C 694.033 947.275 693.248 947.306 692.438 947.338 C 691.242 947.396 691.242 947.396 690.022 947.455 C 688.057 947.549 686.091 947.632 684.126 947.713 C 683.438 950.066 683.438 950.066 683.126 952.713 C 685.363 956.069 686.059 956.293 689.751 957.4 C 690.568 957.652 691.385 957.903 692.227 958.162 C 692.854 958.344 693.48 958.525 694.126 958.713 C 694.126 959.043 694.126 959.373 694.126 959.713 C 688.83 960.217 686.259 959 682.126 955.713 C 679.146 951.243 679.517 946.953 680.126 941.713 C 682.581 936.71 686.123 933.214 691.126 930.713 C 693.188 930.635 695.25 930.575 697.313 930.525 C 703.841 930.078 706.887 928.54 711.126 923.713 C 714.667 919.836 718.762 917.046 723.063 914.088 C 728.526 910.296 733.859 906.414 739.063 902.275 C 744.132 898.311 749.215 895.248 755.126 892.713 Z" fill="#E88D27" id="frft shadee" style="visibility: hidden;"/>
    <path d="M 849.126 860.713 C 853.334 860.938 855.6 866.112 858.958 868.658 C 889.5 891.816 920.785 913.042 951.376 935.838 C 959.109 941.601 967.007 947.207 974.126 953.713 C 974.676 954.216 978.211 957.425 978.211 957.425 C 978.211 957.425 985.009 957.036 989.126 959.713 C 990.551 960.639 989.669 964.001 988.126 964.713 C 984.482 966.395 979.946 966.946 976.126 965.713 C 972.695 964.605 972.4 960.66 969.876 958.086 C 969.138 957.333 965.757 954.301 964.88 953.716 C 961.397 951.394 961.989 950.296 960.126 947.713 C 958.115 944.924 953.918 944.753 950.813 943.275 C 932.27 934.452 915.151 928.182 899.126 918.713 C 888.053 912.17 872.738 906.474 864.126 895.713 C 857.255 887.128 846.567 860.576 849.126 860.713 Z" fill="#FCDB6C" id="fr ft ref 1" style=""/>
  </g>
  <g id="back right ft" transform="matrix(1, 0, 0, 1, -2.2737367544323206e-13, 0)">
    <path d="M 904.276 863.776 C 905.47 863.909 924.099 866.581 932.151 868.542 C 939.138 870.239 978.55 878.234 980.764 878.443 C 988.288 879.141 995.785 879.673 1003.339 879.901 C 1010.147 880.222 1014.429 881.617 1019.339 886.526 C 1025.352 890.833 1025.131 896.799 1018.816 898.311 C 1012.449 899.952 1008.363 898.349 1004.339 894.526 C 1001.674 894.089 999.026 893.804 996.339 893.526 C 996.339 892.866 974.38 890.425 963.339 890.526 C 965.52 892.708 970.012 892.656 973.026 893.214 C 980.386 894.623 987.573 896.339 994.776 898.401 C 1004.774 901.261 1014.866 903.371 1025.09 905.258 C 1035.534 907.278 1046.426 909.645 1053.182 918.487 C 1055.068 921.813 1055.136 923.804 1054.339 927.526 C 1051.951 933.288 1048.902 936.364 1043.206 938.835 C 1036.463 941.331 1029.654 941.257 1022.651 939.714 C 1016.448 935.617 1012.381 929.265 1007.979 923.362 C 1000.08 914.879 984.406 912.697 973.472 910.045 C 971.673 909.607 920.561 900.25 918.533 900.009 C 899.657 897.769 901.09 895.977 892.983 890.143 C 889.88 887.91 871.379 871.501 869.339 869.526 C 871.057 865.675 871.057 865.675 873.589 864.339 C 883.725 861.344 893.938 862.621 904.276 863.776 Z" id="bck right ft" style="fill: rgb(254, 223, 0);"/>
    <path d="M 957.789 893.704 C 971.734 893.841 985.291 897.857 998.609 901.661 C 1007.71 904.206 1016.938 906.034 1026.228 907.748 C 1036.672 909.769 1047.564 912.135 1054.32 920.977 C 1056.206 924.303 1056.274 926.295 1055.477 930.016 C 1053.089 935.779 1050.04 938.854 1044.344 941.325 C 1037.601 943.822 1030.792 943.747 1023.789 942.204 C 1017.586 938.108 1013.519 931.755 1009.117 925.852 C 1001.218 917.369 985.544 915.187 974.61 912.535 C 972.811 912.098 971.016 911.641 969.223 911.18 C 951.623 906.822 927.995 901.511 910.071 898.893 C 909.741 897.243 914.817 898.716 914.477 897.016 C 918.652 896.026 922.645 895.834 926.93 895.735 C 927.631 895.717 928.331 895.698 929.053 895.679 C 932.037 895.601 935.02 895.533 938.004 895.464 C 940.188 895.413 942.371 895.355 944.555 895.298 C 946.51 895.252 946.51 895.252 948.505 895.206 C 951.948 894.986 954.077 893.794 957.789 893.704 Z" id="bck right shade" style="fill: rgb(190, 167, 2);"/>
    <path d="M 956.067 892.615 C 957.859 892.632 957.859 892.632 959.688 892.65 C 961.484 892.663 961.484 892.663 963.317 892.677 C 964.243 892.689 965.17 892.7 966.125 892.712 C 966.125 893.042 966.125 893.372 966.125 893.712 C 963.485 894.042 960.845 894.372 958.125 894.712 C 958.936 894.877 958.936 894.877 959.764 895.044 C 1003.042 903.968 1003.042 903.968 1016.125 914.712 C 1016.62 916.197 1016.62 916.197 1017.125 917.712 C 1013.165 918.207 1013.165 918.207 1009.125 918.712 C 1009.125 919.372 1009.125 920.032 1009.125 920.712 C 1009.745 920.964 1010.365 921.215 1011.004 921.474 C 1013.504 922.934 1013.971 923.893 1015.063 926.525 C 1017.678 932.12 1021.139 935.952 1027.047 938.212 C 1033.686 939.81 1042.851 939.635 1049.125 936.712 C 1050.358 934.799 1050.358 934.799 1051.125 932.712 C 1051.455 932.052 1051.785 931.392 1052.125 930.712 C 1052.196 928.505 1052.209 926.296 1052.188 924.087 C 1052.179 922.899 1052.17 921.71 1052.16 920.486 C 1052.149 919.571 1052.137 918.655 1052.125 917.712 C 1056.055 921.306 1056.055 921.306 1056.688 924.962 C 1055.961 929.808 1054.424 933.082 1051.125 936.712 C 1043.872 941.623 1036.703 942.26 1028.125 941.712 C 1019.39 939.788 1014.829 931.338 1009.766 924.548 C 1001.867 916.065 986.193 913.883 975.258 911.231 C 973.459 910.794 971.665 910.337 969.871 909.876 C 952.272 905.518 929.004 901.288 911.079 898.67 C 910.749 897.02 915.465 897.412 915.125 895.712 C 919.301 894.722 923.293 894.53 927.578 894.431 C 928.279 894.413 928.98 894.394 929.702 894.375 C 932.685 894.297 935.669 894.229 938.652 894.16 C 940.836 894.109 943.02 894.051 945.203 893.994 C 947.159 893.948 947.159 893.948 949.153 893.902 C 952.539 893.686 952.685 892.727 956.067 892.615 Z" id="rght bck ft shade" style="fill: rgb(216, 189, 0);"/>
  </g>
  <g id="back left ft" transform="matrix(1, 0, 0, 1, -2.2737367544323206e-13, 0)">
    <path d="M 242.716 896.648 C 237.836 886.899 243.565 883.869 251.772 883.059 C 269.137 881.346 314.361 870.379 311.641 871.059 C 312.923 870.705 358.259 862.863 362.446 863.725 C 388.068 869.002 390.558 858.891 402.025 866.81 C 397.882 875.756 370.338 893.846 370.338 894.526 C 360.371 903.254 351.898 904.721 339.026 903.964 C 336.072 903.839 333.117 903.739 330.162 903.647 C 329.437 903.622 328.712 903.596 327.964 903.57 C 305.807 902.99 274.266 908.942 256.338 922.526 C 253.109 925.684 250.202 929.037 247.338 932.526 C 242.625 937.947 237.589 941.017 230.404 941.878 C 224.07 942.055 217.999 941.573 212.338 938.526 C 205.288 937.242 203.529 921.659 208.029 917.315 C 213.907 909.675 219.162 910.57 224.838 908.901 C 225.542 908.687 295.067 889.21 306.338 886.589 C 307.227 886.377 308.131 886.221 309.031 885.948 C 311.159 885.303 275.923 884.036 257.988 896.894 C 248.864 903.435 242.716 896.648 242.716 896.648 Z" id="lft back ft shade" style="fill: rgb(254, 223, 0);"/>
    <path d="M 326.126 885.713 C 326.126 886.703 326.126 887.693 326.126 888.713 C 325.119 888.932 324.112 889.151 323.075 889.377 C 312.785 891.674 302.788 894.542 292.778 897.845 C 289.919 898.78 287.052 899.688 284.184 900.595 C 272.06 904.476 260.392 908.75 249.126 914.713 C 248.504 915.041 247.883 915.368 247.242 915.706 C 243.795 917.592 241.02 919.498 238.376 922.4 C 235.196 925.869 233.261 926.636 228.438 926.963 C 223.3 926.896 218.347 925.618 214.395 922.228 C 213.126 920.713 213.126 920.713 213.126 918.775 C 215.106 914.691 218.56 912.939 222.657 911.299 C 223.975 910.881 225.299 910.478 226.626 910.088 C 227.329 909.873 228.032 909.659 228.757 909.438 C 234.162 907.85 239.53 906.967 245.114 906.232 C 249.082 905.548 252.622 904.228 256.364 902.771 C 260.832 901.059 265.402 899.712 269.987 898.35 C 271.557 897.882 273.126 897.41 274.694 896.934 C 285.766 893.582 296.855 890.396 308.126 887.775 C 309.014 887.564 309.903 887.353 310.819 887.135 C 316.046 885.96 320.769 885.508 326.126 885.713 Z" id="backft shadee" style="fill: rgb(255, 240, 132);"/>
  </g>
  <path d="M 717.126 255.713 C 717.126 256.043 717.126 256.373 717.126 256.713 C 709.83 256.964 709.83 256.964 706.44 255.754 C 699.947 253.714 693.012 253.598 686.251 253.088 C 685.401 253.023 684.551 252.958 683.675 252.891 C 667.168 251.67 650.674 251.383 634.126 251.338 C 632.959 251.33 631.792 251.322 630.591 251.314 C 610.32 251.208 590.37 252.486 570.666 257.528 C 564.495 259.067 564.495 259.067 561.126 257.713 C 561.126 257.053 561.126 256.393 561.126 255.713 C 576.329 251.341 591.357 247.323 607.126 245.713 C 608.461 245.576 608.461 245.576 609.823 245.436 C 642.046 242.552 687.731 239.619 717.126 255.713 Z" id="head ref" style="fill: rgb(47, 98, 203);" transform="matrix(1, 0, 0, 1, -2.2737367544323206e-13, 0)"/>
  <g id="nose" transform="matrix(1, 0, 0, 1, -386.709356348356, -33.68051960588276)">
    <path d="M 976.238 445.66 C 980.11 447.01 982.717 448.954 985.175 452.285 C 988.248 456.739 988.321 460.38 987.522 467.162 C 981.71 485.084 967.767 474.197 966.144 469.004 C 963.431 464.121 961.957 459.282 962.238 453.66 C 964.843 446.497 968.813 444.57 976.238 445.66 Z" id="left nose" style="fill: rgb(255, 240, 132);"/>
    <path d="M 968.238 452.66 C 972.935 452.121 975.131 451.977 979.175 454.473 C 982.188 457.668 982.539 466.307 982.566 467.187 C 984.381 473.529 975.153 475.183 971.538 471.105 C 967.551 466.452 966.137 463.926 966.007 457.633 C 966.238 455.66 966.238 455.66 968.238 452.66 Z" fill="#1A2C34" id="right nostril"/>
    <path d="M 1083.488 447.473 C 1086.208 449.637 1087.902 451.236 1088.714 454.684 C 1089.247 463.12 1085.192 469.143 1080.238 475.661 C 1077.717 477.387 1057.077 482.642 1061.812 460.454 C 1062.681 454.754 1066.064 450.484 1070.238 446.661 C 1074.979 444.862 1079.071 445.01 1083.488 447.473 Z" id="right nose color" style="fill: rgb(255, 240, 132);"/>
    <path d="M 1080.238 452.66 C 1080.898 452.99 1081.558 453.32 1082.238 453.66 C 1083.074 461.191 1080.591 465.593 1076.238 471.66 C 1074.238 473.66 1074.238 473.66 1071.3 474.035 C 1068.238 473.66 1068.238 473.66 1066.363 472.16 C 1064.775 468.632 1064.571 465.42 1065.238 461.66 C 1067.05 458.348 1067.05 458.348 1069.238 455.66 C 1069.65 455.041 1070.063 454.423 1070.488 453.785 C 1073.554 451.814 1076.669 452.434 1080.238 452.66 Z" id="left nostril" fill="#142620"/>
  </g>
</svg>