<?xml version="1.0" encoding="utf-8"?>
<svg viewBox="56.3668 20.8402 481.2826 510.152" width="481.2826" height="510.152" xmlns="http://www.w3.org/2000/svg" xmlns:xlink="http://www.w3.org/1999/xlink" xmlns:bx="https://boxy-svg.com">
  <defs>
    <radialGradient gradientUnits="userSpaceOnUse" cx="352.015" cy="274.624" r="29.158" id="gradient-0-1" gradientTransform="matrix(0.997604, 0.069187, -0.069187, 0.997604, 17.726416, -18.018547)" xlink:href="#gradient-0"/>
    <linearGradient id="gradient-0" bx:pinned="true">
      <stop offset="0.062" style="stop-color: rgb(96, 104, 65);"/>
      <stop offset="0.817" style="stop-color: rgb(151, 150, 107);"/>
      <stop offset="1" style="stop-color: rgb(205, 196, 149);"/>
    </linearGradient>
    <radialGradient id="gradient-0-0" gradientUnits="userSpaceOnUse" cx="210.591" cy="284.041" r="26.056" gradientTransform="matrix(0.997604, 0.069187, -0.069187, 0.997604, 17.726432, -18.018548)" xlink:href="#gradient-0"/>
    <linearGradient gradientUnits="userSpaceOnUse" x1="291.554" y1="356.842" x2="291.554" y2="393.739" id="gradient-2" gradientTransform="matrix(0.999965, 0.008367, -0.008367, 0.999965, -7.562309, -7.250353)">
      <stop offset="0" style="stop-color: rgb(111, 81, 67);"/>
      <stop offset="1" style="stop-color: rgb(64, 36, 25);"/>
    </linearGradient>
  </defs>
  <path style="" d="M 124.985 60.494 C 129.391 59.025 113.78 38.031 109.374 39.5 C 102.261 42.345 113.305 69.965 115.374 69.138 L 124.985 60.494 Z" id="eartip_l" transform="matrix(1, 0, 0, 1, 1.4210854715202004e-14, 0)"/>
  <path style="" d="M 439.851 41.879 C 438.578 41.37 449.906 18.077 457.497 21.113 C 464.626 31.41 450.299 53.489 449.592 52.467 L 439.851 41.879 Z" id="eartip_r" transform="matrix(1, 0, 0, 1, 1.4210854715202004e-14, 0)"/>
  <path d="M 417.501 374.94 C 418.156 373.38 421.892 334.321 421.892 334.321 L 321.285 164.532 C 321.285 164.532 297.513 160.419 286.114 160.367 C 274.54 160.314 262.906 159.744 251.399 160.987 C 242.897 161.905 226.242 166.017 226.242 166.017 L 127.881 360.256 C 127.881 360.256 138.395 385.048 145.543 396.39 C 152.046 406.711 158.185 418.207 168.267 425.075 C 183.526 435.47 201.428 433.413 218.268 440.983 C 226.796 444.817 234.097 450.95 242.187 455.639 C 248.673 459.398 254.87 463.872 261.915 466.437 C 268.596 468.869 275.723 470.812 282.829 470.619 C 289.68 470.432 297.329 467.874 302.744 465.499 C 311.438 461.687 317.817 457.891 324.48 452.786 C 330.054 448.514 334.52 441.341 339.479 437.991 C 354.149 428.081 374.436 429.231 389.32 419.645 C 396.671 414.911 403.302 407.48 407.754 400.982 C 413.962 391.923 413.252 385.066 417.501 374.94 Z" style="fill: rgb(236, 250, 249); stroke: rgb(0, 0, 0); transform-origin: 277.177px 314.351px;" id="lower_face"/>
  <path d="M 371.833 104.137 C 366.039 111.076 354.455 124.959 354.455 124.959 L 322.257 163.498 C 322.257 163.498 297.683 159.493 286.285 159.44 C 274.711 159.387 263.077 158.818 251.57 160.061 C 243.068 160.979 226.413 165.09 226.413 165.09 C 226.413 165.09 205.916 139.387 195.822 126.415 C 183.955 111.165 174 94.294 160.586 80.387 C 153.14 72.667 145.606 64.173 135.76 59.92 C 130.006 57.435 122.819 54.981 117.106 57.559 C 110.908 60.356 107.725 67.957 105.633 74.428 C 102.13 85.261 104.672 108.572 104.672 108.572 C 104.672 108.572 104.889 141.965 107.306 158.431 C 108.874 169.11 113.986 179.143 114.966 189.893 C 115.963 200.847 110.711 212.096 113.082 222.837 C 114.607 229.743 122.445 234.497 123.1 241.54 C 123.9 250.13 116.36 257.657 115.3 266.219 C 113.815 278.217 116.027 290.42 117.471 302.424 C 119.814 321.9 127.983 360.327 127.983 360.327 L 148.928 343.269 C 148.928 343.269 164.168 329.467 171.034 321.838 C 176.238 316.059 180.302 309.327 185.429 303.479 C 199.057 287.934 226.152 279.656 228.807 259.154 C 229.779 251.647 222.074 245.509 217.583 239.415 C 213.025 233.231 204.017 229.964 201.817 222.603 C 200.516 218.25 204.685 208.274 204.155 209.175 C 203.624 210.075 210.151 215.051 212.9 218.217 C 219.484 225.8 231.403 241.995 231.403 241.995 C 231.403 241.995 234.758 228.533 235.625 221.667 C 236.485 214.862 235.23 207.838 236.581 201.113 C 237.467 196.705 241.21 188.443 241.21 188.443 L 252.204 205.608 L 250.931 169.902 C 250.931 169.902 256.357 191.435 263.549 189.725 C 269.462 188.318 259.327 175.173 263.524 170.775 C 265.275 168.94 270.693 167.387 271.083 169.894 C 272.295 177.7 279.749 186.812 275.963 194.133 C 274.587 196.796 269.043 195.08 267.743 197.781 C 261.61 210.525 271.937 226.294 278.487 238.83 C 284.05 249.476 296.083 255.715 301.894 266.228 C 308.529 278.234 308.558 292.989 314.166 305.508 C 316.729 311.229 318.357 318.581 323.826 321.643 C 327.236 323.553 333.04 324.513 335.551 321.519 C 337.712 318.941 331.505 313.928 333.898 311.563 C 337.019 308.477 346.86 313.868 346.86 313.868 C 346.86 313.868 355.269 319.296 359.965 320.87 C 366.788 323.156 376.069 319.272 381.29 324.223 C 386.23 328.907 380.524 339.586 385.528 344.2 C 393.332 351.396 417.114 348.265 417.114 348.265 L 417.603 375.011 C 417.603 375.011 424.845 357.254 427.44 348.044 C 432 331.857 435.746 315.324 437.43 298.592 C 438.436 288.601 439.412 278.321 437.471 268.47 C 435.934 260.67 428.641 254.361 428.396 246.415 C 428.057 235.479 435.167 229.021 436.783 218.2 C 438.147 209.06 437.674 196.867 438.096 187.634 C 438.487 179.093 437.135 173.368 439.051 165.037 C 440.822 157.337 446.7 142.603 446.7 142.603 C 446.7 142.603 455.14 96.058 456.248 72.501 C 456.579 65.453 455.371 51.351 455.371 51.351 C 455.371 51.351 450.276 42.107 445.751 40.213 C 439.536 37.613 435.835 39.331 429.575 41.82 C 419.518 45.818 412.057 54.711 404.553 62.509 C 396.182 71.209 390.102 81.859 382.565 91.291 C 379.082 95.651 375.41 99.854 371.833 104.137 Z" style="fill: rgb(120, 109, 72); stroke: rgb(0, 0, 0); transform-origin: 271.799px 198.765px;" id="top half"/>
  <path d="M 320.432 297.959 C 322.616 302.512 327.659 305.299 332.211 307.484 C 336.483 309.534 341.368 310.781 346.099 310.52 C 353.258 310.124 360.015 306.742 366.479 303.64 C 371.278 301.338 376.481 299.089 379.93 295.036 C 383.153 291.25 385.278 286.286 385.855 281.349 C 386.449 276.266 385.046 270.997 383.172 266.236 C 381.152 261.104 378.752 255.434 374.183 252.343 C 369.58 249.227 363.378 249.141 357.819 249.135 C 353.538 249.129 349.116 249.823 345.211 251.577 C 338.17 254.74 330.404 259.705 325.438 266.236 C 322.257 270.42 320.634 275.768 319.775 280.954 C 318.846 286.55 317.979 292.848 320.432 297.959 Z" style="transform-origin: 352.718px 279.853px;" id="eyerim_r"/>
  <path d="M 187.882 299.322 C 194.361 304.719 200.24 307.54 207.303 309.285 C 210.11 309.979 214.169 309.875 215.977 309.375 C 220.27 308.187 224.632 307.1 228.7 305.282 C 232.052 303.784 236.33 302.876 238.208 299.721 C 240.114 296.52 238.637 292.275 238.568 288.55 C 238.457 282.565 240.019 275.98 237.322 270.634 C 233.77 263.593 229.764 258.752 224.198 254.712 C 219.438 251.259 212.232 248.9 207.775 248.266 C 200.263 247.198 192.816 251.312 185.802 254.206 C 180.287 256.482 173.807 258.284 170.258 263.08 C 169.18 264.538 169.26 267.455 169.26 267.455 C 169.26 267.455 175.996 267.808 177.641 270.227 C 180.055 273.779 174.409 278.784 175.515 282.934 C 177.224 289.343 182.623 294.943 187.882 299.322 Z" style="transform-origin: 204.384px 278.646px;" id="eyerim_l"/>
  <path d="M 378.903 270.501 C 371.011 235.963 319.97 256.308 320.522 283.702 C 321.059 310.269 351.652 314.999 368.944 300.495 C 379.208 291.886 380.255 276.422 378.903 270.501 Z" style="fill: url('#gradient-0-1'); transform-origin: 349.898px 280.303px;" id="eye_right"/>
  <path d="M 233.118 289.416 C 238.652 268.398 218.772 245.965 196.503 255.362 C 180.667 262.044 177.669 285.331 188.944 296.902 C 191.627 299.655 208.467 307.066 211.866 306.877 C 216.444 306.622 230.558 299.14 233.118 289.416 Z" style="fill: url('#gradient-0-0'); transform-origin: 208.161px 279.911px;" id="eye_left"/>
  <path style="transform-origin: 208.915px 276.652px;" d="M 206.472 277.018 C 206.516 274.614 206.56 272.18 207.075 269.832 C 207.44 268.173 207.764 266.374 208.818 265.04 C 209.07 264.722 209.436 264.3 209.836 264.37 C 210.2 264.434 210.34 264.95 210.502 265.259 C 211.434 267.044 211.674 269.156 211.764 271.168 C 211.854 273.168 211.369 275.154 211.041 277.129 C 210.459 280.632 209.582 286.093 208.84 287.554 C 208.567 288.091 208.108 289.037 207.637 288.905 C 207.169 288.773 207.085 287.916 206.955 287.373 C 206.573 285.783 206.408 280.473 206.472 277.018 Z" id="pupil_l" transform="matrix(1, 0, 0, 1, 2e-12, 0)"/>
  <path style="transform-origin: 348.372px 276.292px;" d="M 347.587 285.235 C 347.587 285.235 347.034 281.64 346.777 279.839 C 346.575 278.418 346.297 277.003 346.202 275.571 C 346.1 274.056 346.083 273.568 346.205 271.017 C 346.261 269.845 346.796 267.544 346.796 267.544 C 346.796 267.544 347.098 265.909 347.436 265.158 C 347.664 264.65 347.799 263.799 348.355 263.763 C 349 263.72 349.371 264.635 349.625 265.23 C 350.254 266.703 350.377 268.568 350.586 270.264 C 350.79 271.918 350.792 273.491 350.872 275.256 C 350.948 276.941 350.704 278.626 350.566 280.306 C 350.486 281.286 350.004 287.022 350.004 287.022 C 350.004 287.022 349.852 288.391 349.34 288.717 C 349.006 288.928 348.463 288.888 348.158 288.638 C 347.806 288.348 347.806 287.313 347.806 287.313 L 347.587 285.235 Z" id="pupil_r"/>
  <path style="transform-origin: 328.697px 227.356px;" d="M 329.158 242.997 L 334.233 232.222 L 336.167 222.155 L 333.052 213.593 L 325.818 210.928 L 322.293 217.175 L 325.366 226.352 L 327.58 234.542 L 326.346 243.421 L 329.158 242.997 Z" id="top_marks_4"/>
  <path style="transform-origin: 304.992px 197.908px;" d="M 307.018 191.347 L 304.659 195.162 L 298.55 198.717 L 295.658 204.171 L 295.864 210.258 L 298.154 216.489 L 298.16 219.422 L 298.323 226.134 L 302.361 228.299 L 304.377 217.34 L 301.865 211.303 L 301.262 207.91 L 305.002 202.306 L 311.716 196.071 L 314.492 192.285 L 313.258 185.916 L 309.069 182.904 L 306.843 178.77 L 310.151 173.346 L 311.963 171.378 L 309.679 168.078 L 298.037 166.851 L 298.602 173.801 L 303.63 179.804 C 303.63 179.804 311.075 181.158 306.181 182.285 L 307.018 191.347 Z" id="top_marks_3"/>
  <path style="transform-origin: 281.088px 211.956px;" d="M 280.398 230.964 L 280.206 224.668 L 280.208 218.596 L 280.318 213.997 L 283.705 210.462 L 285.652 209.55 L 283.643 202.291 L 283.078 195.341 L 281.153 192.904 L 280.23 200.169 L 282.075 206.789 L 279.027 208.462 L 276.307 217.487 L 277.633 225.538 L 280.398 230.964 Z" id="top_marks_2"/>
  <path style="transform-origin: 219.837px 219.433px;" d="M 230.509 239.892 L 234.467 224.334 L 235.321 212.015 L 234.318 201.582 L 223.203 199.947 L 212.503 200.645 L 205.982 203.359 L 211.927 208.953 L 222.528 209.688 L 223.898 218.995 L 222.008 225.486 L 230.509 239.892 Z" id="top_marks_1"/>
  <path style="transform-origin: 359.604px 227.688px;" d="M 349.694 239.811 L 357.624 225.104 L 360.373 218.674 L 368.939 215.526 L 368.718 227.025 L 349.694 239.811 Z" id="top_marks_5"/>
  <path style="fill: rgb(201, 188, 148);" d="M 315.505 341.998 C 315.505 341.998 334.19 344.872 339.999 350.271 C 345.035 354.951 346.974 362.981 346.511 369.841 C 346.192 374.577 341.061 377.951 340.241 382.627 C 339.229 388.399 343.05 394.314 342.149 400.104 C 341.289 405.634 340.006 411.344 335.353 414.454 C 331.081 417.309 325.032 415.542 319.943 414.838 C 314.632 414.104 309.703 411.657 304.576 410.087 C 301.676 409.199 298.875 407.051 295.868 407.447 C 294.282 407.656 291.998 408.394 291.792 409.98 C 291.335 413.483 296.024 411.944 299.094 413.691 C 304.818 416.952 313.349 413.759 318.376 418.015 C 320.074 419.452 321.254 422.003 320.892 424.198 C 319.902 430.188 312.969 438.437 308.923 442.965 C 303.997 448.477 300.354 455.68 293.893 459.273 C 290.079 461.394 285.093 461.756 280.574 461.814 C 276.199 461.871 271.499 461.708 267.623 459.686 C 261.056 456.261 257.221 449.153 252.143 443.771 C 247.971 439.349 241.024 431.278 239.879 425.315 C 239.459 423.131 240.575 420.55 242.241 419.069 C 247.17 414.685 255.802 417.657 261.454 414.251 C 264.486 412.425 269.056 413.844 268.509 410.355 C 268.26 408.774 265.952 408.096 264.357 407.928 C 261.333 407.609 258.583 409.828 255.699 410.791 C 250.6 412.493 245.724 415.065 240.42 415.936 C 235.337 416.77 229.322 418.693 224.966 415.948 C 220.223 412.96 218.749 407.285 217.745 401.779 C 216.694 396.013 220.371 390.003 219.208 384.258 C 218.266 379.606 213.038 376.365 212.598 371.638 C 211.958 364.793 213.696 356.715 218.623 351.907 C 224.306 346.36 242.957 343.006 242.957 343.006 L 248.464 359.83 L 254.634 354.484 C 257.142 353.402 257.198 354.122 262.112 354.217 C 265.983 354.291 277.319 356.453 279.261 356.485 L 282.216 356.935 C 282.216 356.935 293.438 353.524 297.629 353.335 C 302.528 353.114 302.926 352.473 305.414 353.791 C 307.714 355.01 310.445 358.958 310.445 358.958 L 315.505 341.998 Z" id="around_mouth" transform="matrix(1, 0, 0, 1, 1.4210854715202004e-14, 0)"/>
  <path style="fill: rgb(235, 230, 240); transform-origin: 281.234px 320.97px;" d="M 254.295 355.501 C 254.295 355.501 263.481 353.871 266.847 353.599 C 272.627 353.131 276.056 355.885 281.851 355.731 C 285.759 355.628 291.533 354.557 295.426 354.185 C 299.064 353.837 303.94 353.017 307.403 354.181 C 309.102 354.752 300.042 292.646 300.042 292.646 C 296.01 289.757 289.973 287.348 284.449 286.542 C 279.717 285.85 274.664 286.15 270.151 287.733 C 265.138 289.491 259.103 292.203 256.924 296.622 L 254.295 355.501 Z" id="nose_tint"/>
  <g id="whiskers" style="" transform="matrix(0.9981480240821838, -0.0608379989862442, 0.0608379989862442, 0.9981480240821838, -23.159723626967107, 11.82163637610728)">
    <path d="M 236.862 371.755 C 236.862 371.755 197.856 365.154 178.161 363.634 C 160.917 362.303 143.513 361.285 126.281 362.773 C 112.058 364.001 98.456 369.813 84.216 370.812 C 75.489 371.424 58.001 369.533 58.001 369.533 C 58.001 369.533 56.203 371.218 60.294 371.892 C 65.04 372.674 76.37 374.164 84.42 373.689 C 98.564 372.855 112.03 366.823 126.143 365.573 C 143.177 364.065 160.379 365.185 177.439 366.368 C 197.279 367.744 232.162 373.592 236.651 373.687 L 236.862 371.755 Z" style="fill: rgb(151, 155, 157);"/>
    <path d="M 231.736 389.376 L 231.726 387.019 C 231.726 387.019 182.894 393.737 159.023 399.677 C 129.287 407.076 71.63 428.191 71.63 428.191 L 73.666 428.932 L 75.703 429.672 C 75.703 429.672 131.38 410.125 159.95 402.922 C 183.562 396.969 231.736 389.376 231.736 389.376 Z" style="fill: rgb(151, 155, 157);"/>
    <path d="M 235.647 393.548 L 235.499 391.323 C 235.499 391.323 168.494 408.577 141.217 428.509 C 113.315 448.898 75.675 508.835 75.675 508.835 L 78.562 509.857 C 78.562 509.857 114.708 450.972 141.811 430.913 C 168.873 410.884 235.647 393.548 235.647 393.548 Z" style="fill: rgb(151, 155, 157);"/>
    <path d="M 335.819 392.094 C 335.819 392.094 379.389 389.485 399.627 396.167 C 448.311 412.241 528.781 479.69 528.781 479.69 L 529.933 478.442 C 529.933 478.442 449.611 410.244 400.792 394.134 C 380.201 387.339 335.855 390.291 335.855 390.291 L 335.819 392.094 Z" style="fill: rgb(151, 155, 157); transform-box: fill-box; transform-origin: 50% 50%;"/>
    <path d="M 332.955 393.488 L 332.276 395.246 C 332.276 395.246 405.008 407.122 438.3 440.02 C 471.73 473.054 490.002 523.645 490.002 523.645 L 491.219 521.901 C 491.219 521.901 473.785 470.817 440.35 437.814 C 406.82 404.717 332.955 393.488 332.955 393.488 Z" style="fill: rgb(151, 155, 157); transform-origin: 411.747px 458.556px;"/>
    <path d="M 335.592 369.506 L 335.415 371.738 C 335.415 371.738 387.814 361.366 412.717 368.095 C 443.38 376.381 492.688 419.908 492.688 419.908 L 494.412 417.963 C 494.412 417.963 444.468 374.317 413.519 365.985 C 388.411 359.225 335.592 369.506 335.592 369.506 Z" style="fill: rgb(151, 155, 157); transform-origin: 417.951px 383.151px;"/>
    <g id="whisker_spots">
      <path style="transform-origin: 240.543px 371.261px;" d="M 247.381 366.032 C 247.381 366.032 253.554 367.657 253.437 369.915 C 253.339 371.824 252.026 373.823 250.355 374.751 C 244.885 377.792 237.283 377.54 231.58 374.961 C 229.631 374.079 227.226 372.226 227.397 370.095 C 227.6 367.551 233.358 366.166 233.358 366.166 L 247.381 366.032 Z"/>
      <path style="transform-origin: 244.013px 388.749px;" d="M 253.767 381.303 C 255.879 382.304 257.546 384.994 257.606 387.412 C 257.658 389.528 256.205 391.69 254.512 392.798 C 251.764 394.595 249.002 393.132 245.553 393.672 C 241.569 394.299 236.873 396.671 233.532 394.762 C 231.537 393.623 229.942 390.784 230.305 388.454 C 230.626 386.396 232.864 385.097 234.678 384.273 C 237.12 383.165 242.677 383.601 242.677 383.601 C 242.677 383.601 250.57 379.786 253.767 381.303 Z"/>
      <path style="transform-origin: 326.824px 392.283px;" d="M 334.76 387.72 C 336.873 388.642 338.724 388.697 338.589 390.958 C 338.474 392.88 338.581 396.058 336.887 396.975 C 334.086 398.493 330.516 397.013 327.331 397.032 C 324.145 397.051 320.674 398.408 317.774 397.089 C 315.816 396.198 313.373 394.345 313.559 392.201 C 313.783 389.628 317.155 388.246 319.556 387.293 C 321.931 386.352 327.2 386.76 327.2 386.76 C 327.2 386.76 332.431 386.705 334.76 387.72 Z"/>
      <path style="transform-origin: 329.822px 371.684px;" d="M 330.119 367.602 C 333.617 367.244 340.124 366.769 340.632 368.464 C 341.222 370.432 341.702 373.08 340.343 374.621 C 336.421 379.069 327.078 379.45 322.817 377.675 C 321.011 376.922 319.149 374.79 319.462 372.859 C 319.774 370.929 322.412 370.225 324.161 369.351 C 326.013 368.426 328.06 367.812 330.119 367.602 Z"/>
    </g>
  </g>
  <path style="fill: rgb(151, 107, 104); transform-origin: 395.744px 133.861px;" d="M 430.653 202.832 L 415.315 209.729 L 404.635 194.548 L 404.506 194.421 L 404.435 194.351 C 404.435 194.351 391.203 181.524 382.835 177.523 C 377.49 175.186 371.248 175.147 365.845 174.935 C 360.432 174.725 356.013 174.508 353.005 171.46 C 350.313 169.482 349.699 165.652 349.867 161.758 C 349.88 154.618 357.416 143.31 358.519 141.611 C 360.387 139.533 377.918 120.043 384.759 107.095 C 387.7 100.973 387.08 94.274 390.149 90.273 C 394.326 83.799 408.234 74.954 408.234 74.954 L 408.472 74.8 L 408.539 74.736 L 408.612 74.665 L 408.683 74.597 C 408.683 74.597 418.104 65.419 423.858 63.616 C 427.934 62.231 431.925 60.79 434.443 62.873 L 434.491 62.913 L 434.56 62.947 C 439.654 65.46 441.487 77.051 441.865 79.081 L 441.938 101.738 L 434.569 140.389 L 429.3 172.307 L 430.653 202.832 Z" id="inner_ear_r"/>
  <path style="fill: rgb(151, 107, 104); transform-origin: 155.523px 149.119px;" d="M 130.387 220.404 L 124.479 208.552 L 120.229 177.632 L 115.14 134.54 L 111.57 108.379 L 115.67 78.375 L 121.712 73.746 L 144.278 78.34 L 168.888 111.681 L 189.065 141.013 L 201.195 165.075 L 171.485 176.139 L 146.437 197.624 L 130.387 220.404 Z" id="inner_ear_l"/>
  <path style="transform-origin: 152.253px 294.039px;" d="M 122.608 333.156 L 120.781 322.455 C 120.781 322.455 123.554 310.01 125.532 303.959 C 127.755 297.162 129.798 290.157 133.502 284.039 C 137.037 278.201 141.645 272.94 146.818 268.49 C 149.75 265.969 152.956 263.469 156.657 262.348 C 161.172 260.979 170.805 261.918 170.805 261.918 L 183.988 255.066 L 183.807 264.466 L 178.362 275.322 C 178.362 275.322 173.163 268.953 169.43 268.175 C 165.215 267.298 160.75 269.502 156.96 271.547 C 151.651 274.41 147.142 278.804 143.42 283.55 C 138.036 290.414 134.65 298.683 131.225 306.707 C 127.574 315.255 122.608 333.156 122.608 333.156 Z" id="eyeline_mark_l"/>
  <path d="M 281.157 384.817 L 280.12 382.779 L 279.3 385.076 C 278.483 384.364 277.473 384.874 276.438 385.197 C 274.972 385.655 273.147 387.709 271.281 387.471 C 270.133 387.325 269.214 386.272 268.561 385.32 C 267.844 384.276 267.575 382.952 267.433 381.695 C 267.33 380.774 267.651 378.923 267.651 378.923 C 267.651 378.923 268.41 375.204 268.141 373.361 C 267.926 371.884 267.226 370.496 266.49 369.194 C 266.005 368.338 265.495 367.472 264.914 366.665 C 264.328 365.852 263.669 365.101 262.893 364.482 C 261.932 363.716 260.702 363.346 259.535 362.952 C 258.36 362.555 256.985 362.737 255.906 362.126 C 254.761 361.477 253.773 360.448 253.18 359.276 C 252.585 358.099 251.999 356.6 252.503 355.382 C 253.253 353.568 255.732 353.228 257.581 352.777 C 259.85 352.224 262.158 352.586 264.588 352.745 C 266.491 352.87 268.422 352.701 270.337 352.661 C 271.837 352.63 273.35 352.618 274.786 353.006 C 276.68 353.518 279.017 353.904 280.354 355.263 C 281.654 353.698 284.171 353.338 286.189 352.827 C 287.625 352.463 289.131 352.499 290.625 352.556 C 292.532 352.628 294.453 352.829 296.35 352.736 C 298.773 352.617 301.078 352.294 303.328 352.885 C 305.162 353.366 307.625 353.748 308.342 355.574 C 308.824 356.8 308.215 358.289 307.603 359.456 C 306.993 360.618 305.992 361.631 304.84 362.26 C 303.755 362.853 302.389 362.649 301.212 363.026 C 300.044 363.4 298.812 363.75 297.841 364.5 C 297.058 365.105 296.39 365.845 295.792 366.648 C 295.2 367.446 294.677 368.303 294.18 369.151 C 293.426 370.44 292.706 371.816 292.467 373.29 C 292.168 375.127 292.862 378.859 292.862 378.859 C 292.862 378.859 293.151 380.715 293.032 381.634 C 292.87 382.889 292.58 384.208 291.849 385.24 C 291.182 386.181 290.249 387.218 289.103 387.345 C 287.241 387.552 285.457 385.468 284.004 384.986 C 282.979 384.645 281.982 384.119 281.157 384.817 Z" style="fill: url('#gradient-2'); transform-origin: 280.301px 369.968px;" id="nose_pink"/>
  <path style="transform-origin: 279.883px 389.737px;" d="M 313.514 423.918 C 313.514 423.918 304.42 421.435 298.501 420.068 C 293.749 418.968 288.926 417.996 285.265 417.591 C 283.35 417.379 281.406 417.497 279.476 417.49 C 277.798 417.485 275.83 417.378 274.441 417.543 C 270.795 417.975 265.993 418.978 261.265 420.111 C 255.373 421.52 246.324 424.065 246.324 424.065 C 246.324 424.065 244.462 425.201 243.582 424.864 C 242.243 424.352 243.329 422.948 243.912 422.214 C 244.764 421.139 246.508 420.843 247.934 420.415 C 249.957 419.806 252.392 419.366 254.242 419.354 C 256.806 419.34 259.391 418.939 261.831 418.258 C 263.84 417.695 265.718 416.796 267.507 415.825 C 269.424 414.788 271.463 413.76 272.867 412.229 C 274.102 410.879 274.539 409.108 275.347 407.537 C 276.104 406.065 276.801 404.573 277.566 403.105 C 278.16 401.964 279.042 400.654 279.348 399.281 L 279.395 354.613 C 279.737 354.432 280.352 355.268 280.352 355.268 C 280.352 355.268 280.842 354.461 281.154 354.609 C 281.154 354.609 280.893 387.431 281.103 399.25 C 281.149 401.857 281.922 402.969 282.03 403.175 C 282.807 404.637 283.516 406.126 284.286 407.59 C 285.108 409.157 285.559 410.925 286.808 412.265 C 288.226 413.786 290.279 414.8 292.208 415.826 C 294.009 416.783 295.898 417.67 297.919 418.218 C 300.372 418.882 302.967 419.265 305.539 419.263 C 307.396 419.26 309.842 419.685 311.876 420.279 C 313.308 420.698 315.059 420.981 315.922 422.049 C 316.51 422.78 317.61 424.176 316.271 424.697 C 315.39 425.042 313.514 423.918 313.514 423.918 Z" id="mouth"/>
  <path style="transform-origin: 406.591px 286.738px;" d="M 437.957 292.204 L 438.628 281.639 C 438.628 281.639 427.074 268.14 420.024 263.352 C 414.137 259.354 407.603 255.549 400.55 254.603 C 395.938 253.984 386.758 256.764 386.758 256.764 L 373.589 252.274 L 376.206 260.872 L 379.713 270.258 L 388.407 262.821 C 388.407 262.821 396.843 262.521 400.711 263.933 C 405.972 265.853 414.484 273.552 414.484 273.552 L 437.957 292.204 Z" id="eyeline_mark_r_1"/>
  <path style="" d="M 432.447 327.965 C 432.447 327.965 429.515 321.407 427.284 318.642 C 422.584 312.816 416.712 307.851 410.383 303.854 C 404.676 300.25 391.792 295.826 391.792 295.826 L 393.059 289.911 C 393.059 289.911 404.339 291.535 409.538 293.713 C 414.619 295.842 419.067 299.29 423.481 302.586 C 427.706 305.741 435.415 312.968 435.415 312.968 L 432.447 327.965 Z" id="eyeline_mark_r_2" transform="matrix(1, 0, 0, 1, 1.4210854715202004e-14, 0)"/>
</svg>