<?xml version="1.0" encoding="utf-8"?>
<svg viewBox="135.2507 148.4828 229.4986 233.6364" width="229.4986" height="233.6364" xmlns="http://www.w3.org/2000/svg">
  <g id="halfOne" transform="matrix(1, 0, 0, 1, 1.4210854715202004e-14, 0)">
    <path d="M 250.007 148.484 C 253.71 148.484 257.419 148.455 261.114 148.696 C 265.505 148.983 269.84 149.426 274.234 150.162 C 279.635 151.076 285.106 152.317 290.375 153.83 C 294.104 154.905 298.759 157.005 302.996 158.466 C 303.712 158.713 304.402 159.212 305.158 159.164 C 305.927 159.115 306.32 158.806 307.251 158.183 C 307.936 157.725 308.784 157.172 309.876 156.673 C 311.919 155.9 314.336 155.195 316.654 154.849 C 320.588 154.312 325.016 154.147 329.139 154.725 C 334.187 155.491 339.76 157.036 344.475 159.635 C 347.603 161.515 350.244 164.21 352.313 166.485 C 354.441 168.825 356.856 171.744 358.468 175.017 C 359.612 177.58 360.421 180.11 361.071 182.752 C 361.444 184.266 361.427 185.993 361.807 187.371 C 362.614 190.301 363.527 193.221 363.981 196.226 C 364.545 199.957 364.944 203.764 364.65 207.526 C 364.295 212.07 363.079 216.531 361.73 220.885 C 360.548 224.699 357.156 229.132 357.224 231.985 C 357.278 234.242 359.001 236.153 359.587 238.333 C 360.029 239.975 360.484 241.38 360.446 243.362 C 359.821 245.758 358.513 247.817 357.802 248.865 C 356.684 250.455 355.283 251.977 354.026 253.186 C 351.455 255.636 348.54 257.963 345.626 259.947 C 340.96 263.089 335.949 265.609 331.244 268.084 C 328.178 269.697 324.96 271.349 321.658 272.764 C 318.617 274.056 316.044 274.896 316.044 274.896 C 316.044 274.896 319.101 280.858 320.455 283.648 C 320.895 284.555 321.718 286.397 321.718 286.397 C 324.167 284.422 327.094 282.289 330.29 280.846 C 334.114 279.206 338.901 277.811 343.483 277.796 C 346.584 277.918 350.202 278.922 352.92 280.404 C 355.072 281.654 358.162 284.112 359.402 286.912 C 360.544 289.491 360.231 293.237 359.828 295.362 C 358.301 302.921 353.488 312.646 350.69 316.668 C 346.151 323.017 340.046 328.248 334.303 332.831 C 333.658 333.338 332.838 333.912 331.967 334.491 C 334.14 335.356 336.421 336.009 338.862 336.645 C 341.5 337.333 343.627 338.016 345.753 337.916 C 346.925 338.015 348.745 337.171 350.269 336.965 C 352.174 336.708 354.172 336.102 356.025 336.613 C 358.265 337.23 360.5 338.604 361.781 340.542 C 363.069 342.491 363.404 345.516 363.146 347.417 C 362.712 349.404 361.005 352.909 358.61 354.193 C 356.505 355.322 352.817 354.66 351.444 354.217 C 349.363 353.16 348.367 352.046 348.076 352.173 C 347.031 351.64 345.831 351.411 344.26 351.03 C 343.673 350.885 343.085 350.752 342.495 350.628 C 343.309 351.187 344.243 351.902 345.146 352.858 C 346.279 354.614 347.822 358.851 346.702 361.586 C 345.524 364.463 341.487 366.541 339.097 366.983 C 336.54 367.182 332.603 366.25 330.473 364.093 C 329.169 362.772 329.484 360.505 328.771 358.792 C 328.484 358.102 328.243 356.983 327.74 356.802 C 327.046 355.741 325.046 355.743 322.368 354.666 C 320.023 353.646 317.918 352.596 315.807 351.831 C 315.537 351.629 314.872 351.698 313.679 351.518 C 313.588 351.504 313.493 351.486 313.392 351.463 C 313.64 352.329 313.908 352.973 314.442 353.475 C 314.871 354.635 317.296 355.072 319.93 357.188 C 321.008 358.229 324.025 360.979 324.433 363.543 C 324.888 366.401 323.792 369.68 321.86 371.834 C 320.534 373.312 317.429 374.021 316.396 374.207 C 315.616 374.333 312.214 374.713 310.553 373.681 C 308.423 372.358 307.118 368.329 306.627 367.263 C 306.099 365.555 306.277 365.4 305.903 364.537 C 305.604 363.847 303.745 361.983 303.745 361.983 C 303.745 361.983 302.374 362.016 304.453 367.087 C 305.031 368.497 305.97 369.849 306.048 371.37 C 306.154 373.452 305.241 375.97 304.473 377.422 C 303.508 379.028 301.408 380.926 299.41 381.791 C 296.807 382.424 293.02 382.2 290.476 380.602 C 288.619 379.436 287.282 376.507 286.862 375.104 C 286.437 373.469 286.233 371.139 286.724 369.249 C 287.095 367.819 288.536 366.841 288.971 365.43 C 289.339 364.235 289.328 363.299 289.219 361.687 C 289.095 359.761 289.17 359.048 288.581 357.918 C 288.189 357.167 287.586 356.356 286.768 356.136 C 284.681 355.574 283.166 356.498 280.486 357.744 C 279.112 358.256 277.309 359.484 276.486 360.991 C 275.914 362.04 276.645 363.495 276.091 364.553 C 275.121 366.404 272.816 368.06 271.362 368.668 C 269.525 369.291 266.224 369.68 263.97 368.685 C 261.847 367.748 260.005 365.116 259.292 363.53 C 258.697 361.997 258.191 359.139 258.858 357.095 C 259.612 354.785 262.437 352.477 263.544 351.51 C 264.798 350.506 266.052 349.753 267.162 349.087 C 266.295 349.173 265.469 349.255 264.698 349.356 C 261.71 349.355 260.114 350.436 251.525 350.329 L 249.96 350.309 L 248.475 350.328 C 239.886 350.435 238.29 349.354 235.302 349.355 C 234.531 349.254 233.705 349.172 232.838 349.086 C 233.948 349.752 235.202 350.505 236.456 351.509 C 237.563 352.476 240.388 354.784 241.142 357.094 C 241.809 359.138 241.303 361.996 240.708 363.529 C 239.995 365.115 238.153 367.747 236.03 368.684 C 233.776 369.679 230.475 369.29 228.638 368.667 C 227.184 368.059 224.879 366.403 223.909 364.552 C 223.355 363.494 224.086 362.039 223.514 360.99 C 222.691 359.483 220.888 358.255 219.514 357.743 C 216.834 356.497 215.319 355.573 213.232 356.135 C 212.414 356.355 211.811 357.166 211.419 357.917 C 210.83 359.047 210.905 359.76 210.781 361.686 C 210.672 363.298 210.661 364.234 211.029 365.429 C 211.464 366.84 212.905 367.818 213.276 369.248 C 213.767 371.138 213.563 373.468 213.138 375.103 C 212.718 376.506 211.381 379.435 209.524 380.601 C 206.98 382.199 203.193 382.423 200.59 381.79 C 198.592 380.925 196.492 379.027 195.527 377.421 C 194.759 375.969 193.846 373.451 193.952 371.369 C 194.03 369.848 194.969 368.496 195.547 367.086 C 197.626 362.015 196.255 361.982 196.255 361.982 C 196.255 361.982 194.396 363.846 194.097 364.536 C 193.723 365.399 193.901 365.554 193.373 367.262 C 192.882 368.328 191.577 372.357 189.447 373.68 C 187.786 374.712 184.384 374.332 183.604 374.206 C 182.571 374.02 179.466 373.311 178.14 371.833 C 176.208 369.679 175.112 366.4 175.567 363.542 C 175.975 360.978 178.992 358.228 180.07 357.187 C 182.704 355.071 185.129 354.634 185.558 353.474 C 186.092 352.972 186.36 352.328 186.608 351.462 C 186.507 351.485 186.412 351.503 186.321 351.517 C 185.128 351.697 184.463 351.628 184.193 351.83 C 182.082 352.595 179.977 353.645 177.632 354.665 C 174.954 355.742 172.954 355.74 172.26 356.801 C 171.757 356.982 171.516 358.101 171.229 358.791 C 170.516 360.504 170.831 362.771 169.527 364.092 C 167.397 366.249 163.46 367.181 160.903 366.982 C 158.513 366.54 154.476 364.462 153.298 361.585 C 152.178 358.85 153.721 354.613 154.854 352.857 C 155.757 351.901 156.691 351.186 157.505 350.627 C 156.915 350.751 156.327 350.884 155.74 351.029 C 154.169 351.41 152.969 351.639 151.924 352.172 C 151.633 352.045 150.637 353.159 148.556 354.216 C 147.183 354.659 143.495 355.321 141.39 354.192 C 138.995 352.908 137.288 349.403 136.854 347.416 C 136.596 345.515 136.931 342.49 138.219 340.541 C 139.5 338.603 141.735 337.229 143.975 336.612 C 145.828 336.101 147.826 336.707 149.731 336.964 C 151.255 337.17 153.075 338.014 154.247 337.915 C 156.373 338.015 158.5 337.332 161.138 336.644 C 163.579 336.008 165.86 335.355 168.033 334.49 C 167.162 333.911 166.342 333.337 165.697 332.83 C 159.954 328.247 153.849 323.016 149.31 316.667 C 146.512 312.645 141.699 302.92 140.172 295.361 C 139.769 293.236 139.456 289.49 140.598 286.911 C 141.838 284.111 144.928 281.653 147.08 280.403 C 149.798 278.921 153.416 277.917 156.517 277.795 C 161.099 277.81 165.886 279.205 169.71 280.845 C 172.906 282.288 175.833 284.421 178.282 286.396 C 178.282 286.396 179.105 284.554 179.545 283.647 C 180.899 280.857 183.956 274.895 183.956 274.895 C 183.956 274.895 181.383 274.055 178.342 272.763 C 175.04 271.348 171.822 269.696 168.756 268.083 C 164.051 265.608 159.04 263.088 154.374 259.946 C 151.46 257.962 148.545 255.635 145.974 253.185 C 144.717 251.976 143.316 250.454 142.198 248.864 C 141.487 247.816 140.179 245.757 139.554 243.361 C 139.516 241.379 139.971 239.974 140.413 238.332 C 140.999 236.152 142.722 234.241 142.776 231.984 C 142.844 229.131 139.452 224.698 138.27 220.884 C 136.921 216.53 135.705 212.069 135.35 207.525 C 135.056 203.763 135.455 199.956 136.019 196.225 C 136.473 193.22 137.386 190.3 138.193 187.37 C 138.573 185.992 138.556 184.265 138.929 182.751 C 139.579 180.109 140.388 177.579 141.532 175.016 C 143.144 171.743 145.559 168.824 147.687 166.484 C 149.756 164.209 152.397 161.514 155.525 159.634 C 160.24 157.035 165.813 155.49 170.861 154.724 C 174.984 154.146 179.412 154.311 183.346 154.848 C 185.664 155.194 188.081 155.899 190.124 156.672 C 191.216 157.171 192.064 157.724 192.749 158.182 C 193.68 158.805 194.073 159.114 194.842 159.163 C 195.598 159.211 196.288 158.712 197.004 158.465 C 201.241 157.004 205.896 154.904 209.625 153.829 C 214.894 152.316 220.365 151.075 225.766 150.161 C 230.16 149.425 234.495 148.981 238.886 148.695 C 242.586 148.454 246.299 148.484 250.007 148.484 Z M 255.868 342.845 C 258.503 342.923 258.518 342.433 263.712 341.416 C 267.607 340.953 270.871 341.167 273.377 339.877 C 276.307 338.676 280.465 335.254 284.095 332.12 C 285.9 330.562 287.469 329.136 288.548 328.168 C 289.092 327.68 289.575 327.253 289.883 327.005 C 290.108 326.824 291.053 326.186 291.903 326.033 C 292.309 325.959 293.421 325.995 294.037 326.228 C 294.872 326.544 296.191 327.963 296.447 328.792 C 296.729 329.702 296.471 331.159 296.311 331.542 C 296.18 331.854 295.918 332.269 295.812 332.426 C 293.715 335.36 287.767 343.948 287.767 343.948 L 287.281 344.651 L 286.555 345.09 C 286.555 345.09 282.548 347.515 279.767 349.432 C 282.412 348.539 285.673 347.898 288.74 348.382 C 291.487 349.388 298.334 332.874 298.334 332.874 L 304.651 347.929 C 304.537 346.544 304.498 345.232 304.439 344.071 C 304.372 342.602 304.435 339.807 304.435 339.807 L 304.475 338.04 L 313.076 330.602 L 321.991 340.33 L 326.145 340.65 C 326.113 340.634 326.081 340.619 326.049 340.604 C 324.429 339.772 321.758 337.837 321.758 337.837 L 316.745 334.204 L 322.154 331.147 C 322.154 331.147 327.195 328.298 329.313 326.577 C 334.973 322.064 340.299 317.659 344.144 312.07 C 346.638 308.556 350.797 300.375 351.972 293.854 C 352.333 291.994 352.741 290.941 352.079 290.132 C 351.802 288.88 350.666 288.311 348.951 287.35 C 347.146 286.248 345.436 285.77 343.332 285.794 C 340.015 285.629 336.89 286.698 333.462 288.19 C 330.952 289.207 328.83 290.916 326.397 292.902 C 325.27 293.792 323.151 296.17 323.151 296.17 L 318.818 301.032 L 316.455 294.935 C 316.455 294.935 314.37 289.553 313.187 286.99 C 312.035 284.409 310.153 281.657 308.773 278.294 C 308.119 276.571 307.321 273.259 307.321 273.259 L 306.47 269.726 L 309.932 268.557 C 309.932 268.557 315.763 266.588 318.518 265.406 C 321.557 264.115 324.484 262.601 327.52 261.004 C 332.301 258.489 336.93 256.199 341.136 253.325 C 343.802 251.525 346.195 249.62 348.492 247.408 C 349.601 246.349 350.468 245.455 351.204 244.341 C 352.107 243.035 352.753 242.684 352.524 242.252 C 352.77 242.21 352.507 242.181 352.147 241.274 C 351.61 239.734 349.29 236.7 349.29 236.7 L 348.285 235.384 L 348.561 233.689 C 348.561 233.689 353.997 200.352 352.58 183.931 C 352.424 181.836 352.082 180.132 351.221 178.405 C 350.2 176.048 348.449 174.125 346.395 171.867 C 344.36 169.63 342.705 167.723 340.527 166.593 C 336.752 164.378 332.563 163.311 327.959 162.637 C 324.6 162.099 321.312 162.27 317.754 162.773 C 316.032 162.989 314.491 163.47 312.724 164.149 C 311.58 164.388 309.737 166.042 306.758 167.001 C 305.246 167.172 303.608 167.031 302.75 166.852 C 301.549 166.542 300.456 166.083 299.811 165.805 C 299.021 165.43 298.588 165.142 298.418 165.106 C 295.068 163.683 291.703 162.533 288.164 161.518 C 283.116 160.063 278.085 158.922 272.902 158.05 C 268.798 157.352 264.689 156.968 260.439 156.668 L 259.079 156.502 C 258.556 156.45 257.495 156.334 255.414 156.287 L 255.868 342.845 Z M 244.586 156.286 C 242.505 156.333 241.444 156.449 240.921 156.501 L 239.561 156.667 C 235.311 156.967 231.202 157.351 227.098 158.049 C 221.915 158.921 216.884 160.062 211.836 161.517 C 208.297 162.532 204.932 163.682 201.582 165.105 C 201.412 165.141 200.979 165.429 200.189 165.804 C 199.544 166.082 198.451 166.541 197.25 166.851 C 196.392 167.03 194.754 167.171 193.242 167 C 190.263 166.041 188.42 164.387 187.276 164.148 C 185.509 163.469 183.968 162.988 182.246 162.772 C 178.688 162.269 175.4 162.098 172.041 162.636 C 167.437 163.31 163.248 164.377 159.473 166.592 C 157.295 167.722 155.64 169.629 153.605 171.866 C 151.551 174.124 149.8 176.047 148.779 178.404 C 147.918 180.131 147.576 181.835 147.42 183.93 C 146.003 200.351 151.439 233.688 151.439 233.688 L 151.715 235.383 L 150.71 236.699 C 150.71 236.699 148.39 239.733 147.853 241.273 C 147.493 242.18 147.23 242.209 147.476 242.251 C 147.247 242.683 147.893 243.034 148.796 244.34 C 149.532 245.454 150.399 246.348 151.508 247.407 C 153.805 249.619 156.198 251.524 158.864 253.324 C 163.07 256.198 167.699 258.488 172.48 261.003 C 175.516 262.6 178.443 264.114 181.482 265.405 C 184.237 266.587 190.068 268.556 190.068 268.556 L 193.53 269.725 L 192.679 273.258 C 192.679 273.258 191.881 276.57 191.227 278.293 C 189.847 281.656 187.965 284.408 186.813 286.989 C 185.63 289.552 183.545 294.934 183.545 294.934 L 181.182 301.031 L 176.849 296.169 C 176.849 296.169 174.73 293.791 173.603 292.901 C 171.17 290.915 169.048 289.206 166.538 288.189 C 163.11 286.697 159.985 285.628 156.668 285.793 C 154.564 285.769 152.854 286.247 151.049 287.349 C 149.334 288.31 148.198 288.879 147.921 290.131 C 147.259 290.94 147.667 291.993 148.028 293.853 C 149.203 300.374 153.362 308.555 155.856 312.069 C 159.701 317.658 165.027 322.063 170.687 326.576 C 172.805 328.297 177.846 331.146 177.846 331.146 L 183.255 334.203 L 178.242 337.836 C 178.242 337.836 175.571 339.771 173.951 340.603 C 173.919 340.618 173.887 340.633 173.855 340.649 L 178.009 340.329 L 186.924 330.601 L 195.525 338.039 L 195.565 339.806 C 195.565 339.806 195.628 342.601 195.561 344.07 C 195.502 345.231 195.463 346.543 195.349 347.928 L 201.666 332.873 C 201.666 332.873 208.513 349.387 211.26 348.381 C 214.327 347.897 217.588 348.538 220.233 349.431 C 217.452 347.514 213.445 345.089 213.445 345.089 L 212.719 344.65 L 212.233 343.947 C 212.233 343.947 206.285 335.359 204.188 332.425 C 204.082 332.268 203.82 331.853 203.689 331.541 C 203.529 331.158 203.271 329.701 203.553 328.791 C 203.809 327.962 205.128 326.543 205.963 326.227 C 206.579 325.994 207.691 325.958 208.097 326.032 C 208.947 326.185 209.892 326.823 210.117 327.004 C 210.425 327.252 210.908 327.679 211.452 328.167 C 212.531 329.135 214.1 330.561 215.905 332.119 C 219.535 335.253 223.693 338.675 226.623 339.876 C 229.129 341.166 232.393 340.952 236.288 341.415 C 241.482 342.432 241.497 342.922 244.132 342.844 L 244.586 156.286 Z" style="fill: rgb(3, 3, 1);" id="outer_edge_path"/>
    <path style="fill: rgb(126, 178, 72);" d="M 251.405 152.395 C 254.115 152.417 259.534 152.528 259.534 152.528 L 260.721 152.678 C 265.019 152.982 269.319 153.389 273.568 154.106 C 278.86 154.999 284.111 156.19 289.269 157.674 C 292.903 158.719 296.493 159.948 299.975 161.421 C 300.465 161.628 300.914 161.923 301.402 162.135 C 302.11 162.442 302.819 162.779 303.574 162.938 C 304.353 163.102 305.177 163.241 305.957 163.082 C 307.908 162.683 309.439 161.12 311.3 160.411 C 313.205 159.685 315.184 159.092 317.204 158.811 C 320.95 158.291 324.808 158.123 328.549 158.681 C 333.375 159.401 338.256 160.707 342.501 163.114 C 345.154 164.619 347.302 166.92 349.354 169.176 C 351.445 171.475 353.528 173.896 354.844 176.711 C 355.847 178.856 356.371 181.242 356.566 183.601 C 357.965 200.506 352.51 234.326 352.51 234.326 C 352.51 234.326 355.08 237.812 355.867 239.803 C 356.243 240.754 356.627 241.795 356.485 242.807 C 356.287 244.221 355.31 245.426 354.503 246.603 C 353.576 247.955 352.442 249.163 351.259 250.297 C 348.825 252.628 346.171 254.744 343.381 256.636 C 338.945 259.644 334.125 262.049 329.382 264.544 C 326.331 266.149 323.259 267.732 320.088 269.085 C 317.19 270.322 311.215 272.346 311.215 272.346 C 311.215 272.346 315.495 282.434 316.821 285.319 C 318.051 287.994 320.184 293.487 320.2 293.5 L 323.434 290.17 C 323.434 290.17 323.715 289.928 323.868 289.803 C 326.346 287.781 328.94 285.786 331.876 284.518 C 335.502 282.952 339.458 281.72 343.407 281.795 C 346.01 281.844 348.674 282.585 350.935 283.877 C 352.869 284.982 354.843 286.483 355.74 288.522 C 356.557 290.38 356.282 292.615 355.9 294.608 C 355.697 295.666 355.431 296.82 355.1 297.9 C 354.317 300.451 353.376 302.95 352.3 305.4 C 350.641 309.094 348.783 312.423 347.417 314.369 C 345.578 316.987 343.446 319.384 341.151 321.634 C 338.766 323.971 336.205 326.15 333.6 328.3 C 333.012 328.74 332.41 329.224 331.808 329.704 C 329.434 331.598 324.137 334.621 324.137 334.621 C 324.137 334.621 326.5 336.369 327.812 337.013 C 330.994 338.575 334.422 339.62 337.852 340.515 C 340.452 341.193 343.103 341.941 345.79 341.916 C 347.614 341.899 349.382 341.27 351.16 340.865 C 352.062 340.659 352.928 340.042 353.845 340.165 C 355.624 340.404 357.478 341.384 358.514 342.85 C 359.262 343.909 359.455 345.402 359.215 346.676 C 358.927 348.204 358.142 349.927 356.763 350.645 C 355.553 351.275 353.975 350.832 352.677 350.412 C 351.578 350.056 350.807 349.03 349.759 348.544 C 348.318 347.876 346.749 347.518 345.206 347.143 C 342.44 346.47 339.621 346.016 336.801 345.626 C 334.4 345.294 329.563 344.925 329.563 344.925 C 329.563 344.925 331.678 346.699 332.715 347.61 C 334.412 349.101 335.976 350.745 337.735 352.163 C 339.038 353.213 340.891 353.69 341.821 355.081 C 342.776 356.509 343.626 358.506 342.988 360.101 C 342.331 361.745 340.306 362.778 338.552 363.02 C 336.772 363.265 334.632 362.707 333.416 361.385 C 332.47 360.357 333.004 358.595 332.482 357.299 C 331.974 356.036 331.403 354.696 330.38 353.797 C 328.626 352.256 326.102 351.925 323.96 350.996 C 321.705 350.018 319.495 348.926 317.189 348.077 C 315.431 347.43 312.967 347.903 311.819 346.423 C 310.82 345.136 310.805 343.109 311.586 341.54 C 312.26 340.188 314 338 314 338 L 311.6 335.5 L 308.4 339.9 C 308.434 339.905 308.369 342.553 308.434 343.875 C 308.551 346.257 308.528 348.689 309.134 350.996 C 309.599 352.765 310.19 354.602 311.352 356.015 C 312.86 357.85 315.459 358.473 317.189 360.101 C 318.48 361.316 320.179 362.522 320.499 364.266 C 320.803 365.918 320.133 367.855 318.971 369.068 C 318.167 369.908 316.842 370.066 315.697 370.269 C 314.694 370.447 313.509 370.801 312.64 370.269 C 311.21 369.395 310.963 367.353 310.348 365.794 C 309.959 364.809 309.952 363.684 309.475 362.738 C 308.051 359.911 305.357 357.897 303.69 355.206 C 302.773 353.726 301.398 350.513 301.398 350.513 C 301.398 350.513 301.163 354.748 300.852 356.843 C 300.568 358.756 299.703 360.586 299.651 362.519 C 299.606 364.175 299.981 365.832 300.415 367.431 C 300.805 368.866 301.975 370.094 302.053 371.579 C 302.124 372.936 301.611 374.314 300.961 375.508 C 300.332 376.662 299.394 377.607 298.221 377.972 C 296.438 378.527 294.228 378.277 292.666 377.255 C 291.601 376.558 291.059 375.202 290.701 373.98 C 290.353 372.792 290.277 371.466 290.592 370.269 C 290.95 368.911 292.341 368.002 292.775 366.667 C 293.316 365 293.324 363.177 293.211 361.428 C 293.088 359.534 292.988 357.489 292.011 355.861 C 291.055 354.267 289.556 352.717 287.754 352.259 C 284.801 351.508 281.567 352.833 278.803 354.115 C 276.875 355.009 275.877 356.23 274.667 357.553 C 274.032 358.248 273.43 359.011 273.063 359.878 C 272.67 360.807 272.923 361.892 272.473 362.847 C 272.01 363.829 270.979 364.541 269.962 364.921 C 268.598 365.431 266.926 365.622 265.596 365.03 C 264.37 364.485 263.499 363.21 262.977 361.974 C 262.508 360.863 262.264 359.515 262.649 358.372 C 263.2 356.737 264.83 355.672 266.142 354.551 C 267.899 353.05 270.085 352.126 271.927 350.731 C 273.346 349.656 274.545 348.31 275.966 347.238 C 278.673 345.197 282.045 344.032 284.479 341.671 C 287.855 338.396 290.443 333.059 292.557 330.101 C 293.642 328.582 281.808 340.762 274.976 343.544 C 267.792 346.469 259.618 345.876 251.876 346.344 C 250.628 346.419 249.372 346.419 248.124 346.344 C 240.382 345.876 232.208 346.469 225.024 343.544 C 218.192 340.762 206.358 328.582 207.443 330.101 C 209.557 333.059 212.145 338.396 215.521 341.671 C 217.955 344.032 221.327 345.197 224.034 347.238 C 225.455 348.31 226.654 349.656 228.073 350.731 C 229.915 352.126 232.101 353.05 233.858 354.551 C 235.17 355.672 236.8 356.737 237.351 358.372 C 237.736 359.515 237.492 360.863 237.023 361.974 C 236.501 363.21 235.63 364.485 234.404 365.03 C 233.074 365.622 231.402 365.431 230.038 364.921 C 229.021 364.541 227.99 363.829 227.527 362.847 C 227.077 361.892 227.33 360.807 226.937 359.878 C 226.57 359.011 225.968 358.248 225.333 357.553 C 224.123 356.23 223.125 355.009 221.197 354.115 C 218.433 352.833 215.199 351.508 212.246 352.259 C 210.444 352.717 208.945 354.267 207.989 355.861 C 207.012 357.489 206.912 359.534 206.789 361.428 C 206.676 363.177 206.684 365 207.225 366.667 C 207.659 368.002 209.05 368.911 209.408 370.269 C 209.723 371.466 209.647 372.792 209.299 373.98 C 208.941 375.202 208.399 376.558 207.334 377.255 C 205.772 378.277 203.562 378.527 201.779 377.972 C 200.606 377.607 199.668 376.662 199.039 375.508 C 198.389 374.314 197.876 372.936 197.947 371.579 C 198.025 370.094 199.195 368.866 199.585 367.431 C 200.019 365.832 200.394 364.175 200.349 362.519 C 200.297 360.586 199.432 358.756 199.148 356.843 C 198.837 354.748 198.602 350.513 198.602 350.513 C 198.602 350.513 197.227 353.726 196.31 355.206 C 194.643 357.897 191.949 359.911 190.525 362.738 C 190.048 363.684 190.041 364.809 189.652 365.794 C 189.037 367.353 188.79 369.395 187.36 370.269 C 186.491 370.801 185.306 370.447 184.303 370.269 C 183.158 370.066 181.833 369.908 181.029 369.068 C 179.867 367.855 179.197 365.918 179.501 364.266 C 179.821 362.522 181.52 361.316 182.811 360.101 C 184.541 358.473 187.14 357.85 188.648 356.015 C 189.81 354.602 190.401 352.765 190.866 350.996 C 191.472 348.689 191.449 346.257 191.566 343.875 C 191.631 342.553 191.566 339.905 191.6 339.9 L 188.4 335.5 L 186 338 C 186 338 187.74 340.188 188.414 341.54 C 189.195 343.109 189.18 345.136 188.181 346.423 C 187.033 347.903 184.569 347.43 182.811 348.077 C 180.505 348.926 178.295 350.018 176.04 350.996 C 173.898 351.925 171.374 352.256 169.62 353.797 C 168.597 354.696 168.026 356.036 167.518 357.299 C 166.996 358.595 167.53 360.357 166.584 361.385 C 165.368 362.707 163.228 363.265 161.448 363.02 C 159.694 362.778 157.669 361.745 157.012 360.101 C 156.374 358.506 157.224 356.509 158.179 355.081 C 159.109 353.69 160.962 353.213 162.265 352.163 C 164.024 350.745 165.588 349.101 167.285 347.61 C 168.322 346.699 170.437 344.925 170.437 344.925 C 170.437 344.925 165.6 345.294 163.199 345.626 C 160.379 346.016 157.56 346.47 154.794 347.143 C 153.251 347.518 151.682 347.876 150.241 348.544 C 149.193 349.03 148.422 350.056 147.323 350.412 C 146.025 350.832 144.447 351.275 143.237 350.645 C 141.858 349.927 141.073 348.204 140.785 346.676 C 140.545 345.402 140.738 343.909 141.486 342.85 C 142.522 341.384 144.376 340.404 146.155 340.165 C 147.072 340.042 147.938 340.659 148.84 340.865 C 150.618 341.27 152.386 341.899 154.21 341.916 C 156.897 341.941 159.548 341.193 162.148 340.515 C 165.578 339.62 169.006 338.575 172.188 337.013 C 173.5 336.369 175.863 334.621 175.863 334.621 C 175.863 334.621 170.566 331.598 168.192 329.704 C 167.59 329.224 166.988 328.74 166.4 328.3 C 163.795 326.15 161.234 323.971 158.849 321.634 C 156.554 319.384 154.422 316.987 152.583 314.369 C 151.217 312.423 149.359 309.094 147.7 305.4 C 146.624 302.95 145.683 300.451 144.9 297.9 C 144.569 296.82 144.303 295.666 144.1 294.608 C 143.718 292.615 143.443 290.38 144.26 288.522 C 145.157 286.483 147.131 284.982 149.065 283.877 C 151.326 282.585 153.99 281.844 156.593 281.795 C 160.542 281.72 164.498 282.952 168.124 284.518 C 171.06 285.786 173.654 287.781 176.132 289.803 C 176.285 289.928 176.566 290.17 176.566 290.17 L 179.8 293.5 C 179.816 293.487 181.949 287.994 183.179 285.319 C 184.505 282.434 188.785 272.346 188.785 272.346 C 188.785 272.346 182.81 270.322 179.912 269.085 C 176.741 267.732 173.669 266.149 170.618 264.544 C 165.875 262.049 161.055 259.644 156.619 256.636 C 153.829 254.744 151.175 252.628 148.741 250.297 C 147.558 249.163 146.424 247.955 145.497 246.603 C 144.69 245.426 143.713 244.221 143.515 242.807 C 143.373 241.795 143.757 240.754 144.133 239.803 C 144.92 237.812 147.49 234.326 147.49 234.326 C 147.49 234.326 142.035 200.506 143.434 183.601 C 143.629 181.242 144.153 178.856 145.156 176.711 C 146.472 173.896 148.555 171.475 150.646 169.176 C 152.698 166.92 154.846 164.619 157.499 163.114 C 161.744 160.707 166.625 159.401 171.451 158.681 C 175.192 158.123 179.05 158.291 182.796 158.811 C 184.816 159.092 186.795 159.685 188.7 160.411 C 190.561 161.12 192.092 162.683 194.043 163.082 C 194.823 163.241 195.647 163.102 196.426 162.938 C 197.181 162.779 197.89 162.442 198.598 162.135 C 199.086 161.923 199.535 161.628 200.025 161.421 C 203.507 159.948 207.097 158.719 210.731 157.674 C 215.889 156.19 221.14 154.999 226.432 154.106 C 230.681 153.389 234.981 152.982 239.279 152.678 L 240.466 152.528 C 240.466 152.528 245.885 152.417 248.595 152.395 C 249.532 152.387 250.468 152.387 251.405 152.395 Z" id="main_green"/>
    <path style="fill: rgb(54, 136, 74);" d="M 351.491 228.765 C 351.491 228.765 354.004 226.142 353.521 227.905 C 352.845 230.374 352.566 234.186 352.494 234.186 C 352.37 234.186 349.24 236.177 347.539 237.036 C 343.957 238.844 340.432 241.004 336.514 241.867 C 332.561 242.737 328.378 242.708 324.374 242.115 C 320.809 241.587 317.365 240.28 314.092 238.77 C 310.002 236.883 306.215 234.356 302.571 231.709 C 300.77 230.401 299.019 228.993 297.492 227.373 C 296.178 225.979 294.024 222.79 294.024 222.79 L 294.126 220.91 C 294.126 220.91 295.725 223.458 296.749 224.648 C 297.759 225.821 298.869 226.923 300.094 227.869 C 302.162 229.466 304.483 230.718 306.783 231.957 C 309.654 233.504 315.635 236.122 315.635 236.122 L 324.04 238.989 L 335.504 238.551 L 346.941 233.31 L 351.491 228.765 Z" id="eye_bag_shadow"/>
    <path style="fill: rgb(54, 136, 74); transform-box: fill-box; transform-origin: 50% 50%;" d="M 203.884 234.688 C 203.884 234.688 206.397 237.311 205.914 235.548 C 205.238 233.079 204.959 229.267 204.887 229.267 C 204.763 229.267 201.633 227.276 199.932 226.417 C 196.35 224.609 192.825 222.449 188.907 221.586 C 184.954 220.716 180.771 220.745 176.767 221.338 C 173.202 221.866 169.758 223.173 166.485 224.683 C 162.395 226.57 158.608 229.097 154.964 231.744 C 153.163 233.052 151.412 234.46 149.885 236.08 C 148.571 237.474 146.417 240.663 146.417 240.663 L 146.519 242.543 C 146.519 242.543 148.118 239.995 149.142 238.805 C 150.152 237.632 151.262 236.53 152.487 235.584 C 154.555 233.987 156.876 232.735 159.176 231.496 C 162.047 229.949 168.028 227.331 168.028 227.331 L 176.433 224.464 L 187.897 224.902 L 199.334 230.143 L 203.884 234.688 Z" id="path-4" transform="matrix(-1, 0, 0, -1, 0.000009, 0.000003)"/>
    <path style="fill: rgb(9, 113, 57);" d="M 284.86 171.316 C 284.637 172.794 285.093 174.41 285.874 175.685 C 286.605 176.878 288.171 178.552 289.087 178.387 C 289.087 178.387 289.835 174.441 290.811 173.035 C 292.629 170.417 294.359 167.683 296.633 165.449 C 298.045 164.062 301.406 161.919 301.406 161.919 L 294.98 159.693 C 294.98 159.693 293.791 161.041 293.157 161.678 C 291.286 163.558 288.979 165.018 287.321 167.089 C 286.302 168.362 285.103 169.704 284.86 171.316 Z" id="head_eye_bulge_shadow"/>
    <path style="fill: rgb(9, 113, 57); transform-box: fill-box; transform-origin: 50% 50%;" d="M 198.651 166.775 C 198.428 165.297 198.884 163.681 199.665 162.406 C 200.396 161.213 201.962 159.539 202.878 159.704 C 202.878 159.704 203.626 163.65 204.602 165.056 C 206.42 167.674 208.15 170.408 210.424 172.642 C 211.836 174.029 215.197 176.172 215.197 176.172 L 208.771 178.398 C 208.771 178.398 207.582 177.05 206.948 176.413 C 205.077 174.533 202.77 173.073 201.112 171.002 C 200.093 169.729 198.894 168.387 198.651 166.775 Z" id="path-5" transform="matrix(-1, 0, 0, -1, 0.000013, -0.000001)"/>
    <path style="fill: rgb(7, 4, 3);" d="M 286.766 185.477 C 285.358 185.006 286.541 182.474 286.862 181.025 C 287.312 178.994 288.367 177.133 289.378 175.315 C 290.878 172.617 292.676 170.079 294.605 167.669 C 295.817 166.154 297.07 164.637 298.573 163.411 C 299.774 162.432 302.541 160.991 302.541 160.991 L 309.122 161.281 C 309.122 161.281 306.52 162.508 305.3 163.265 C 304.162 163.971 303.061 164.75 302.057 165.637 C 300.928 166.634 299.986 167.824 298.96 168.927 C 297.856 170.114 296.701 171.257 295.669 172.508 C 294.495 173.931 293.423 175.438 292.379 176.96 C 291.018 178.945 289.857 181.063 288.508 183.057 C 287.951 183.88 287.709 185.792 286.766 185.477 Z" id="inner_edge_eye"/>
    <path style="fill: rgb(232, 227, 158);" d="M 250.534 155.275 C 250.178 155.278 249.822 155.278 249.466 155.275 C 246.516 155.253 243.69 154.965 240.618 155.141 C 236.395 155.383 231.957 155.815 227.667 156.465 C 224.673 156.919 221.392 157.579 218.267 158.203 C 214.222 159.011 209.413 160.265 206.168 160.8 C 203.663 161.213 198.89 161.814 198.9 161.8 C 198.916 161.796 202.942 160.069 205.023 159.369 C 209.366 157.909 213.809 156.745 218.271 155.703 C 221.319 154.991 224.413 154.484 227.495 153.941 C 231.84 153.175 236.167 152.724 240.648 152.46 C 245.592 152.168 246.668 152.336 249.678 152.311 C 249.893 152.309 250.107 152.309 250.322 152.311 C 253.332 152.336 254.408 152.168 259.352 152.46 C 263.833 152.724 268.16 153.175 272.505 153.941 C 275.587 154.484 278.681 154.991 281.729 155.703 C 286.191 156.745 290.634 157.909 294.977 159.369 C 297.058 160.069 301.084 161.796 301.1 161.8 C 301.11 161.814 296.337 161.213 293.832 160.8 C 290.587 160.265 285.778 159.011 281.733 158.203 C 278.608 157.579 275.327 156.919 272.333 156.465 C 268.043 155.815 263.605 155.383 259.382 155.141 C 256.31 154.965 253.484 155.253 250.534 155.275 Z M 301.1 161.8 Z M 198.9 161.8 Z" id="head_ref"/>
    <path style="fill: rgb(57, 144, 78);" d="M 310.747 170.541 C 313.701 168.085 317.293 166.23 321.029 165.338 C 324.845 164.428 328.922 164.728 332.797 165.338 C 335.583 165.777 338.321 166.688 340.849 167.939 C 344.093 169.545 347.439 171.363 349.769 174.133 C 352.23 177.06 353.808 180.798 354.6 184.539 C 357.526 198.366 359.607 214.022 353.857 226.933 C 352.502 229.976 349.306 231.878 346.548 233.746 C 343.26 235.973 339.583 237.715 335.77 238.825 C 333.252 239.558 330.588 239.816 327.966 239.816 C 325.011 239.816 322.014 239.506 319.171 238.701 C 315.899 237.775 312.799 236.233 309.88 234.489 C 306.314 232.359 302.315 230.362 299.97 226.933 C 296.429 221.754 295.048 215.121 294.468 208.846 C 293.854 202.204 294.252 195.158 296.686 188.959 C 299.509 181.769 304.808 175.479 310.747 170.541 Z" id="eyerim"/>
    <path style="fill: rgb(240, 238, 171);" d="M 290.571 179.793 C 290.571 179.793 292.748 178.392 293.745 177.571 C 294.409 177.025 295.011 176.407 295.603 175.783 C 297.907 173.352 299.927 170.788 302.533 168.796 C 306.131 166.046 309.919 163.375 314.235 162.156 C 319.619 160.635 325.537 160.625 331.01 161.577 C 335.415 162.343 340.006 164.331 343.669 167.126 C 346.35 169.172 349.152 173.428 350.031 174.991 C 350.947 176.619 351.757 177.848 352.476 179.351 C 353.759 182.032 355.795 187.627 355.795 187.627 L 357.52 186.724 C 357.52 186.724 357.41 184.843 357.192 183.931 C 356.657 181.69 356.258 179.51 355.242 177.442 C 354.086 175.09 352.478 172.648 350.729 170.52 C 348.725 168.081 346.635 165.683 343.948 163.909 C 340.124 161.384 335.666 159.678 331.154 158.879 C 325.518 157.881 319.528 157.856 313.987 159.29 C 309.649 160.413 305.723 162.811 302.079 165.528 C 299.533 167.426 297.273 169.958 295.259 172.514 C 293.463 174.794 290.571 179.793 290.571 179.793 Z" id="eye_ref"/>
    <g id="eyes">
      <ellipse style="stroke: rgb(0, 0, 0); fill: rgb(255, 255, 255); stroke-width: 2px;" cx="330.141" cy="202.921" rx="30.79" ry="33.328"/>
      <ellipse style="stroke: rgb(0, 0, 0); fill: rgb(238, 133, 36);" cx="328.564" cy="208.222" rx="26.275" ry="26.914"/>
      <ellipse style="stroke: rgb(0, 0, 0); fill: rgb(10, 7, 18);" cx="329.54" cy="206.938" rx="19.889" ry="18.52"/>
      <ellipse style="fill: rgb(255, 255, 255);" cx="323.257" cy="193.586" rx="6.843" ry="6.569"/>
    </g>
    <path style="fill: rgb(254, 236, 172);" d="M 251.411 273.103 C 252.587 273.133 253.76 273.31 254.937 273.283 C 257.818 273.217 260.692 272.866 263.543 272.446 C 267.2 271.908 270.793 271.005 274.42 270.294 C 279.14 269.369 283.839 268.325 288.585 267.545 C 292.711 266.867 296.836 265.978 301.015 265.866 C 305.922 265.735 310.869 266.142 315.692 267.054 C 319.606 267.794 323.466 268.95 327.132 270.507 C 330.253 271.832 333.058 273.803 336.009 275.472 C 338.281 276.757 340.428 278.285 342.808 279.357 C 344.644 280.184 346.536 281.003 348.528 281.3 C 349.667 281.47 350.933 281.669 351.982 281.192 C 352.608 280.907 353.102 280.307 353.385 279.681 C 353.683 279.022 353.873 278.192 353.601 277.522 C 352.027 273.642 347.265 272.044 343.996 269.428 C 342.091 267.904 340.239 266.291 338.168 265.003 C 335.162 263.133 331.871 261.765 328.67 260.254 C 325.786 258.893 322.876 257.586 319.928 256.369 C 316.013 254.753 311.928 253.555 308.057 251.836 C 305.005 250.481 302.276 248.407 299.129 247.291 C 291.016 244.415 282.372 242.275 273.875 240.895 C 269.408 240.17 264.899 239.688 260.384 239.384 C 257.261 239.174 250.995 239.168 250.995 239.168 C 250.302 239.168 249.005 239.168 249.005 239.168 C 249.005 239.168 242.739 239.174 239.616 239.384 C 235.101 239.688 230.592 240.17 226.125 240.895 C 217.628 242.275 208.984 244.415 200.871 247.291 C 197.724 248.407 194.995 250.481 191.943 251.836 C 188.072 253.555 183.987 254.753 180.072 256.369 C 177.124 257.586 174.214 258.893 171.33 260.254 C 168.129 261.765 164.838 263.133 161.832 265.003 C 159.761 266.291 157.909 267.904 156.004 269.428 C 152.735 272.044 147.973 273.642 146.399 277.522 C 146.127 278.192 146.317 279.022 146.615 279.681 C 146.898 280.307 147.392 280.907 148.018 281.192 C 149.067 281.669 150.333 281.47 151.472 281.3 C 153.464 281.003 155.356 280.184 157.192 279.357 C 159.572 278.285 161.719 276.757 163.991 275.472 C 166.942 273.803 169.747 271.832 172.868 270.507 C 176.534 268.95 180.394 267.794 184.308 267.054 C 189.131 266.142 194.078 265.735 198.985 265.866 C 203.164 265.978 207.289 266.867 211.415 267.545 C 216.161 268.325 220.86 269.369 225.58 270.294 C 229.207 271.005 232.8 271.908 236.457 272.446 C 239.308 272.866 242.182 273.217 245.063 273.283 C 246.24 273.31 247.413 273.133 248.589 273.103 C 249.529 273.079 250.471 273.079 251.411 273.103 Z" id="jaw" transform="matrix(-1, 0, 0, -1, 500.000030000003, 521.657859914066)"/>
    <path style="fill: rgb(2, 3, 1); transform-box: fill-box; transform-origin: 50% 50%;" d="M 352.171 260.563 C 352.508 260.325 352.589 259.777 352.506 259.373 C 352.387 258.795 351.94 258.213 351.39 257.997 C 350.9 257.805 350.353 258.183 349.828 258.22 C 349.383 258.252 348.929 258.296 348.49 258.22 C 345.768 257.747 343.171 256.637 340.689 255.423 C 336.042 253.15 332.29 249.262 327.587 247.108 C 323.984 245.458 320.111 244.347 316.207 243.667 C 311.102 242.778 305.858 242.64 300.681 242.873 C 296.501 243.061 292.366 243.875 288.252 244.638 C 283.476 245.524 278.811 246.938 274.05 247.901 C 270.539 248.611 267.013 249.268 263.464 249.754 C 260.507 250.159 254.554 250.636 254.554 250.636 C 254.554 250.636 252.496 250.563 251.467 250.548 C 250.489 250.534 249.511 250.534 248.533 250.548 C 247.504 250.563 246.475 250.672 245.446 250.636 C 242.463 250.531 239.493 250.159 236.536 249.754 C 232.987 249.268 229.461 248.611 225.95 247.901 C 221.189 246.938 216.524 245.524 211.748 244.638 C 207.634 243.875 203.499 243.061 199.319 242.873 C 194.142 242.64 188.898 242.778 183.793 243.667 C 179.889 244.347 176.016 245.458 172.413 247.108 C 167.71 249.262 163.958 253.15 159.311 255.423 C 156.829 256.637 154.232 257.747 151.51 258.22 C 151.071 258.296 150.617 258.252 150.172 258.22 C 149.647 258.183 149.1 257.805 148.61 257.997 C 148.06 258.213 147.613 258.795 147.494 259.373 C 147.411 259.777 147.492 260.325 147.829 260.563 C 149.025 261.407 150.77 260.529 152.21 260.267 C 154.635 259.826 157.055 259.174 159.289 258.135 C 164.118 255.889 167.783 251.523 172.668 249.401 C 176.279 247.832 180.238 247.128 184.136 246.578 C 189.119 245.875 194.194 245.766 199.221 245.99 C 203.367 246.174 207.474 246.911 211.571 247.578 C 216.364 248.359 221.099 249.458 225.862 250.401 C 229.42 251.105 232.951 251.964 236.536 252.518 C 239.431 252.965 242.345 253.327 245.269 253.489 C 246.414 253.552 247.563 253.489 248.71 253.489 C 249.57 253.489 250.43 253.489 251.29 253.489 C 252.437 253.489 253.586 253.552 254.731 253.489 C 257.655 253.327 260.569 252.965 263.464 252.518 C 267.049 251.964 270.58 251.105 274.138 250.401 C 278.901 249.458 283.636 248.359 288.429 247.578 C 292.526 246.911 296.633 246.174 300.779 245.99 C 305.806 245.766 310.881 245.875 315.864 246.578 C 319.762 247.128 323.721 247.832 327.332 249.401 C 332.217 251.523 335.882 255.889 340.711 258.135 C 342.945 259.174 345.365 259.826 347.79 260.267 C 349.23 260.529 350.975 261.407 352.171 260.563 Z" id="mouth" transform="matrix(-1, 0, 0, -1, 0, 0.000015)"/>
    <path style="fill: rgb(214, 160, 72);" d="M 217.351 278.401 L 237.247 281.341 L 248.714 281.439 C 250.051 281.788 251.286 281.439 251.286 281.439 L 262.753 281.341 L 282.649 278.401 L 298.229 274.638 L 298.665 275.255 L 298.516 277.269 L 295.755 281.224 L 298.814 285.924 L 290.293 288.712 L 277.65 291.554 L 261.577 294.102 L 251.678 295.082 C 251.678 295.082 249.842 295.409 248.322 295.082 L 238.423 294.102 L 222.35 291.554 L 209.707 288.712 L 201.186 285.924 L 204.245 281.224 L 201.484 277.269 L 201.335 275.255 L 201.771 274.638 L 217.351 278.401 Z" id="path-11"/>
    <path style="fill: rgb(254, 234, 171);" d="M 251.853 294.076 C 251.853 294.076 267.485 292.578 275.215 291.244 C 283.17 289.871 298.844 285.933 298.844 285.933 L 313.974 301.775 C 313.974 301.775 309.089 302.213 307.073 303.454 C 303.277 305.791 300.682 309.961 298.487 313.897 C 296.756 317.001 296.673 320.831 295.037 323.986 C 294.653 324.725 293.739 325.99 293.57 326.009 C 290.686 326.333 293.065 317.366 294.33 316.906 L 300.346 305.58 L 294 295.7 C 293.975 295.669 290.161 302.935 287.426 305.934 C 284.055 309.631 279.711 312.623 275.304 315.137 C 271.236 317.458 266.778 319.241 262.295 320.711 C 258.957 321.805 254.562 325.355 251.75 323.101 C 251.75 323.101 250.031 323.101 248.25 323.101 C 245.438 325.355 241.043 321.805 237.705 320.711 C 233.222 319.241 228.764 317.458 224.696 315.137 C 220.289 312.623 215.945 309.631 212.574 305.934 C 209.839 302.935 206.025 295.669 206 295.7 L 199.654 305.58 L 205.67 316.906 C 206.935 317.366 209.314 326.333 206.43 326.009 C 206.261 325.99 205.347 324.725 204.963 323.986 C 203.327 320.831 203.244 317.001 201.513 313.897 C 199.318 309.961 196.723 305.791 192.927 303.454 C 190.911 302.213 186.026 301.775 186.026 301.775 L 201.156 285.933 C 201.156 285.933 216.83 289.871 224.785 291.244 C 232.515 292.578 248.147 294.076 248.147 294.076 C 250.028 294.076 251.853 294.076 251.853 294.076 Z" id="stomach_arm_band"/>
    <path style="fill: rgb(204, 150, 69);" d="M 251.497 322.818 C 251.497 322.818 256.453 322.184 258.867 321.567 C 262.858 320.547 266.869 319.386 270.548 317.534 C 276.118 314.73 281.5 311.298 285.984 306.965 C 288.963 304.086 293.824 295.943 294 295.7 C 293.927 295.801 294.749 294.23 294.467 296.199 C 294.104 298.74 292.567 305.129 291.877 307.118 C 290.348 311.526 287.679 316.905 285.01 320.732 C 281.91 325.178 277.563 328.927 272.932 331.837 C 270.687 333.248 268.12 334.319 265.542 335.095 C 263.245 335.786 260.833 336.121 258.45 336.466 C 256.145 336.8 251.497 337.142 251.497 337.142 C 251.497 337.142 249.78 336.939 248.503 337.142 C 248.503 337.142 243.855 336.8 241.55 336.466 C 239.167 336.121 236.755 335.786 234.458 335.095 C 231.88 334.319 229.313 333.248 227.068 331.837 C 222.437 328.927 218.09 325.178 214.99 320.732 C 212.321 316.905 209.652 311.526 208.123 307.118 C 207.433 305.129 205.896 298.74 205.533 296.199 C 205.251 294.23 206.073 295.801 206 295.7 C 206.176 295.943 211.037 304.086 214.016 306.965 C 218.5 311.298 223.882 314.73 229.452 317.534 C 233.131 319.386 237.142 320.547 241.133 321.567 C 243.547 322.184 248.503 322.818 248.503 322.818 C 249.78 322.615 251.497 322.818 251.497 322.818 Z" id="penul_stomach_band"/>
    <path style="fill: rgb(240, 237, 176);" d="M 329.768 285.719 C 329.768 285.719 334.901 283.379 337.622 282.696 C 339.452 282.237 341.353 281.964 343.24 281.994 C 344.695 282.017 346.155 282.266 347.552 282.673 C 348.841 283.048 350.095 283.587 351.246 284.279 C 352.365 284.952 353.06 285.494 353.828 286.261 C 354.438 286.87 355.032 287.532 355.406 288.309 C 355.672 288.862 355.948 289.522 356.01 290.172 C 356.038 290.464 356.082 290.814 355.901 291.044 C 355.583 291.448 355.015 291.722 354.46 291.589 C 353.317 291.316 352.892 289.837 352.073 288.994 C 350.726 287.608 349.664 285.781 347.921 284.946 C 345.595 283.831 342.819 283.959 340.24 284.011 C 336.704 284.083 329.768 285.719 329.768 285.719 Z" id="knee_ref"/>
    <path style="fill: rgb(11, 117, 64);" d="M 310.535 272.592 C 310.535 272.592 299.027 276.693 298.821 276.851 C 297.434 277.918 295.777 279.412 295.822 281.162 C 295.884 283.611 299.029 285.625 301.021 287.051 C 302.74 288.282 304.472 289.416 306.319 289.035 C 307.752 288.74 309.388 286.79 310.298 285.556 C 310.735 284.963 310.604 284.639 311.005 284.536 C 311.547 284.397 311.991 285.065 312.505 285.286 C 313.848 285.864 316.628 286.785 316.628 286.785 L 310.535 272.592 Z" id="shoulder_shadow"/>
    <path style="fill: rgb(16, 111, 59);" d="M 323.564 300.469 C 323.139 299.353 319.398 300.966 320.377 304.78 C 320.945 306.993 319.078 307.962 318.49 309.577 C 316.581 314.822 315.363 320.321 313.168 325.453 C 312.454 327.122 311.558 328.711 310.63 330.272 C 309.018 332.983 307.176 334.679 306.853 337.327 C 306.725 338.374 308.4 339.9 308.4 339.9 L 311.668 335.482 C 311.668 335.482 315.647 330.54 316.887 327.581 C 319.318 321.78 322.836 311.049 324.199 307.267 C 324.509 306.405 324.654 306.385 324.688 305.904 C 324.818 304.059 323.564 300.469 323.564 300.469 Z" id="forarm_shading"/>
    <path style="fill: rgb(30, 104, 65);" d="M 355.1 297.9 C 355.1 297.9 349.215 301.587 347.661 304.07 C 345.643 307.293 344.247 310.932 341.865 313.897 C 339.241 317.163 334.075 318.517 332.668 322.464 C 331.998 324.343 333.48 328.392 333.6 328.3 C 344.458 319.791 350.635 312.488 355.1 297.9 Z" id="shin"/>
    <path style="fill: rgb(0, 1, 0);" d="M 327.807 306.013 C 327.807 306.013 327.783 300.13 326.993 297.334 C 326.277 294.801 323.429 290.142 323.429 290.142 L 320.2 293.5 C 320.2 293.5 322.677 297.738 323.452 300.108 C 324.078 302.022 324.734 304.036 324.576 306.044 C 324.516 306.803 324.065 307.416 323.816 308.104 C 323.039 310.247 322.306 312.437 321.524 314.547 C 320.544 317.19 319.051 322.393 317.285 326.093 C 315.691 329.432 311.588 335.62 311.6 335.5 L 314 338 C 314.348 337.391 318.541 332.231 320.057 329.299 C 321.428 326.647 322.041 323.666 323.044 320.854 C 324.218 317.562 326.592 310.987 326.592 310.987 L 345.135 299.476 L 327.807 306.013 Z" id="arm_leg_sep"/>
    <path style="fill: rgb(141, 91, 46);" d="M 248.216 337.009 C 249.873 337.088 251.784 337.009 251.784 337.009 C 251.784 337.009 259.522 336.497 263.255 335.535 C 266.416 334.721 269.545 333.586 272.361 331.936 C 275.124 330.317 277.637 328.221 279.807 325.866 C 283.242 322.138 286.155 317.894 288.422 313.333 C 291.14 307.865 294.151 296.017 294.007 295.706 L 299.8 300.8 C 299.8 300.8 293.676 311.174 292.753 314.394 C 291.553 318.583 291.252 322.994 290.951 327.341 C 290.853 328.758 291.515 330.298 290.951 331.601 C 288.957 336.212 279.971 341.926 279.971 341.926 C 279.971 341.926 271.728 345.468 267.352 346.258 C 262.19 347.19 251.62 346.678 251.62 346.678 C 251.62 346.678 249.883 346.75 248.38 346.678 C 248.38 346.678 237.81 347.19 232.648 346.258 C 228.272 345.468 220.029 341.926 220.029 341.926 C 220.029 341.926 211.043 336.212 209.049 331.601 C 208.485 330.298 209.147 328.758 209.049 327.341 C 208.748 322.994 208.447 318.583 207.247 314.394 C 206.324 311.174 200.2 300.8 200.2 300.8 L 205.993 295.706 C 205.849 296.017 208.86 307.865 211.578 313.333 C 213.845 317.894 216.758 322.138 220.193 325.866 C 222.363 328.221 224.876 330.317 227.639 331.936 C 230.455 333.586 233.584 334.721 236.745 335.535 C 240.478 336.497 248.216 337.009 248.216 337.009 Z M 205.993 295.706 C 205.995 295.702 205.997 295.7 206 295.7 L 205.993 295.706 Z M 294 295.7 C 294.003 295.7 294.005 295.702 294.007 295.706 L 294 295.7 Z"/>
    <path style="fill: rgb(7, 7, 10);" d="M 291.548 291.328 C 291.265 291.181 290.64 291.025 290.64 291.025 C 290.64 291.025 290.645 291.889 290.82 292.363 C 291.063 293.021 292.892 294.635 294 295.7 C 295.856 297.484 299.794 300.784 299.8 300.8 C 299.794 300.784 296.977 305.449 295.633 307.82 C 294.877 309.154 293.973 310.426 293.439 311.863 C 292.118 315.419 291.77 319.265 291.018 322.984 C 290.713 324.493 291.077 326.279 290.17 327.523 C 288.838 329.35 286.247 329.781 284.204 330.75 C 281.831 331.875 276.915 333.744 276.915 333.744 C 276.915 333.744 273.823 331.654 272.054 331.171 C 270.075 330.63 267.901 330.405 265.907 330.885 C 264.039 331.335 261.993 332.162 260.903 333.744 C 259.625 335.6 259.397 338.22 259.863 340.425 C 260.211 342.073 261.275 343.627 262.593 344.676 C 264.221 345.972 266.388 346.763 268.469 346.784 C 273.378 346.833 285.522 342.27 282.429 342.088 C 282.429 342.088 279.927 340.536 279.191 340.582 C 277.186 340.71 271.094 342.6 268.766 342.399 C 267.411 342.282 265.755 342.538 264.763 341.607 C 263.541 340.46 263.023 338.36 263.476 336.746 C 263.922 335.156 265.5 333.886 267.05 333.315 C 268.573 332.754 270.474 332.845 271.911 333.601 C 272.873 334.107 272.929 335.712 273.913 336.174 C 275.294 336.823 277.005 336.389 278.488 336.031 C 280.436 335.561 282.087 334.267 283.92 333.458 C 286.685 332.238 290.246 332.228 292.31 330.02 C 293.475 328.774 293.506 326.818 293.928 325.166 C 294.799 321.758 294.662 318.109 295.801 314.781 C 296.765 311.965 298.211 309.294 299.933 306.866 C 301.385 304.819 305.079 301.37 305.079 301.37 C 305.079 301.37 296.529 293.923 291.548 291.328 Z" id="inner_edge"/>
    <path style="fill: rgb(126, 178, 72);" d="M 274.392 335.312 C 276.186 335.836 278.17 335.512 279.996 335.115 C 281.582 334.77 282.987 333.879 284.495 333.25 C 286.841 332.272 291.694 330.74 291.694 330.74 L 292.95 329.362 L 293.867 334.943 C 293.109 337.979 287.45 339.193 286.143 340.28 C 285.572 340.755 284.586 341.074 283.749 341.305 C 281.893 341.816 279.793 341.847 278.024 342.072 C 274.961 342.461 271.948 342.674 268.766 342.399 C 267.411 342.282 265.755 342.538 264.763 341.607 C 263.541 340.46 262.817 337.799 263.476 335.997 C 263.988 334.598 265.7 333.812 267.05 333.315 C 268.573 332.754 270.474 332.845 271.911 333.601 C 272.873 334.107 273.428 335.03 274.392 335.312 Z" id="path-1"/>
    <path d="M 258.034 225.523 C 256.323 229.964 257.446 234.58 260.543 235.836 C 263.64 237.092 267.539 234.51 269.25 230.07 C 270.962 225.631 269.84 221.013 266.743 219.759 C 263.645 218.503 259.747 221.084 258.034 225.523 Z" style="fill: rgb(200, 222, 166); transform-origin: 231.72px 226.542px;"/>
    <path style="transform-origin: 263.298px 227.84px;" d="M 266.543 221.864 C 268.217 227.544 264.539 235.23 259.873 233.796 C 258.208 227.444 266.098 220.588 266.543 221.864 Z"/>
  </g>
  <g id="g-1" transform="matrix(-1, 0, 0, 1, 500.0000074505806, 0)" style="">
    <path style="fill: rgb(7, 4, 3);" d="M 286.766 185.477 C 285.358 185.006 286.541 182.474 286.862 181.025 C 287.312 178.994 288.367 177.133 289.378 175.315 C 290.878 172.617 292.676 170.079 294.605 167.669 C 295.817 166.154 297.07 164.637 298.573 163.411 C 299.774 162.432 302.541 160.991 302.541 160.991 L 309.122 161.281 C 309.122 161.281 306.52 162.508 305.3 163.265 C 304.162 163.971 303.061 164.75 302.057 165.637 C 300.928 166.634 299.986 167.824 298.96 168.927 C 297.856 170.114 296.701 171.257 295.669 172.508 C 294.495 173.931 293.423 175.438 292.379 176.96 C 291.018 178.945 289.857 181.063 288.508 183.057 C 287.951 183.88 287.709 185.792 286.766 185.477 Z" id="path-7"/>
    <path style="fill: rgb(57, 144, 78);" d="M 310.747 170.541 C 313.701 168.085 317.293 166.23 321.029 165.338 C 324.845 164.428 328.922 164.728 332.797 165.338 C 335.583 165.777 338.321 166.688 340.849 167.939 C 344.093 169.545 347.439 171.363 349.769 174.133 C 352.23 177.06 353.808 180.798 354.6 184.539 C 357.526 198.366 359.607 214.022 353.857 226.933 C 352.502 229.976 349.306 231.878 346.548 233.746 C 343.26 235.973 339.583 237.715 335.77 238.825 C 333.252 239.558 330.588 239.816 327.966 239.816 C 325.011 239.816 322.014 239.506 319.171 238.701 C 315.899 237.775 312.799 236.233 309.88 234.489 C 306.314 232.359 302.315 230.362 299.97 226.933 C 296.429 221.754 295.048 215.121 294.468 208.846 C 293.854 202.204 294.252 195.158 296.686 188.959 C 299.509 181.769 304.808 175.479 310.747 170.541 Z"/>
    <path style="fill: rgb(240, 238, 171);" d="M 290.571 179.793 C 290.571 179.793 292.748 178.392 293.745 177.571 C 294.409 177.025 295.011 176.407 295.603 175.783 C 297.907 173.352 299.927 170.788 302.533 168.796 C 306.131 166.046 309.919 163.375 314.235 162.156 C 319.619 160.635 325.537 160.625 331.01 161.577 C 335.415 162.343 340.006 164.331 343.669 167.126 C 346.35 169.172 349.152 173.428 350.031 174.991 C 350.947 176.619 351.757 177.848 352.476 179.351 C 353.759 182.032 355.795 187.627 355.795 187.627 L 357.52 186.724 C 357.52 186.724 357.41 184.843 357.192 183.931 C 356.657 181.69 356.258 179.51 355.242 177.442 C 354.086 175.09 352.478 172.648 350.729 170.52 C 348.725 168.081 346.635 165.683 343.948 163.909 C 340.124 161.384 335.666 159.678 331.154 158.879 C 325.518 157.881 319.528 157.856 313.987 159.29 C 309.649 160.413 305.723 162.811 302.079 165.528 C 299.533 167.426 297.273 169.958 295.259 172.514 C 293.463 174.794 290.571 179.793 290.571 179.793 Z" id="path-8"/>
    <g id="g-2">
      <ellipse style="stroke: rgb(0, 0, 0); fill: rgb(255, 255, 255); stroke-width: 2px;" cx="330.141" cy="202.921" rx="30.79" ry="33.328"/>
      <ellipse style="stroke: rgb(0, 0, 0); fill: rgb(238, 133, 36);" cx="328.564" cy="208.222" rx="26.275" ry="26.914"/>
      <ellipse style="stroke: rgb(0, 0, 0); fill: rgb(10, 7, 18);" cx="329.54" cy="206.938" rx="19.889" ry="18.52"/>
      <ellipse style="fill: rgb(255, 255, 255);" cx="323.257" cy="193.586" rx="6.843" ry="6.569"/>
    </g>
    <path style="fill: rgb(240, 237, 176);" d="M 329.768 285.719 C 329.768 285.719 334.901 283.379 337.622 282.696 C 339.452 282.237 341.353 281.964 343.24 281.994 C 344.695 282.017 346.155 282.266 347.552 282.673 C 348.841 283.048 350.095 283.587 351.246 284.279 C 352.365 284.952 353.06 285.494 353.828 286.261 C 354.438 286.87 355.032 287.532 355.406 288.309 C 355.672 288.862 355.948 289.522 356.01 290.172 C 356.038 290.464 356.082 290.814 355.901 291.044 C 355.583 291.448 355.015 291.722 354.46 291.589 C 353.317 291.316 352.892 289.837 352.073 288.994 C 350.726 287.608 349.664 285.781 347.921 284.946 C 345.595 283.831 342.819 283.959 340.24 284.011 C 336.704 284.083 329.768 285.719 329.768 285.719 Z" id="path-14"/>
    <path style="fill: rgb(11, 117, 64);" d="M 310.535 272.592 C 310.535 272.592 299.027 276.693 298.821 276.851 C 297.434 277.918 295.777 279.412 295.822 281.162 C 295.884 283.611 299.029 285.625 301.021 287.051 C 302.74 288.282 304.472 289.416 306.319 289.035 C 307.752 288.74 309.388 286.79 310.298 285.556 C 310.735 284.963 310.604 284.639 311.005 284.536 C 311.547 284.397 311.991 285.065 312.505 285.286 C 313.848 285.864 316.628 286.785 316.628 286.785 L 310.535 272.592 Z" id="path-15"/>
    <path style="fill: rgb(16, 111, 59);" d="M 323.564 300.469 C 323.139 299.353 319.398 300.966 320.377 304.78 C 320.945 306.993 319.078 307.962 318.49 309.577 C 316.581 314.822 315.363 320.321 313.168 325.453 C 312.454 327.122 311.558 328.711 310.63 330.272 C 309.018 332.983 307.176 334.679 306.853 337.327 C 306.725 338.374 308.4 339.9 308.4 339.9 L 311.668 335.482 C 311.668 335.482 315.647 330.54 316.887 327.581 C 319.318 321.78 322.836 311.049 324.199 307.267 C 324.509 306.405 324.654 306.385 324.688 305.904 C 324.818 304.059 323.564 300.469 323.564 300.469 Z" id="path-16"/>
    <path style="fill: rgb(30, 104, 65);" d="M 355.1 297.9 C 355.1 297.9 349.215 301.587 347.661 304.07 C 345.643 307.293 344.247 310.932 341.865 313.897 C 339.241 317.163 334.075 318.517 332.668 322.464 C 331.998 324.343 333.48 328.392 333.6 328.3 C 344.458 319.791 350.635 312.488 355.1 297.9 Z" id="path-17"/>
    <path style="fill: rgb(0, 1, 0);" d="M 327.807 306.013 C 327.807 306.013 327.783 300.13 326.993 297.334 C 326.277 294.801 323.429 290.142 323.429 290.142 L 320.2 293.5 C 320.2 293.5 322.677 297.738 323.452 300.108 C 324.078 302.022 324.734 304.036 324.576 306.044 C 324.516 306.803 324.065 307.416 323.816 308.104 C 323.039 310.247 322.306 312.437 321.524 314.547 C 320.544 317.19 319.051 322.393 317.285 326.093 C 315.691 329.432 311.588 335.62 311.6 335.5 L 314 338 C 314.348 337.391 318.541 332.231 320.057 329.299 C 321.428 326.647 322.041 323.666 323.044 320.854 C 324.218 317.562 326.592 310.987 326.592 310.987 L 345.135 299.476 L 327.807 306.013 Z" id="path-18"/>
    <path style="fill: rgb(7, 7, 10);" d="M 291.548 291.328 C 291.265 291.181 290.64 291.025 290.64 291.025 C 290.64 291.025 290.645 291.889 290.82 292.363 C 291.063 293.021 292.892 294.635 294 295.7 C 295.856 297.484 299.794 300.784 299.8 300.8 C 299.794 300.784 296.977 305.449 295.633 307.82 C 294.877 309.154 293.973 310.426 293.439 311.863 C 292.118 315.419 291.77 319.265 291.018 322.984 C 290.713 324.493 291.077 326.279 290.17 327.523 C 288.838 329.35 286.247 329.781 284.204 330.75 C 281.831 331.875 276.915 333.744 276.915 333.744 C 276.915 333.744 273.823 331.654 272.054 331.171 C 270.075 330.63 267.901 330.405 265.907 330.885 C 264.039 331.335 261.993 332.162 260.903 333.744 C 259.625 335.6 259.397 338.22 259.863 340.425 C 260.211 342.073 261.275 343.627 262.593 344.676 C 264.221 345.972 266.388 346.763 268.469 346.784 C 273.378 346.833 285.522 342.27 282.429 342.088 C 282.429 342.088 279.927 340.536 279.191 340.582 C 277.186 340.71 271.094 342.6 268.766 342.399 C 267.411 342.282 265.755 342.538 264.763 341.607 C 263.541 340.46 263.023 338.36 263.476 336.746 C 263.922 335.156 265.5 333.886 267.05 333.315 C 268.573 332.754 270.474 332.845 271.911 333.601 C 272.873 334.107 272.929 335.712 273.913 336.174 C 275.294 336.823 277.005 336.389 278.488 336.031 C 280.436 335.561 282.087 334.267 283.92 333.458 C 286.685 332.238 290.246 332.228 292.31 330.02 C 293.475 328.774 293.506 326.818 293.928 325.166 C 294.799 321.758 294.662 318.109 295.801 314.781 C 296.765 311.965 298.211 309.294 299.933 306.866 C 301.385 304.819 305.079 301.37 305.079 301.37 C 305.079 301.37 296.529 293.923 291.548 291.328 Z" id="path-19"/>
    <path style="fill: rgb(126, 178, 72);" d="M 274.392 335.312 C 276.186 335.836 278.17 335.512 279.996 335.115 C 281.582 334.77 282.987 333.879 284.495 333.25 C 286.841 332.272 291.694 330.74 291.694 330.74 L 292.95 329.362 L 293.867 334.943 C 293.109 337.979 287.45 339.193 286.143 340.28 C 285.572 340.755 284.586 341.074 283.749 341.305 C 281.893 341.816 279.793 341.847 278.024 342.072 C 274.961 342.461 271.948 342.674 268.766 342.399 C 267.411 342.282 265.755 342.538 264.763 341.607 C 263.541 340.46 262.817 337.799 263.476 335.997 C 263.988 334.598 265.7 333.812 267.05 333.315 C 268.573 332.754 270.474 332.845 271.911 333.601 C 272.873 334.107 273.428 335.03 274.392 335.312 Z" id="path-20"/>
    <path d="M 258.034 225.523 C 256.323 229.964 257.446 234.58 260.543 235.836 C 263.64 237.092 267.539 234.51 269.25 230.07 C 270.962 225.631 269.84 221.013 266.743 219.759 C 263.645 218.503 259.747 221.084 258.034 225.523 Z" style="fill: rgb(200, 222, 166); transform-origin: 231.72px 226.542px;"/>
    <path style="transform-origin: 263.298px 227.84px;" d="M 266.543 221.864 C 268.217 227.544 264.539 235.23 259.873 233.796 C 258.208 227.444 266.098 220.588 266.543 221.864 Z"/>
  </g>
</svg>